STARTFONT 2.3
FONT -FontForge-Source Code Pro-Bold-R-Normal--16-160-72-72-M-100-ISO10646-1
SIZE 16 72 72  2
FONTBOUNDINGBOX 17 24 -4 -7
COMMENT "Generated by fontforge, http://fontforge.sourceforge.net"
COMMENT "Copyright 2010, 2012 Adobe Systems Incorporated (http://www.adobe.com/), with Reserved Font Name `Source'."
STARTPROPERTIES 41
FOUNDRY "FontForge"
FAMILY_NAME "Source Code Pro"
WEIGHT_NAME "Bold"
SLANT "R"
SETWIDTH_NAME "Normal"
ADD_STYLE_NAME ""
PIXEL_SIZE 16
POINT_SIZE 160
RESOLUTION_X 72
RESOLUTION_Y 72
SPACING "M"
AVERAGE_WIDTH 100
CHARSET_REGISTRY "ISO10646"
CHARSET_ENCODING "1"
FONTNAME_REGISTRY ""
CHARSET_COLLECTIONS "ASCII ISOLatin1Encoding ISO8859-2 ISO8859-5 ISO8859-7 ISO8859-9 ISO8859-4 ISO10646-1"
BITS_PER_PIXEL 2
FONT_NAME "SourceCodePro-Bold"
FACE_NAME "Source Code Pro Bold"
COPYRIGHT "Copyright 2010, 2012 Adobe Systems Incorporated (http://www.adobe.com/), with Reserved Font Name `Source'."
FONT_VERSION "2.030;PS 1.000;hotconv 16.6.51;makeotf.lib2.5.65220"
FONT_ASCENT 12
FONT_DESCENT 4
UNDERLINE_POSITION -2
UNDERLINE_THICKNESS 1
X_HEIGHT 7
CAP_HEIGHT 9
RAW_ASCENT 750
RAW_DESCENT 250
NORM_SPACE 10
RELATIVE_WEIGHT 70
RELATIVE_SETWIDTH 50
SUPERSCRIPT_X 0
SUPERSCRIPT_Y 5
SUPERSCRIPT_SIZE 9
SUBSCRIPT_X 0
SUBSCRIPT_Y 1
SUBSCRIPT_SIZE 9
FIGURE_WIDTH 10
AVG_LOWERCASE_WIDTH 100
AVG_UPPERCASE_WIDTH 100
ENDPROPERTIES
CHARS 1564
STARTCHAR space
ENCODING 32
SWIDTH 600 0
DWIDTH 10 0
BBX 1 1 0 0
BITMAP
00
ENDCHAR
STARTCHAR exclam
ENCODING 33
SWIDTH 600 0
DWIDTH 10 0
BBX 4 10 3 0
BITMAP
7C
7C
7C
38
38
38
00
78
BD
78
ENDCHAR
STARTCHAR quotedbl
ENCODING 34
SWIDTH 600 0
DWIDTH 10 0
BBX 8 6 1 5
BITMAP
BC7D
BC7D
BC7C
787C
783C
3438
ENDCHAR
STARTCHAR numbersign
ENCODING 35
SWIDTH 600 0
DWIDTH 10 0
BBX 8 10 1 0
BITMAP
0E28
0D34
BE79
BEBE
1C70
FEB4
FFFD
28A0
38E0
34D0
ENDCHAR
STARTCHAR dollar
ENCODING 36
SWIDTH 600 0
DWIDTH 10 0
BBX 8 13 1 -1
BITMAP
0380
0380
1FE4
7FFC
BC14
7F40
1FF4
01BD
643D
BFFC
2FE4
0380
0380
ENDCHAR
STARTCHAR percent
ENCODING 37
SWIDTH 600 0
DWIDTH 10 0
BBX 9 11 0 0
BITMAP
2E4000
7F8180
B6C3C0
B6CE00
7F8800
2E5F40
007FC0
0676C0
1E76C0
787FC0
201F40
ENDCHAR
STARTCHAR ampersand
ENCODING 38
SWIDTH 600 0
DWIDTH 10 0
BBX 10 10 0 0
BITMAP
0BD000
1FF400
2D7400
1EF400
0FE2D0
2F87C0
7AFB40
B8BF40
7FFFD0
1BE6C0
ENDCHAR
STARTCHAR quotesingle
ENCODING 39
SWIDTH 600 0
DWIDTH 10 0
BBX 3 6 3 5
BITMAP
BC
BC
7C
7C
38
38
ENDCHAR
STARTCHAR parenleft
ENCODING 40
SWIDTH 600 0
DWIDTH 10 0
BBX 5 15 3 -3
BITMAP
0600
0F40
2D00
7800
B400
F000
F000
F000
F000
F000
B400
7800
2D00
0F40
0600
ENDCHAR
STARTCHAR parenright
ENCODING 41
SWIDTH 600 0
DWIDTH 10 0
BBX 5 15 2 -3
BITMAP
6000
B800
2D00
1F00
0B40
0740
0780
0780
0780
0740
0B40
1F00
2D00
B800
6000
ENDCHAR
STARTCHAR asterisk
ENCODING 42
SWIDTH 600 0
DWIDTH 10 0
BBX 8 9 1 1
BITMAP
0100
0340
0380
ABAD
7FF9
0BD0
0FE0
2DB4
2424
ENDCHAR
STARTCHAR plus
ENCODING 43
SWIDTH 600 0
DWIDTH 10 0
BBX 8 8 1 1
BITMAP
0380
0380
0380
FFFD
FFFD
0380
0380
0380
ENDCHAR
STARTCHAR comma
ENCODING 44
SWIDTH 600 0
DWIDTH 10 0
BBX 4 7 3 -4
BITMAP
7D
FE
7E
0E
2D
F8
50
ENDCHAR
STARTCHAR hyphen
ENCODING 45
SWIDTH 600 0
DWIDTH 10 0
BBX 8 2 1 4
BITMAP
FFFD
FFFD
ENDCHAR
STARTCHAR period
ENCODING 46
SWIDTH 600 0
DWIDTH 10 0
BBX 4 4 3 0
BITMAP
78
FE
FE
78
ENDCHAR
STARTCHAR slash
ENCODING 47
SWIDTH 600 0
DWIDTH 10 0
BBX 8 14 1 -3
BITMAP
002D
003C
0074
00F0
01E0
02D0
03C0
0780
0B40
0F00
1D00
3C00
7800
B400
ENDCHAR
STARTCHAR zero
ENCODING 48
SWIDTH 600 0
DWIDTH 10 0
BBX 8 10 1 0
BITMAP
1BE0
7FF8
B87D
F56E
F7DE
F79E
F42E
B87D
7FF8
1BE0
ENDCHAR
STARTCHAR one
ENCODING 49
SWIDTH 600 0
DWIDTH 10 0
BBX 8 11 1 0
BITMAP
0140
2FD0
7FD0
03D0
03D0
03D0
03D0
03D0
03D0
BFFE
BFFE
ENDCHAR
STARTCHAR two
ENCODING 50
SWIDTH 600 0
DWIDTH 10 0
BBX 8 10 1 0
BITMAP
2FD0
BFF8
60BC
007C
00B8
01F0
0BC0
2F00
BFFE
FFFE
ENDCHAR
STARTCHAR three
ENCODING 51
SWIDTH 600 0
DWIDTH 10 0
BBX 8 10 1 0
BITMAP
2FE0
BFF8
647C
00BC
0FE0
0FF4
007D
A07D
FFFC
6FE0
ENDCHAR
STARTCHAR four
ENCODING 52
SWIDTH 600 0
DWIDTH 10 0
BBX 9 10 0 0
BITMAP
00BE00
01FE00
03EE00
0BAE00
1E2E00
3D2E00
7FFFC0
7FFFC0
002E00
002E00
ENDCHAR
STARTCHAR five
ENCODING 53
SWIDTH 600 0
DWIDTH 10 0
BBX 8 10 1 0
BITMAP
7FFC
7FFC
7800
7FE0
7FFC
107D
003D
A07D
FFF8
2FD0
ENDCHAR
STARTCHAR six
ENCODING 54
SWIDTH 600 0
DWIDTH 10 0
BBX 8 10 1 0
BITMAP
0BF4
2FFD
7D14
F6F4
FBFD
FD2E
F41E
B82E
3FFC
0BE0
ENDCHAR
STARTCHAR seven
ENCODING 55
SWIDTH 600 0
DWIDTH 10 0
BBX 8 10 1 0
BITMAP
FFFE
FFFD
0078
00F0
02E0
03C0
07C0
0B80
0B80
0F40
ENDCHAR
STARTCHAR eight
ENCODING 56
SWIDTH 600 0
DWIDTH 10 0
BBX 8 10 1 0
BITMAP
1BE4
7FFC
B93C
2FF4
2FF4
B9BD
F02E
F42E
7FFC
1BE4
ENDCHAR
STARTCHAR nine
ENCODING 57
SWIDTH 600 0
DWIDTH 10 0
BBX 8 10 1 0
BITMAP
1FD0
BFF8
F47D
F47D
BFFE
2FAE
003D
10BC
BFF4
2F90
ENDCHAR
STARTCHAR colon
ENCODING 58
SWIDTH 600 0
DWIDTH 10 0
BBX 4 9 3 0
BITMAP
78
FE
FE
78
00
78
FE
FE
78
ENDCHAR
STARTCHAR semicolon
ENCODING 59
SWIDTH 600 0
DWIDTH 10 0
BBX 4 13 3 -4
BITMAP
78
FE
FE
78
00
00
7D
FE
7E
0E
2D
F8
50
ENDCHAR
STARTCHAR less
ENCODING 60
SWIDTH 600 0
DWIDTH 10 0
BBX 6 10 2 0
BITMAP
0020
01F0
0BD0
7E00
F400
F400
7E00
0BD0
01F0
0020
ENDCHAR
STARTCHAR equal
ENCODING 61
SWIDTH 600 0
DWIDTH 10 0
BBX 8 6 1 2
BITMAP
FFFD
FFFD
0000
0000
FFFD
FFFD
ENDCHAR
STARTCHAR greater
ENCODING 62
SWIDTH 600 0
DWIDTH 10 0
BBX 7 10 1 0
BITMAP
5000
7800
2F40
07E4
00B8
00B8
07E4
2F40
7800
5000
ENDCHAR
STARTCHAR question
ENCODING 63
SWIDTH 600 0
DWIDTH 10 0
BBX 7 11 1 0
BITMAP
1BE0
7FF8
14BC
00B8
01F0
07D0
0780
0000
0B80
0FC0
0B80
ENDCHAR
STARTCHAR at
ENCODING 64
SWIDTH 600 0
DWIDTH 10 0
BBX 9 14 0 -3
BITMAP
02F900
0FFF00
2E0740
3C0280
742B80
74FF80
72E380
72D780
75FF80
78BA80
3C0000
1E4100
0BFF00
02F900
ENDCHAR
STARTCHAR A
ENCODING 65
SWIDTH 600 0
DWIDTH 10 0
BBX 10 10 0 0
BITMAP
02F400
03F800
07BC00
0B6D00
0F2E00
1E1F00
2FFF40
3FFF80
7C0BC0
B807D0
ENDCHAR
STARTCHAR B
ENCODING 66
SWIDTH 600 0
DWIDTH 10 0
BBX 8 10 1 0
BITMAP
BFE4
BFFD
B83D
B87D
BFF4
BFFD
B82F
B82F
BFFE
BFE4
ENDCHAR
STARTCHAR C
ENCODING 67
SWIDTH 600 0
DWIDTH 10 0
BBX 8 10 1 0
BITMAP
06F8
2FFE
BD08
F800
F400
F400
F800
BD09
3FFF
0BF8
ENDCHAR
STARTCHAR D
ENCODING 68
SWIDTH 600 0
DWIDTH 10 0
BBX 8 10 1 0
BITMAP
FFA0
FFF8
F47E
F42F
F41F
F41F
F42F
F47E
FFF8
FFE0
ENDCHAR
STARTCHAR E
ENCODING 69
SWIDTH 600 0
DWIDTH 10 0
BBX 8 10 1 0
BITMAP
BFFD
BFFD
BC00
BC00
BFF8
BFF8
BC00
BC00
BFFE
BFFE
ENDCHAR
STARTCHAR F
ENCODING 70
SWIDTH 600 0
DWIDTH 10 0
BBX 8 10 1 0
BITMAP
7FFE
7FFE
7C00
7C00
7FFC
7FFC
7C00
7C00
7C00
7C00
ENDCHAR
STARTCHAR G
ENCODING 71
SWIDTH 600 0
DWIDTH 10 0
BBX 9 10 0 0
BITMAP
02FD00
0FFF40
2F4500
3D0000
7D3F80
7D3F80
3D0780
2F4780
1FFF80
02FE00
ENDCHAR
STARTCHAR H
ENCODING 72
SWIDTH 600 0
DWIDTH 10 0
BBX 8 10 1 0
BITMAP
F42E
F42E
F42E
F42E
FFFE
FFFE
F42E
F42E
F42E
F42E
ENDCHAR
STARTCHAR I
ENCODING 73
SWIDTH 600 0
DWIDTH 10 0
BBX 8 10 1 0
BITMAP
BFFD
BFFD
07C0
07C0
07C0
07C0
07C0
07C0
BFFD
BFFD
ENDCHAR
STARTCHAR J
ENCODING 74
SWIDTH 600 0
DWIDTH 10 0
BBX 8 10 1 0
BITMAP
7FFD
7FFD
003D
003D
003D
003D
003D
647C
BFF8
2FE0
ENDCHAR
STARTCHAR K
ENCODING 75
SWIDTH 600 0
DWIDTH 10 0
BBX 9 10 1 0
BITMAP
F42E00
F4BC00
F5F400
FBD000
FFD000
FFF000
FDF800
F47C00
F43E00
F41F40
ENDCHAR
STARTCHAR L
ENCODING 76
SWIDTH 600 0
DWIDTH 10 0
BBX 8 10 1 0
BITMAP
7C00
7C00
7C00
7C00
7C00
7C00
7C00
7C00
7FFE
7FFE
ENDCHAR
STARTCHAR M
ENCODING 77
SWIDTH 600 0
DWIDTH 10 0
BBX 8 10 1 0
BITMAP
F83E
F87E
FCBE
EDAE
EADE
E7DE
F39E
F11E
F01E
F01E
ENDCHAR
STARTCHAR N
ENCODING 78
SWIDTH 600 0
DWIDTH 10 0
BBX 8 10 1 0
BITMAP
F82E
FC2E
FE2E
FB2E
F76E
F7EE
F5EE
F4FE
F4BE
F43E
ENDCHAR
STARTCHAR O
ENCODING 79
SWIDTH 600 0
DWIDTH 10 0
BBX 9 10 0 0
BITMAP
06F800
1FFF00
3E1F80
7D0BC0
7C07C0
7C07C0
7D0B80
3E1F80
1FFF00
06F800
ENDCHAR
STARTCHAR P
ENCODING 80
SWIDTH 600 0
DWIDTH 10 0
BBX 8 10 1 0
BITMAP
BFE4
BFFD
B82F
B81F
B82E
BFFD
BFE4
B800
B800
B800
ENDCHAR
STARTCHAR Q
ENCODING 81
SWIDTH 600 0
DWIDTH 10 0
BBX 10 13 0 -3
BITMAP
06F800
1FFF00
3E1F80
7D0B80
7C07C0
7C07C0
7D0B80
3E1F80
1FFF00
07F800
00F800
007FC0
001BD0
ENDCHAR
STARTCHAR R
ENCODING 82
SWIDTH 600 0
DWIDTH 10 0
BBX 8 10 1 0
BITMAP
FFE4
FFFD
F42E
F42E
FFFD
FFF4
F4F4
F4BC
F43E
F42F
ENDCHAR
STARTCHAR S
ENCODING 83
SWIDTH 600 0
DWIDTH 10 0
BBX 8 10 1 0
BITMAP
1BE4
7FFD
B818
BD00
7FE4
0BFD
007E
742E
FFFD
2FE4
ENDCHAR
STARTCHAR T
ENCODING 84
SWIDTH 600 0
DWIDTH 10 0
BBX 9 10 0 0
BITMAP
BFFFC0
BFFFC0
01F000
01F000
01F000
01F000
01F000
01F000
01F000
01F000
ENDCHAR
STARTCHAR U
ENCODING 85
SWIDTH 600 0
DWIDTH 10 0
BBX 8 10 1 0
BITMAP
F42E
F42E
F42E
F42E
F42E
F42E
F42E
B87D
7FFC
1BE4
ENDCHAR
STARTCHAR V
ENCODING 86
SWIDTH 600 0
DWIDTH 10 0
BBX 10 10 0 0
BITMAP
BC07D0
7C07C0
3D0B80
2E0F40
1F1F00
0F5E00
0B6D00
07BC00
03F800
02F400
ENDCHAR
STARTCHAR W
ENCODING 87
SWIDTH 600 0
DWIDTH 10 0
BBX 10 10 0 0
BITMAP
F802D0
B803D0
B853D0
78F3C0
79F3C0
7AF780
3EBB80
3F6F80
2F6F40
2F1F40
ENDCHAR
STARTCHAR X
ENCODING 88
SWIDTH 600 0
DWIDTH 10 0
BBX 9 10 0 0
BITMAP
7D0BC0
2F0F40
0F6E00
07FC00
03F800
03F800
0BBD00
1F2E00
2E0F40
7C0BC0
ENDCHAR
STARTCHAR Y
ENCODING 89
SWIDTH 600 0
DWIDTH 10 0
BBX 9 10 0 0
BITMAP
7C07C0
3D0B80
1F1F00
0F6E00
07BC00
03F800
01F000
01F000
01F000
01F000
ENDCHAR
STARTCHAR Z
ENCODING 90
SWIDTH 600 0
DWIDTH 10 0
BBX 8 10 1 0
BITMAP
BFFE
BFFE
00BC
01F4
03D0
0B80
2F00
7D00
FFFE
FFFE
ENDCHAR
STARTCHAR bracketleft
ENCODING 91
SWIDTH 600 0
DWIDTH 10 0
BBX 5 15 3 -3
BITMAP
BFC0
BFC0
B000
B000
B000
B000
B000
B000
B000
B000
B000
B000
B000
BFC0
BFC0
ENDCHAR
STARTCHAR backslash
ENCODING 92
SWIDTH 600 0
DWIDTH 10 0
BBX 8 14 1 -3
BITMAP
B400
7800
3C00
1D00
0F00
0B40
0780
03C0
02D0
01E0
00F0
0074
003C
002D
ENDCHAR
STARTCHAR bracketright
ENCODING 93
SWIDTH 600 0
DWIDTH 10 0
BBX 6 15 1 -3
BITMAP
7FD0
7FD0
01D0
01D0
01D0
01D0
01D0
01D0
01D0
01D0
01D0
01D0
01D0
7FD0
7FD0
ENDCHAR
STARTCHAR asciicircum
ENCODING 94
SWIDTH 600 0
DWIDTH 10 0
BBX 7 6 1 4
BITMAP
07C0
0BD0
1EE0
2DB4
3C78
783C
ENDCHAR
STARTCHAR underscore
ENCODING 95
SWIDTH 600 0
DWIDTH 10 0
BBX 8 2 1 -3
BITMAP
FFFE
FFFE
ENDCHAR
STARTCHAR grave
ENCODING 96
SWIDTH 600 0
DWIDTH 10 0
BBX 4 4 2 9
BITMAP
20
B8
2E
09
ENDCHAR
STARTCHAR a
ENCODING 97
SWIDTH 600 0
DWIDTH 10 0
BBX 8 8 1 0
BITMAP
1BE4
BFFC
247D
1AFE
BFFE
F87E
FFFE
6F5E
ENDCHAR
STARTCHAR b
ENCODING 98
SWIDTH 600 0
DWIDTH 10 0
BBX 8 11 1 0
BITMAP
F800
F800
F400
FAF4
FFFD
F83E
F82E
F82E
FC7E
FFFC
F6E4
ENDCHAR
STARTCHAR c
ENCODING 99
SWIDTH 600 0
DWIDTH 10 0
BBX 8 8 1 0
BITMAP
0BF8
3FFD
BD04
F800
F800
BD08
3FFE
0BF8
ENDCHAR
STARTCHAR d
ENCODING 100
SWIDTH 600 0
DWIDTH 10 0
BBX 9 11 0 0
BITMAP
000F40
000F40
000F40
07EF40
1FFF40
3E1F40
7D0F40
7D0F40
3E1F40
2FFF40
0BEB40
ENDCHAR
STARTCHAR e
ENCODING 101
SWIDTH 600 0
DWIDTH 10 0
BBX 8 8 1 0
BITMAP
1BE0
7FFC
B82D
FFFE
FFFE
F804
7FFD
1BE4
ENDCHAR
STARTCHAR f
ENCODING 102
SWIDTH 600 0
DWIDTH 10 0
BBX 9 11 1 0
BITMAP
01BE40
07FF00
0BC000
BFFE00
BFFE00
0B8000
0B8000
0B8000
0B8000
0B8000
0B8000
ENDCHAR
STARTCHAR g
ENCODING 103
SWIDTH 600 0
DWIDTH 10 0
BBX 8 11 1 -3
BITMAP
1FFF
7FFF
B878
BEF8
3FF4
7540
BFF9
7FFF
F01F
FFFE
6FE4
ENDCHAR
STARTCHAR h
ENCODING 104
SWIDTH 600 0
DWIDTH 10 0
BBX 8 11 1 0
BITMAP
F800
F800
F400
F6F8
FFFD
FD3E
F82E
F82E
F82E
F82E
F82E
ENDCHAR
STARTCHAR i
ENCODING 105
SWIDTH 600 0
DWIDTH 10 0
BBX 6 12 1 0
BITMAP
02E0
03F0
02E0
0000
BFE0
BFE0
02E0
02E0
02E0
02E0
02E0
02E0
ENDCHAR
STARTCHAR j
ENCODING 106
SWIDTH 600 0
DWIDTH 10 0
BBX 6 15 1 -3
BITMAP
02E0
03F0
02E0
0000
BFE0
BFE0
02E0
02E0
02E0
02E0
02E0
02E0
42E0
FFD0
BE40
ENDCHAR
STARTCHAR k
ENCODING 107
SWIDTH 600 0
DWIDTH 10 0
BBX 8 11 1 0
BITMAP
B800
B800
B800
B82E
B8B8
BAE0
BFD0
BFF0
BDB8
B87D
B82F
ENDCHAR
STARTCHAR l
ENCODING 108
SWIDTH 600 0
DWIDTH 10 0
BBX 9 11 0 0
BITMAP
7FE000
7FE000
02E000
02E000
02E000
02E000
02E000
02E000
02F000
01FF40
007F40
ENDCHAR
STARTCHAR m
ENCODING 109
SWIDTH 600 0
DWIDTH 10 0
BBX 10 8 0 0
BITMAP
76DB40
7FFFC0
7DF7D0
78E3D0
78E3D0
78E3D0
78E3D0
78E3D0
ENDCHAR
STARTCHAR n
ENCODING 110
SWIDTH 600 0
DWIDTH 10 0
BBX 8 8 1 0
BITMAP
F6F8
FFFD
FD3E
F82E
F82E
F82E
F82E
F82E
ENDCHAR
STARTCHAR o
ENCODING 111
SWIDTH 600 0
DWIDTH 10 0
BBX 9 8 0 0
BITMAP
06F800
1FFF00
3E1F80
7D0B80
7D0B80
3E1F80
1FFF00
06F800
ENDCHAR
STARTCHAR p
ENCODING 112
SWIDTH 600 0
DWIDTH 10 0
BBX 8 11 1 -3
BITMAP
F6F4
FFFD
FD3E
F82E
F82E
F87E
FFFC
FAE4
F400
F800
F800
ENDCHAR
STARTCHAR q
ENCODING 113
SWIDTH 600 0
DWIDTH 10 0
BBX 9 11 0 -3
BITMAP
07EB40
1FFF40
3E1F40
7D0F40
7D0F40
3E1F40
2FFF40
0BEF40
000F40
000F40
000F40
ENDCHAR
STARTCHAR r
ENCODING 114
SWIDTH 600 0
DWIDTH 10 0
BBX 7 8 2 0
BITMAP
F2F8
FBF4
FD00
F400
F400
F400
F400
F400
ENDCHAR
STARTCHAR s
ENCODING 115
SWIDTH 600 0
DWIDTH 10 0
BBX 8 8 1 0
BITMAP
1BE4
7FFD
BC14
7FE4
0AFD
643E
FFFD
2FE4
ENDCHAR
STARTCHAR t
ENCODING 116
SWIDTH 600 0
DWIDTH 10 0
BBX 9 10 0 0
BITMAP
03C000
03C000
7FFF80
7FFF80
07C000
07C000
07C000
03E000
02FF80
00BF40
ENDCHAR
STARTCHAR u
ENCODING 117
SWIDTH 600 0
DWIDTH 10 0
BBX 8 8 1 0
BITMAP
F43D
F43D
F43D
F43D
F43D
F8BD
BFFD
2F6D
ENDCHAR
STARTCHAR v
ENCODING 118
SWIDTH 600 0
DWIDTH 10 0
BBX 9 8 0 0
BITMAP
7C07C0
3D0B80
2E0F40
1F1E00
0B6D00
07BC00
03F800
02F400
ENDCHAR
STARTCHAR w
ENCODING 119
SWIDTH 600 0
DWIDTH 10 0
BBX 10 8 0 0
BITMAP
F402D0
B8E2D0
B9F3C0
79F7C0
7EBBC0
3E7B80
3F6F80
2F2F40
ENDCHAR
STARTCHAR x
ENCODING 120
SWIDTH 600 0
DWIDTH 10 0
BBX 8 8 1 0
BITMAP
F83E
7D7C
2EF4
0FE0
0FE0
2EF4
7CBC
F43E
ENDCHAR
STARTCHAR y
ENCODING 121
SWIDTH 600 0
DWIDTH 10 0
BBX 9 11 0 -3
BITMAP
7C07C0
3D0B80
1E0F00
0F5E00
0BAD00
03FC00
02F800
01F400
02E000
2FD000
2E4000
ENDCHAR
STARTCHAR z
ENCODING 122
SWIDTH 600 0
DWIDTH 10 0
BBX 8 8 1 0
BITMAP
7FFE
7FFD
01F8
03E0
0F80
3E00
BFFE
FFFE
ENDCHAR
STARTCHAR braceleft
ENCODING 123
SWIDTH 600 0
DWIDTH 10 0
BBX 7 15 1 -3
BITMAP
01FC
03FC
0780
0780
0380
0380
0B80
7F40
7F40
0B80
0380
0780
0780
03FC
01FC
ENDCHAR
STARTCHAR bar
ENCODING 124
SWIDTH 600 0
DWIDTH 10 0
BBX 3 16 3 -4
BITMAP
7C
7C
7C
7C
7C
7C
7C
7C
7C
7C
7C
7C
7C
7C
7C
7C
ENDCHAR
STARTCHAR braceright
ENCODING 125
SWIDTH 600 0
DWIDTH 10 0
BBX 7 15 1 -3
BITMAP
7E00
7F80
07C0
03C0
0380
0380
03D0
02FC
02FC
03D0
0380
0380
07C0
7F80
7E40
ENDCHAR
STARTCHAR asciitilde
ENCODING 126
SWIDTH 600 0
DWIDTH 10 0
BBX 8 3 1 4
BITMAP
2E4D
BFFD
A1F4
ENDCHAR
STARTCHAR uni00A0
ENCODING 160
SWIDTH 600 0
DWIDTH 10 0
BBX 1 1 0 0
BITMAP
00
ENDCHAR
STARTCHAR exclamdown
ENCODING 161
SWIDTH 600 0
DWIDTH 10 0
BBX 4 11 3 -3
BITMAP
78
BD
78
00
38
38
38
78
7C
7C
7C
ENDCHAR
STARTCHAR cent
ENCODING 162
SWIDTH 600 0
DWIDTH 10 0
BBX 7 11 1 -1
BITMAP
00D0
07F8
2FF8
7DD0
7CD0
7CD0
7DD4
2FFC
0BF8
00D0
00D0
ENDCHAR
STARTCHAR sterling
ENCODING 163
SWIDTH 600 0
DWIDTH 10 0
BBX 8 10 1 0
BITMAP
06F8
1FFE
2E04
2D00
BFF4
FFF4
0F00
1E00
BFFE
FFFE
ENDCHAR
STARTCHAR currency
ENCODING 164
SWIDTH 600 0
DWIDTH 10 0
BBX 8 9 1 1
BITMAP
9009
FBEE
7FFC
B87C
B43D
B87C
7FFC
FBEE
9009
ENDCHAR
STARTCHAR yen
ENCODING 165
SWIDTH 600 0
DWIDTH 10 0
BBX 9 10 0 0
BITMAP
7C0780
2E0F40
0F1E00
07BC00
1BF940
3FFF80
2AFA40
16F540
3FFF80
2AFA40
ENDCHAR
STARTCHAR brokenbar
ENCODING 166
SWIDTH 600 0
DWIDTH 10 0
BBX 3 16 3 -4
BITMAP
7C
7C
7C
7C
7C
7C
7C
00
00
7C
7C
7C
7C
7C
7C
7C
ENDCHAR
STARTCHAR section
ENCODING 167
SWIDTH 600 0
DWIDTH 10 0
BBX 8 12 1 -1
BITMAP
0BE0
2FF4
3D20
2F40
7BF4
B47D
B92D
2FBD
06F4
24B4
7FF4
1FD0
ENDCHAR
STARTCHAR dieresis
ENCODING 168
SWIDTH 600 0
DWIDTH 10 0
BBX 7 3 1 9
BITMAP
2874
7DB8
2C74
ENDCHAR
STARTCHAR copyright
ENCODING 169
SWIDTH 600 0
DWIDTH 10 0
BBX 10 10 0 0
BITMAP
06F800
1FFF00
390780
A1A1C0
9BF8D0
9BF8D0
A2A1C0
390780
1FFF00
06F800
ENDCHAR
STARTCHAR ordfeminine
ENCODING 170
SWIDTH 600 0
DWIDTH 10 0
BBX 6 5 2 6
BITMAP
2F80
7FD0
3FD0
BFD0
7DD0
ENDCHAR
STARTCHAR guillemotleft
ENCODING 171
SWIDTH 600 0
DWIDTH 10 0
BBX 9 7 0 1
BITMAP
060240
1F1F40
7D3D00
783800
7D3D00
1F1F40
060240
ENDCHAR
STARTCHAR logicalnot
ENCODING 172
SWIDTH 600 0
DWIDTH 10 0
BBX 8 5 1 1
BITMAP
FFFD
FFFD
001D
001D
001D
ENDCHAR
STARTCHAR uni00AD
ENCODING 173
SWIDTH 600 0
DWIDTH 10 0
BBX 8 2 1 4
BITMAP
FFFD
FFFD
ENDCHAR
STARTCHAR registered
ENCODING 174
SWIDTH 600 0
DWIDTH 10 0
BBX 7 7 1 5
BITMAP
0BD0
2964
6BD8
6ACC
6BC8
2464
0BD0
ENDCHAR
STARTCHAR macron
ENCODING 175
SWIDTH 600 0
DWIDTH 10 0
BBX 6 1 2 10
BITMAP
BFD0
ENDCHAR
STARTCHAR degree
ENCODING 176
SWIDTH 600 0
DWIDTH 10 0
BBX 5 5 2 6
BITMAP
2F40
7FC0
71C0
7FC0
2F40
ENDCHAR
STARTCHAR plusminus
ENCODING 177
SWIDTH 600 0
DWIDTH 10 0
BBX 8 10 1 0
BITMAP
0380
0380
0380
FFFD
FFFD
0380
0380
0000
FFFD
FFFD
ENDCHAR
STARTCHAR two.sups
ENCODING 178
SWIDTH 600 0
DWIDTH 10 0
BBX 6 7 2 6
BITMAP
2F40
BFC0
52C0
0380
1E00
7FD0
BFD0
ENDCHAR
STARTCHAR three.sups
ENCODING 179
SWIDTH 600 0
DWIDTH 10 0
BBX 6 8 2 5
BITMAP
2F40
7FC0
1F80
0F80
02D0
52D0
BFC0
2E40
ENDCHAR
STARTCHAR acute
ENCODING 180
SWIDTH 600 0
DWIDTH 10 0
BBX 5 4 3 9
BITMAP
0600
1F40
7D00
2400
ENDCHAR
STARTCHAR uni00B5
ENCODING 181
SWIDTH 600 0
DWIDTH 10 0
BBX 9 11 1 -3
BITMAP
F43D00
F43D00
F43D00
F43D00
F43D00
F8BD00
FFFF00
FF9F40
F40000
F40000
F40000
ENDCHAR
STARTCHAR paragraph
ENCODING 182
SWIDTH 600 0
DWIDTH 10 0
BBX 9 12 0 -2
BITMAP
0BDF40
2FDF40
3FDF40
7FDF40
3FDF40
2FDF40
0BDF40
004F40
000F40
000F40
000F40
000F40
ENDCHAR
STARTCHAR periodcentered
ENCODING 183
SWIDTH 600 0
DWIDTH 10 0
BBX 4 4 3 4
BITMAP
78
FE
FE
78
ENDCHAR
STARTCHAR cedilla
ENCODING 184
SWIDTH 600 0
DWIDTH 10 0
BBX 4 4 3 -4
BITMAP
34
7C
2D
F4
ENDCHAR
STARTCHAR one.sups
ENCODING 185
SWIDTH 600 0
DWIDTH 10 0
BBX 6 6 2 6
BITMAP
1B40
3F40
0740
0740
7FF0
7FF0
ENDCHAR
STARTCHAR ordmasculine
ENCODING 186
SWIDTH 600 0
DWIDTH 10 0
BBX 6 5 2 6
BITMAP
2F40
BFD0
B1D0
BFD0
2F40
ENDCHAR
STARTCHAR guillemotright
ENCODING 187
SWIDTH 600 0
DWIDTH 10 0
BBX 8 7 1 1
BITMAP
A060
B878
2E2F
1E0F
2E2F
B878
A060
ENDCHAR
STARTCHAR onequarter
ENCODING 188
SWIDTH 600 0
DWIDTH 10 0
BBX 10 10 0 0
BITMAP
1F0180
3F03C0
0B0E00
0B1800
0B0000
001D40
063680
1E7FD0
787FD0
200280
ENDCHAR
STARTCHAR onehalf
ENCODING 189
SWIDTH 600 0
DWIDTH 10 0
BBX 10 10 0 0
BITMAP
1F0180
3F03C0
0B0E00
0B1800
0B1F40
003FC0
061280
1E0740
782FD0
203FD0
ENDCHAR
STARTCHAR threequarters
ENCODING 190
SWIDTH 600 0
DWIDTH 10 0
BBX 10 11 0 0
BITMAP
2E0000
7F4180
1743C0
1F0B00
7F8800
2E4000
001D40
063680
1E7FD0
787FD0
200280
ENDCHAR
STARTCHAR questiondown
ENCODING 191
SWIDTH 600 0
DWIDTH 10 0
BBX 7 11 1 -3
BITMAP
07D0
0BE0
07D0
0000
03C0
0B80
1F00
3C00
7D20
3FF8
1BE0
ENDCHAR
STARTCHAR Agrave
ENCODING 192
SWIDTH 600 0
DWIDTH 10 0
BBX 10 14 0 0
BITMAP
024000
07E000
006000
000000
02F400
03F800
07BC00
0B6D00
0F2E00
1E1F00
2FFF40
3FFF80
7C0BC0
B807D0
ENDCHAR
STARTCHAR Aacute
ENCODING 193
SWIDTH 600 0
DWIDTH 10 0
BBX 10 14 0 0
BITMAP
002400
01F800
019000
000000
02F400
03F800
07BC00
0B6D00
0F2E00
1E1F00
2FFF40
3FFF80
7C0BC0
B807D0
ENDCHAR
STARTCHAR Acircumflex
ENCODING 194
SWIDTH 600 0
DWIDTH 10 0
BBX 10 13 0 0
BITMAP
03F800
0A1D00
000000
02F400
03F800
07BC00
0B6D00
0F2E00
1E1F00
2FFF40
3FFF80
7C0BC0
B807D0
ENDCHAR
STARTCHAR Atilde
ENCODING 195
SWIDTH 600 0
DWIDTH 10 0
BBX 10 14 0 0
BITMAP
0B9A00
0FFE00
197D00
000000
02F400
03F800
07BC00
0B6D00
0F2E00
1E1F00
2FFF40
3FFF80
7C0BC0
B807D0
ENDCHAR
STARTCHAR Adieresis
ENCODING 196
SWIDTH 600 0
DWIDTH 10 0
BBX 10 13 0 0
BITMAP
0F1E00
0F1E00
000000
02F400
03F800
07BC00
0B6D00
0F2E00
1E1F00
2FFF40
3FFF80
7C0BC0
B807D0
ENDCHAR
STARTCHAR Aring
ENCODING 197
SWIDTH 600 0
DWIDTH 10 0
BBX 10 14 0 0
BITMAP
02F400
036800
02F400
000000
02F400
03F800
07BC00
0B6D00
0F2E00
1E1F00
2FFF40
3FFF80
7C0BC0
B807D0
ENDCHAR
STARTCHAR AE
ENCODING 198
SWIDTH 600 0
DWIDTH 10 0
BBX 10 10 0 0
BITMAP
02FFD0
03FFD0
07BC00
0B7C00
0F3FC0
1E3FC0
2FFC00
7FFC00
BC3FE0
F83FE0
ENDCHAR
STARTCHAR Ccedilla
ENCODING 199
SWIDTH 600 0
DWIDTH 10 0
BBX 8 14 1 -4
BITMAP
06F8
2FFE
BD08
F800
F400
F400
F800
BD09
3FFF
0BF8
01C0
02E0
00F0
0790
ENDCHAR
STARTCHAR Egrave
ENCODING 200
SWIDTH 600 0
DWIDTH 10 0
BBX 8 14 1 0
BITMAP
0600
0BD0
0190
0000
BFFD
BFFD
BC00
BC00
BFF8
BFF8
BC00
BC00
BFFE
BFFE
ENDCHAR
STARTCHAR Eacute
ENCODING 201
SWIDTH 600 0
DWIDTH 10 0
BBX 8 14 1 0
BITMAP
0060
02F4
0240
0000
BFFD
BFFD
BC00
BC00
BFF8
BFF8
BC00
BC00
BFFE
BFFE
ENDCHAR
STARTCHAR Ecircumflex
ENCODING 202
SWIDTH 600 0
DWIDTH 10 0
BBX 8 13 1 0
BITMAP
0BF0
1D28
0000
BFFD
BFFD
BC00
BC00
BFF8
BFF8
BC00
BC00
BFFE
BFFE
ENDCHAR
STARTCHAR Edieresis
ENCODING 203
SWIDTH 600 0
DWIDTH 10 0
BBX 8 13 1 0
BITMAP
2D3C
2D3C
0000
BFFD
BFFD
BC00
BC00
BFF8
BFF8
BC00
BC00
BFFE
BFFE
ENDCHAR
STARTCHAR Igrave
ENCODING 204
SWIDTH 600 0
DWIDTH 10 0
BBX 8 14 1 0
BITMAP
0900
1F80
0180
0000
BFFD
BFFD
07C0
07C0
07C0
07C0
07C0
07C0
BFFD
BFFD
ENDCHAR
STARTCHAR Iacute
ENCODING 205
SWIDTH 600 0
DWIDTH 10 0
BBX 8 14 1 0
BITMAP
0090
07E0
0640
0000
BFFD
BFFD
07C0
07C0
07C0
07C0
07C0
07C0
BFFD
BFFD
ENDCHAR
STARTCHAR Icircumflex
ENCODING 206
SWIDTH 600 0
DWIDTH 10 0
BBX 8 13 1 0
BITMAP
0FE0
2874
0000
BFFD
BFFD
07C0
07C0
07C0
07C0
07C0
07C0
BFFD
BFFD
ENDCHAR
STARTCHAR Idieresis
ENCODING 207
SWIDTH 600 0
DWIDTH 10 0
BBX 8 13 1 0
BITMAP
3C78
3C78
0000
BFFD
BFFD
07C0
07C0
07C0
07C0
07C0
07C0
BFFD
BFFD
ENDCHAR
STARTCHAR Eth
ENCODING 208
SWIDTH 600 0
DWIDTH 10 0
BBX 9 10 0 0
BITMAP
3FE800
3FFE00
3D1F80
FFDBC0
FFD7C0
3D07C0
3D0BC0
3D1F80
3FFE00
3FF800
ENDCHAR
STARTCHAR Ntilde
ENCODING 209
SWIDTH 600 0
DWIDTH 10 0
BBX 8 14 1 0
BITMAP
1E58
3FFC
25F4
0000
F82E
FC2E
FE2E
FB2E
F76E
F7EE
F5EE
F4FE
F4BE
F43E
ENDCHAR
STARTCHAR Ograve
ENCODING 210
SWIDTH 600 0
DWIDTH 10 0
BBX 9 14 0 0
BITMAP
024000
07E000
006000
000000
06F800
1FFF00
3E1F80
7D0BC0
7C07C0
7C07C0
7D0B80
3E1F80
1FFF00
06F800
ENDCHAR
STARTCHAR Oacute
ENCODING 211
SWIDTH 600 0
DWIDTH 10 0
BBX 9 14 0 0
BITMAP
002400
01F800
019000
000000
06F800
1FFF00
3E1F80
7D0BC0
7C07C0
7C07C0
7D0B80
3E1F80
1FFF00
06F800
ENDCHAR
STARTCHAR Ocircumflex
ENCODING 212
SWIDTH 600 0
DWIDTH 10 0
BBX 9 13 0 0
BITMAP
03F800
0A1D00
000000
06F800
1FFF00
3E1F80
7D0BC0
7C07C0
7C07C0
7D0B80
3E1F80
1FFF00
06F800
ENDCHAR
STARTCHAR Otilde
ENCODING 213
SWIDTH 600 0
DWIDTH 10 0
BBX 9 14 0 0
BITMAP
0B9A00
0FFE00
197D00
000000
06F800
1FFF00
3E1F80
7D0BC0
7C07C0
7C07C0
7D0B80
3E1F80
1FFF00
06F800
ENDCHAR
STARTCHAR Odieresis
ENCODING 214
SWIDTH 600 0
DWIDTH 10 0
BBX 9 13 0 0
BITMAP
0F1E00
0F1E00
000000
06F800
1FFF00
3E1F80
7D0BC0
7C07C0
7C07C0
7D0B80
3E1F80
1FFF00
06F800
ENDCHAR
STARTCHAR multiply
ENCODING 215
SWIDTH 600 0
DWIDTH 10 0
BBX 7 7 1 2
BITMAP
2018
7C7C
1FF0
0BD0
1FF0
7C7C
2018
ENDCHAR
STARTCHAR Oslash
ENCODING 216
SWIDTH 600 0
DWIDTH 10 0
BBX 9 12 0 -1
BITMAP
000040
06FAC0
1FFF40
3E1F40
7D3F80
7CBBC0
7ED7C0
7F8B80
3F1F80
2FFF00
7AF800
100000
ENDCHAR
STARTCHAR Ugrave
ENCODING 217
SWIDTH 600 0
DWIDTH 10 0
BBX 8 14 1 0
BITMAP
0900
1F80
0180
0000
F42E
F42E
F42E
F42E
F42E
F42E
F42E
B87D
7FFC
1BE4
ENDCHAR
STARTCHAR Uacute
ENCODING 218
SWIDTH 600 0
DWIDTH 10 0
BBX 8 14 1 0
BITMAP
0090
07E0
0640
0000
F42E
F42E
F42E
F42E
F42E
F42E
F42E
B87D
7FFC
1BE4
ENDCHAR
STARTCHAR Ucircumflex
ENCODING 219
SWIDTH 600 0
DWIDTH 10 0
BBX 8 13 1 0
BITMAP
0FE0
2874
0000
F42E
F42E
F42E
F42E
F42E
F42E
F42E
B87D
7FFC
1BE4
ENDCHAR
STARTCHAR Udieresis
ENCODING 220
SWIDTH 600 0
DWIDTH 10 0
BBX 8 13 1 0
BITMAP
3C78
3C78
0000
F42E
F42E
F42E
F42E
F42E
F42E
F42E
B87D
7FFC
1BE4
ENDCHAR
STARTCHAR Yacute
ENCODING 221
SWIDTH 600 0
DWIDTH 10 0
BBX 9 14 0 0
BITMAP
002400
01F800
019000
000000
7C07C0
3D0B80
1F1F00
0F6E00
07BC00
03F800
01F000
01F000
01F000
01F000
ENDCHAR
STARTCHAR Thorn
ENCODING 222
SWIDTH 600 0
DWIDTH 10 0
BBX 8 10 1 0
BITMAP
B800
BFE4
BFFE
B82F
B81F
B82F
BFFD
BFE4
B800
B800
ENDCHAR
STARTCHAR germandbls
ENCODING 223
SWIDTH 600 0
DWIDTH 10 0
BBX 8 11 1 0
BITMAP
1FD0
7FF4
F8B8
F4B4
F5F0
F5F0
F5FD
F47F
F45F
F6FF
F5F9
ENDCHAR
STARTCHAR agrave
ENCODING 224
SWIDTH 600 0
DWIDTH 10 0
BBX 8 13 1 0
BITMAP
0900
1F40
0BC0
0180
0000
1BE4
BFFC
247D
1AFE
BFFE
F87E
FFFE
6F5E
ENDCHAR
STARTCHAR aacute
ENCODING 225
SWIDTH 600 0
DWIDTH 10 0
BBX 8 13 1 0
BITMAP
0060
00F8
02E0
0180
0000
1BE4
BFFC
247D
1AFE
BFFE
F87E
FFFE
6F5E
ENDCHAR
STARTCHAR acircumflex
ENCODING 226
SWIDTH 600 0
DWIDTH 10 0
BBX 8 12 1 0
BITMAP
07E0
1FB8
1828
0000
1BE4
BFFC
247D
1AFE
BFFE
F87E
FFFE
6F5E
ENDCHAR
STARTCHAR atilde
ENCODING 227
SWIDTH 600 0
DWIDTH 10 0
BBX 8 13 1 0
BITMAP
0504
1F5C
2FFC
28B4
0000
1BE4
BFFC
247D
1AFE
BFFE
F87E
FFFE
6F5E
ENDCHAR
STARTCHAR adieresis
ENCODING 228
SWIDTH 600 0
DWIDTH 10 0
BBX 8 12 1 0
BITMAP
2D38
3E7C
2D38
0000
1BE4
BFFC
247D
1AFE
BFFE
F87E
FFFE
6F5E
ENDCHAR
STARTCHAR aring
ENCODING 229
SWIDTH 600 0
DWIDTH 10 0
BBX 8 13 1 0
BITMAP
07D0
0E70
0E70
07E0
0000
1BE4
BFFC
247D
1AFE
BFFE
F87E
FFFE
6F5E
ENDCHAR
STARTCHAR ae
ENCODING 230
SWIDTH 600 0
DWIDTH 10 0
BBX 10 8 0 0
BITMAP
2F5F40
7FFFC0
1BF2D0
3FFFD0
B8FFD0
B8F440
BFFFC0
2E2F80
ENDCHAR
STARTCHAR ccedilla
ENCODING 231
SWIDTH 600 0
DWIDTH 10 0
BBX 8 12 1 -4
BITMAP
0BF8
3FFD
BD04
F800
F800
BD08
3FFE
0BF8
01C0
02E0
00F0
0790
ENDCHAR
STARTCHAR egrave
ENCODING 232
SWIDTH 600 0
DWIDTH 10 0
BBX 8 13 1 0
BITMAP
0900
2F00
0BC0
0280
0000
1BE0
7FFC
B82D
FFFE
FFFE
F804
7FFD
1BE4
ENDCHAR
STARTCHAR eacute
ENCODING 233
SWIDTH 600 0
DWIDTH 10 0
BBX 8 13 1 0
BITMAP
0060
00F8
03E0
0240
0000
1BE0
7FFC
B82D
FFFE
FFFE
F804
7FFD
1BE4
ENDCHAR
STARTCHAR ecircumflex
ENCODING 234
SWIDTH 600 0
DWIDTH 10 0
BBX 8 12 1 0
BITMAP
0BE0
1EB4
2828
0000
1BE0
7FFC
B82D
FFFE
FFFE
F804
7FFD
1BE4
ENDCHAR
STARTCHAR edieresis
ENCODING 235
SWIDTH 600 0
DWIDTH 10 0
BBX 8 12 1 0
BITMAP
2C78
3D7C
2D78
0000
1BE0
7FFC
B82D
FFFE
FFFE
F804
7FFD
1BE4
ENDCHAR
STARTCHAR igrave
ENCODING 236
SWIDTH 600 0
DWIDTH 10 0
BBX 6 13 1 0
BITMAP
0600
0F80
07D0
0090
0000
BFE0
BFE0
02E0
02E0
02E0
02E0
02E0
02E0
ENDCHAR
STARTCHAR iacute
ENCODING 237
SWIDTH 600 0
DWIDTH 10 0
BBX 7 13 1 0
BITMAP
0024
00BC
01F4
0180
0000
BFE0
BFE0
02E0
02E0
02E0
02E0
02E0
02E0
ENDCHAR
STARTCHAR icircumflex
ENCODING 238
SWIDTH 600 0
DWIDTH 10 0
BBX 7 12 1 0
BITMAP
03F4
0FBC
0918
0000
BFE0
BFE0
02E0
02E0
02E0
02E0
02E0
02E0
ENDCHAR
STARTCHAR idieresis
ENCODING 239
SWIDTH 600 0
DWIDTH 10 0
BBX 8 12 1 0
BITMAP
1E2D
1F3E
1E2D
0000
BFE0
BFE0
02E0
02E0
02E0
02E0
02E0
02E0
ENDCHAR
STARTCHAR eth
ENCODING 240
SWIDTH 600 0
DWIDTH 10 0
BBX 9 11 0 0
BITMAP
064600
07FE00
07FC00
092E00
0BEF40
2FFF80
3D1B80
7C0780
3D0B80
1FFF00
06F800
ENDCHAR
STARTCHAR ntilde
ENCODING 241
SWIDTH 600 0
DWIDTH 10 0
BBX 8 13 1 0
BITMAP
0504
1F6C
3FF8
24B4
0000
F6F8
FFFD
FD3E
F82E
F82E
F82E
F82E
F82E
ENDCHAR
STARTCHAR ograve
ENCODING 242
SWIDTH 600 0
DWIDTH 10 0
BBX 9 13 0 0
BITMAP
020000
0B8000
02E000
009000
000000
06F800
1FFF00
3E1F80
7D0B80
7D0B80
3E1F80
1FFF00
06F800
ENDCHAR
STARTCHAR oacute
ENCODING 243
SWIDTH 600 0
DWIDTH 10 0
BBX 9 13 0 0
BITMAP
001800
007D00
01F400
009000
000000
06F800
1FFF00
3E1F80
7D0B80
7D0B80
3E1F80
1FFF00
06F800
ENDCHAR
STARTCHAR ocircumflex
ENCODING 244
SWIDTH 600 0
DWIDTH 10 0
BBX 9 12 0 0
BITMAP
02F400
0BBD00
090900
000000
06F800
1FFF00
3E1F80
7D0B80
7D0B80
3E1F80
1FFF00
06F800
ENDCHAR
STARTCHAR otilde
ENCODING 245
SWIDTH 600 0
DWIDTH 10 0
BBX 9 13 0 0
BITMAP
010000
0BDA00
0EFE00
097800
000000
06F800
1FFF00
3E1F80
7D0B80
7D0B80
3E1F80
1FFF00
06F800
ENDCHAR
STARTCHAR odieresis
ENCODING 246
SWIDTH 600 0
DWIDTH 10 0
BBX 9 12 0 0
BITMAP
0A1D00
1F6E00
0B1D00
000000
06F800
1FFF00
3E1F80
7D0B80
7D0B80
3E1F80
1FFF00
06F800
ENDCHAR
STARTCHAR divide
ENCODING 247
SWIDTH 600 0
DWIDTH 10 0
BBX 8 8 1 1
BITMAP
0780
0780
0000
FFFD
FFFD
0000
0780
0780
ENDCHAR
STARTCHAR oslash
ENCODING 248
SWIDTH 600 0
DWIDTH 10 0
BBX 9 8 0 0
BITMAP
06FB40
1FFF00
3E2F80
7DBB80
7EDB80
3F5F80
1FFF00
2AF800
ENDCHAR
STARTCHAR ugrave
ENCODING 249
SWIDTH 600 0
DWIDTH 10 0
BBX 8 13 1 0
BITMAP
0800
2E00
0B80
0240
0000
F43D
F43D
F43D
F43D
F43D
F8BD
BFFD
2F6D
ENDCHAR
STARTCHAR uacute
ENCODING 250
SWIDTH 600 0
DWIDTH 10 0
BBX 8 13 1 0
BITMAP
0050
01F4
07D0
0240
0000
F43D
F43D
F43D
F43D
F43D
F8BD
BFFD
2F6D
ENDCHAR
STARTCHAR ucircumflex
ENCODING 251
SWIDTH 600 0
DWIDTH 10 0
BBX 8 12 1 0
BITMAP
0BD0
2EF4
2424
0000
F43D
F43D
F43D
F43D
F43D
F8BD
BFFD
2F6D
ENDCHAR
STARTCHAR udieresis
ENCODING 252
SWIDTH 600 0
DWIDTH 10 0
BBX 8 12 1 0
BITMAP
2874
7DB8
3874
0000
F43D
F43D
F43D
F43D
F43D
F8BD
BFFD
2F6D
ENDCHAR
STARTCHAR yacute
ENCODING 253
SWIDTH 600 0
DWIDTH 10 0
BBX 9 16 0 -3
BITMAP
001800
007D00
00F800
009000
000000
7C07C0
3D0B80
1E0F00
0F5E00
0BAD00
03FC00
02F800
01F400
02E000
2FD000
2E4000
ENDCHAR
STARTCHAR thorn
ENCODING 254
SWIDTH 600 0
DWIDTH 10 0
BBX 8 14 1 -3
BITMAP
F800
F800
F400
FAF4
FFFD
F83E
F82E
F82E
F87E
FFFC
FAE0
F400
F800
F800
ENDCHAR
STARTCHAR ydieresis
ENCODING 255
SWIDTH 600 0
DWIDTH 10 0
BBX 9 15 0 -3
BITMAP
0B1E00
0F6F00
0B1E00
000000
7C07C0
3D0B80
1E0F00
0F5E00
0BAD00
03FC00
02F800
01F400
02E000
2FD000
2E4000
ENDCHAR
STARTCHAR Amacron
ENCODING 256
SWIDTH 600 0
DWIDTH 10 0
BBX 10 13 0 0
BITMAP
0BFD00
0BFD00
000000
02F400
03F800
07BC00
0B6D00
0F2E00
1E1F00
2FFF40
3FFF80
7C0BC0
B807D0
ENDCHAR
STARTCHAR amacron
ENCODING 257
SWIDTH 600 0
DWIDTH 10 0
BBX 8 11 1 0
BITMAP
1FF4
0000
0000
1BE4
BFFC
247D
1AFE
BFFE
F87E
FFFE
6F5E
ENDCHAR
STARTCHAR Abreve
ENCODING 258
SWIDTH 600 0
DWIDTH 10 0
BBX 10 13 0 0
BITMAP
0A1D00
02F800
000000
02F400
03F800
07BC00
0B6D00
0F2E00
1E1F00
2FFF40
3FFF80
7C0BC0
B807D0
ENDCHAR
STARTCHAR abreve
ENCODING 259
SWIDTH 600 0
DWIDTH 10 0
BBX 8 11 1 0
BITMAP
1D38
0BE0
0000
1BE4
BFFC
247D
1AFE
BFFE
F87E
FFFE
6F5E
ENDCHAR
STARTCHAR Aogonek
ENCODING 260
SWIDTH 600 0
DWIDTH 10 0
BBX 10 14 0 -4
BITMAP
02F400
03F800
07BC00
0B6D00
0F2E00
1E1F00
2FFF40
3FFF80
7C0BC0
B807D0
000340
000B00
000BE0
0007D0
ENDCHAR
STARTCHAR aogonek
ENCODING 261
SWIDTH 600 0
DWIDTH 10 0
BBX 8 12 1 -4
BITMAP
1BE4
BFFC
247D
1AFE
BFFE
F87E
FFFE
6FAE
0024
00B0
00BE
007D
ENDCHAR
STARTCHAR Cacute
ENCODING 262
SWIDTH 600 0
DWIDTH 10 0
BBX 8 14 1 0
BITMAP
0024
01F8
0190
0000
06F8
2FFE
BD08
F800
F400
F400
F800
BD09
3FFF
0BF8
ENDCHAR
STARTCHAR cacute
ENCODING 263
SWIDTH 600 0
DWIDTH 10 0
BBX 8 13 1 0
BITMAP
0024
00BC
01F4
0180
0000
0BF8
3FFD
BD04
F800
F800
BD08
3FFE
0BF8
ENDCHAR
STARTCHAR Ccircumflex
ENCODING 264
SWIDTH 600 0
DWIDTH 10 0
BBX 8 13 1 0
BITMAP
07F4
0A1C
0000
06F8
2FFE
BD08
F800
F400
F400
F800
BD09
3FFF
0BF8
ENDCHAR
STARTCHAR ccircumflex
ENCODING 265
SWIDTH 600 0
DWIDTH 10 0
BBX 8 12 1 0
BITMAP
07F0
0FBC
0918
0000
0BF8
3FFD
BD04
F800
F800
BD08
3FFE
0BF8
ENDCHAR
STARTCHAR Cdotaccent
ENCODING 266
SWIDTH 600 0
DWIDTH 10 0
BBX 8 14 1 0
BITMAP
01E0
02F0
01E0
0000
06F8
2FFE
BD08
F800
F400
F400
F800
BD09
3FFF
0BF8
ENDCHAR
STARTCHAR cdotaccent
ENCODING 267
SWIDTH 600 0
DWIDTH 10 0
BBX 8 12 1 0
BITMAP
02E0
03F0
02E0
0000
0BF8
3FFD
BD04
F800
F800
BD08
3FFE
0BF8
ENDCHAR
STARTCHAR Ccaron
ENCODING 268
SWIDTH 600 0
DWIDTH 10 0
BBX 8 13 1 0
BITMAP
0A1C
07F4
0000
06F8
2FFE
BD08
F800
F400
F400
F800
BD09
3FFF
0BF8
ENDCHAR
STARTCHAR ccaron
ENCODING 269
SWIDTH 600 0
DWIDTH 10 0
BBX 8 12 1 0
BITMAP
0918
0FBC
07F0
0000
0BF8
3FFD
BD04
F800
F800
BD08
3FFE
0BF8
ENDCHAR
STARTCHAR Dcaron
ENCODING 270
SWIDTH 600 0
DWIDTH 10 0
BBX 8 13 1 0
BITMAP
2874
0FE0
0000
FFA0
FFF8
F47E
F42F
F41F
F41F
F42F
F47E
FFF8
FFE0
ENDCHAR
STARTCHAR dcaron
ENCODING 271
SWIDTH 600 0
DWIDTH 10 0
BBX 10 13 0 0
BITMAP
0000F0
0000F0
002DF0
002DE0
002D00
0BAD00
2FFD00
7D7D00
7C2D00
7C2D00
7D7D00
3FFD00
0BAD00
ENDCHAR
STARTCHAR Dcroat
ENCODING 272
SWIDTH 600 0
DWIDTH 10 0
BBX 9 10 0 0
BITMAP
3FE800
3FFE00
3D1F80
FFDBC0
FFD7C0
3D07C0
3D0BC0
3D1F80
3FFE00
3FF800
ENDCHAR
STARTCHAR dcroat
ENCODING 273
SWIDTH 600 0
DWIDTH 10 0
BBX 10 11 0 0
BITMAP
000F40
01FFE0
01FFD0
000F40
0BEF40
2FFF40
3E0F40
7D0F40
3E1F40
2FFF40
0BEB40
ENDCHAR
STARTCHAR Emacron
ENCODING 274
SWIDTH 600 0
DWIDTH 10 0
BBX 8 13 1 0
BITMAP
1FF8
1FF8
0000
BFFD
BFFD
BC00
BC00
BFF8
BFF8
BC00
BC00
BFFE
BFFE
ENDCHAR
STARTCHAR emacron
ENCODING 275
SWIDTH 600 0
DWIDTH 10 0
BBX 8 11 1 0
BITMAP
1FF4
0000
0000
1BE0
7FFC
B82D
FFFE
FFFE
F804
7FFD
1BE4
ENDCHAR
STARTCHAR Ebreve
ENCODING 276
SWIDTH 600 0
DWIDTH 10 0
BBX 8 13 1 0
BITMAP
1D28
0BE0
0000
BFFD
BFFD
BC00
BC00
BFF8
BFF8
BC00
BC00
BFFE
BFFE
ENDCHAR
STARTCHAR ebreve
ENCODING 277
SWIDTH 600 0
DWIDTH 10 0
BBX 8 11 1 0
BITMAP
2C38
0BE0
0000
1BE0
7FFC
B82D
FFFE
FFFE
F804
7FFD
1BE4
ENDCHAR
STARTCHAR Edotaccent
ENCODING 278
SWIDTH 600 0
DWIDTH 10 0
BBX 8 14 1 0
BITMAP
02D0
07E0
02D0
0000
BFFD
BFFD
BC00
BC00
BFF8
BFF8
BC00
BC00
BFFE
BFFE
ENDCHAR
STARTCHAR edotaccent
ENCODING 279
SWIDTH 600 0
DWIDTH 10 0
BBX 8 12 1 0
BITMAP
07D0
0BE0
07D0
0000
1BE0
7FFC
B82D
FFFE
FFFE
F804
7FFD
1BE4
ENDCHAR
STARTCHAR Eogonek
ENCODING 280
SWIDTH 600 0
DWIDTH 10 0
BBX 8 14 1 -4
BITMAP
BFFD
BFFD
BC00
BC00
BFF8
BFF8
BC00
BC00
BFFE
BFFE
0038
00B4
00BE
007D
ENDCHAR
STARTCHAR eogonek
ENCODING 281
SWIDTH 600 0
DWIDTH 10 0
BBX 8 12 1 -4
BITMAP
1BE0
7FFC
B82D
FFFE
FFFE
F804
7FFD
1BF8
00A0
00E0
01FD
00B8
ENDCHAR
STARTCHAR Ecaron
ENCODING 282
SWIDTH 600 0
DWIDTH 10 0
BBX 8 13 1 0
BITMAP
1D28
0BF0
0000
BFFD
BFFD
BC00
BC00
BFF8
BFF8
BC00
BC00
BFFE
BFFE
ENDCHAR
STARTCHAR ecaron
ENCODING 283
SWIDTH 600 0
DWIDTH 10 0
BBX 8 12 1 0
BITMAP
2828
1EB4
0BE0
0000
1BE0
7FFC
B82D
FFFE
FFFE
F804
7FFD
1BE4
ENDCHAR
STARTCHAR Gcircumflex
ENCODING 284
SWIDTH 600 0
DWIDTH 10 0
BBX 9 13 0 0
BITMAP
01FC00
034A00
000000
02FD00
0FFF40
2F4500
3D0000
7D3F80
7D3F80
3D0780
2F4780
1FFF80
02FE00
ENDCHAR
STARTCHAR gcircumflex
ENCODING 285
SWIDTH 600 0
DWIDTH 10 0
BBX 8 15 1 -3
BITMAP
0BD0
2EF4
2424
0000
1FFF
7FFF
B878
BEF8
3FF4
7540
BFF9
7FFF
F01F
FFFE
6FE4
ENDCHAR
STARTCHAR Gbreve
ENCODING 286
SWIDTH 600 0
DWIDTH 10 0
BBX 9 13 0 0
BITMAP
074A00
02F900
000000
02FD00
0FFF40
2F4500
3D0000
7D3F80
7D3F80
3D0780
2F4780
1FFF80
02FE00
ENDCHAR
STARTCHAR gbreve
ENCODING 287
SWIDTH 600 0
DWIDTH 10 0
BBX 8 14 1 -3
BITMAP
2C74
0BE0
0000
1FFF
7FFF
B878
BEF8
3FF4
7540
BFF9
7FFF
F01F
FFFE
6FE4
ENDCHAR
STARTCHAR Gdotaccent
ENCODING 288
SWIDTH 600 0
DWIDTH 10 0
BBX 9 14 0 0
BITMAP
00B400
00F800
00B400
000000
02FD00
0FFF40
2F4500
3D0000
7D3F80
7D3F80
3D0780
2F4780
1FFF80
02FE00
ENDCHAR
STARTCHAR gdotaccent
ENCODING 289
SWIDTH 600 0
DWIDTH 10 0
BBX 8 15 1 -3
BITMAP
0780
0BD0
07C0
0000
1FFF
7FFF
B878
BEF8
3FF4
7540
BFF9
7FFF
F01F
FFFE
6FE4
ENDCHAR
STARTCHAR uni0122
ENCODING 290
SWIDTH 600 0
DWIDTH 10 0
BBX 9 15 0 -5
BITMAP
02FD00
0FFF40
2F4500
3D0000
7D3F80
7D3F80
3D0780
2F4780
1FFF80
02FE00
000000
00A000
007800
02F800
01E000
ENDCHAR
STARTCHAR uni0123
ENCODING 291
SWIDTH 600 0
DWIDTH 10 0
BBX 8 15 1 -3
BITMAP
02E0
0BE0
0680
0000
1FFF
7FFF
B878
BEF8
3FF4
7540
BFF9
7FFF
F01F
FFFE
6FE4
ENDCHAR
STARTCHAR Hcircumflex
ENCODING 292
SWIDTH 600 0
DWIDTH 10 0
BBX 8 13 1 0
BITMAP
0FE0
2874
0000
F42E
F42E
F42E
F42E
FFFE
FFFE
F42E
F42E
F42E
F42E
ENDCHAR
STARTCHAR hcircumflex
ENCODING 293
SWIDTH 600 0
DWIDTH 10 0
BBX 9 14 0 0
BITMAP
7F4000
D28000
000000
3E0000
3E0000
3D0000
3DBE00
3FFF40
3F4F80
3E0B80
3E0B80
3E0B80
3E0B80
3E0B80
ENDCHAR
STARTCHAR Hbar
ENCODING 294
SWIDTH 600 0
DWIDTH 10 0
BBX 10 10 0 0
BITMAP
3D0B80
FFFFE0
FFFFE0
3D0B80
3FFF80
3FFF80
3D0B80
3D0B80
3D0B80
3D0B80
ENDCHAR
STARTCHAR hbar
ENCODING 295
SWIDTH 600 0
DWIDTH 10 0
BBX 9 11 0 0
BITMAP
3E0000
BFF400
FFF400
3D0000
3DBE00
3FFF40
3E0F80
3E0B80
3E0B80
3E0B80
3E0B80
ENDCHAR
STARTCHAR Itilde
ENCODING 296
SWIDTH 600 0
DWIDTH 10 0
BBX 8 14 1 0
BITMAP
2E68
3FF8
65F4
0000
BFFD
BFFD
07C0
07C0
07C0
07C0
07C0
07C0
BFFD
BFFD
ENDCHAR
STARTCHAR itilde
ENCODING 297
SWIDTH 600 0
DWIDTH 10 0
BBX 8 13 1 0
BITMAP
0104
0F9D
1EFD
1878
0000
BFE0
BFE0
02E0
02E0
02E0
02E0
02E0
02E0
ENDCHAR
STARTCHAR Imacron
ENCODING 298
SWIDTH 600 0
DWIDTH 10 0
BBX 8 13 1 0
BITMAP
2FF4
2FF4
0000
BFFD
BFFD
07C0
07C0
07C0
07C0
07C0
07C0
BFFD
BFFD
ENDCHAR
STARTCHAR imacron
ENCODING 299
SWIDTH 600 0
DWIDTH 10 0
BBX 7 11 1 0
BITMAP
0FFC
0000
0000
BFE0
BFE0
02E0
02E0
02E0
02E0
02E0
02E0
ENDCHAR
STARTCHAR Ibreve
ENCODING 300
SWIDTH 600 0
DWIDTH 10 0
BBX 8 13 1 0
BITMAP
2874
0BE0
0000
BFFD
BFFD
07C0
07C0
07C0
07C0
07C0
07C0
BFFD
BFFD
ENDCHAR
STARTCHAR ibreve
ENCODING 301
SWIDTH 600 0
DWIDTH 10 0
BBX 7 11 1 0
BITMAP
0E2C
07F4
0000
BFE0
BFE0
02E0
02E0
02E0
02E0
02E0
02E0
ENDCHAR
STARTCHAR Iogonek
ENCODING 302
SWIDTH 600 0
DWIDTH 10 0
BBX 8 14 1 -4
BITMAP
BFFD
BFFD
07C0
07C0
07C0
07C0
07C0
07C0
BFFD
BFFD
0740
0B00
0FD0
07D0
ENDCHAR
STARTCHAR iogonek
ENCODING 303
SWIDTH 600 0
DWIDTH 10 0
BBX 6 16 1 -4
BITMAP
02E0
03F0
02E0
0000
BFE0
BFE0
02E0
02E0
02E0
02E0
02E0
02E0
0180
0340
07F0
02E0
ENDCHAR
STARTCHAR Idotaccent
ENCODING 304
SWIDTH 600 0
DWIDTH 10 0
BBX 8 14 1 0
BITMAP
0780
0BD0
0780
0000
BFFD
BFFD
07C0
07C0
07C0
07C0
07C0
07C0
BFFD
BFFD
ENDCHAR
STARTCHAR dotlessi
ENCODING 305
SWIDTH 600 0
DWIDTH 10 0
BBX 6 8 1 0
BITMAP
BFE0
BFE0
02E0
02E0
02E0
02E0
02E0
02E0
ENDCHAR
STARTCHAR IJ
ENCODING 306
SWIDTH 600 0
DWIDTH 10 0
BBX 8 13 1 -3
BITMAP
B83D
B83D
B83D
B83D
B83D
B83D
B83D
B83D
B83D
B83D
003D
02FC
02F4
ENDCHAR
STARTCHAR ij
ENCODING 307
SWIDTH 600 0
DWIDTH 10 0
BBX 8 14 1 -3
BITMAP
B82D
B82D
0000
B82E
B82E
B82E
B82E
B82E
B82E
B82E
B82E
003D
01FD
02F4
ENDCHAR
STARTCHAR Jcircumflex
ENCODING 308
SWIDTH 600 0
DWIDTH 10 0
BBX 8 13 1 0
BITMAP
0BF0
1D28
0000
7FFD
7FFD
003D
003D
003D
003D
003D
647C
BFF8
2FE0
ENDCHAR
STARTCHAR jcircumflex
ENCODING 309
SWIDTH 600 0
DWIDTH 10 0
BBX 7 15 1 -3
BITMAP
03F4
0FBC
0918
0000
BFE0
BFE0
02E0
02E0
02E0
02E0
02E0
02E0
42E0
FFD0
BE40
ENDCHAR
STARTCHAR uni0136
ENCODING 310
SWIDTH 600 0
DWIDTH 10 0
BBX 9 15 1 -5
BITMAP
F42E00
F4BC00
F5F400
FBD000
FFD000
FFF000
FDF800
F47C00
F43E00
F41F40
000000
029000
01E000
0BE000
078000
ENDCHAR
STARTCHAR uni0137
ENCODING 311
SWIDTH 600 0
DWIDTH 10 0
BBX 8 16 1 -5
BITMAP
B800
B800
B800
B82E
B8B8
BAE0
BFD0
BFF0
BDB8
B87D
B82F
0000
0280
01E0
0BE0
0780
ENDCHAR
STARTCHAR kgreenlandic
ENCODING 312
SWIDTH 600 0
DWIDTH 10 0
BBX 8 8 1 0
BITMAP
B83E
B8B8
BAE0
BFD0
BFF0
BDB8
B87D
B82F
ENDCHAR
STARTCHAR Lacute
ENCODING 313
SWIDTH 600 0
DWIDTH 10 0
BBX 8 14 1 0
BITMAP
0600
2F00
2400
0000
7C00
7C00
7C00
7C00
7C00
7C00
7C00
7C00
7FFE
7FFE
ENDCHAR
STARTCHAR lacute
ENCODING 314
SWIDTH 600 0
DWIDTH 10 0
BBX 9 15 0 0
BITMAP
006000
02F400
028000
000000
7FE000
7FE000
02E000
02E000
02E000
02E000
02E000
02E000
02F000
01FF40
007F40
ENDCHAR
STARTCHAR uni013B
ENCODING 315
SWIDTH 600 0
DWIDTH 10 0
BBX 8 15 1 -5
BITMAP
7C00
7C00
7C00
7C00
7C00
7C00
7C00
7C00
7FFE
7FFE
0000
0290
01E0
07E0
0780
ENDCHAR
STARTCHAR uni013C
ENCODING 316
SWIDTH 600 0
DWIDTH 10 0
BBX 9 16 0 -5
BITMAP
7FE000
7FE000
02E000
02E000
02E000
02E000
02E000
02E000
02F000
01FF40
007F40
000000
003800
002D00
00FD00
00A400
ENDCHAR
STARTCHAR Lcaron
ENCODING 317
SWIDTH 600 0
DWIDTH 10 0
BBX 8 12 1 0
BITMAP
007C
003C
7C38
7C38
7C00
7C00
7C00
7C00
7C00
7C00
7FFE
7FFE
ENDCHAR
STARTCHAR lcaron
ENCODING 318
SWIDTH 600 0
DWIDTH 10 0
BBX 9 13 0 0
BITMAP
000780
000780
7FE740
7FE740
02E000
02E000
02E000
02E000
02E000
02E000
02F000
01FF40
007F40
ENDCHAR
STARTCHAR Ldot
ENCODING 319
SWIDTH 600 0
DWIDTH 10 0
BBX 8 10 1 0
BITMAP
7C00
7C00
7C00
7C2E
7C3F
7C2E
7C00
7C00
7FFE
7FFE
ENDCHAR
STARTCHAR ldot
ENCODING 320
SWIDTH 600 0
DWIDTH 10 0
BBX 11 11 0 0
BITMAP
FFC000
FFC000
07C000
07C000
07C1F0
07C2F4
07C1F0
07C000
07D000
03FE00
01BE00
ENDCHAR
STARTCHAR Lslash
ENCODING 321
SWIDTH 600 0
DWIDTH 10 0
BBX 9 10 0 0
BITMAP
1F0000
1F0000
1F0400
1F6E00
1FF400
6F8000
BF0000
1F0000
1FFF80
1FFF80
ENDCHAR
STARTCHAR lslash
ENCODING 322
SWIDTH 600 0
DWIDTH 10 0
BBX 9 11 0 0
BITMAP
7FE000
7FE000
02E100
02EF00
02FD00
1BE000
2FE000
02E000
02F000
01FF40
007F40
ENDCHAR
STARTCHAR Nacute
ENCODING 323
SWIDTH 600 0
DWIDTH 10 0
BBX 8 14 1 0
BITMAP
00A0
07E0
0640
0000
F82E
FC2E
FE2E
FB2E
F76E
F7EE
F5EE
F4FE
F4BE
F43E
ENDCHAR
STARTCHAR nacute
ENCODING 324
SWIDTH 600 0
DWIDTH 10 0
BBX 8 13 1 0
BITMAP
0060
00F8
03E0
0280
0000
F6F8
FFFD
FD3E
F82E
F82E
F82E
F82E
F82E
ENDCHAR
STARTCHAR uni0145
ENCODING 325
SWIDTH 600 0
DWIDTH 10 0
BBX 8 15 1 -5
BITMAP
F82E
FC2E
FE2E
FB2E
F76E
F7EE
F5EE
F4FE
F4BE
F43E
0000
0380
02D0
0FC0
0A40
ENDCHAR
STARTCHAR uni0146
ENCODING 326
SWIDTH 600 0
DWIDTH 10 0
BBX 8 13 1 -5
BITMAP
F6F8
FFFD
FD3E
F82E
F82E
F82E
F82E
F82E
0000
0380
02D0
0FD0
0A40
ENDCHAR
STARTCHAR Ncaron
ENCODING 327
SWIDTH 600 0
DWIDTH 10 0
BBX 8 13 1 0
BITMAP
1964
0BE0
0000
F82E
FC2E
FE2E
FB2E
F76E
F7EE
F5EE
F4FE
F4BE
F43E
ENDCHAR
STARTCHAR ncaron
ENCODING 328
SWIDTH 600 0
DWIDTH 10 0
BBX 8 12 1 0
BITMAP
2828
1EB4
0BE0
0000
F6F8
FFFD
FD3E
F82E
F82E
F82E
F82E
F82E
ENDCHAR
STARTCHAR napostrophe
ENCODING 329
SWIDTH 600 0
DWIDTH 10 0
BBX 12 11 -1 0
BITMAP
780000
BE0000
7E0000
0EB6F4
2CBFFC
B4BD7D
00B83D
00B83D
00B83D
00B83D
00B83D
ENDCHAR
STARTCHAR Eng
ENCODING 330
SWIDTH 600 0
DWIDTH 10 0
BBX 8 10 1 0
BITMAP
F6F4
FFFD
FC7E
F42E
F42F
F42F
F42E
F43E
F5FD
F5F4
ENDCHAR
STARTCHAR eng
ENCODING 331
SWIDTH 600 0
DWIDTH 10 0
BBX 8 11 1 -3
BITMAP
F6F8
FFFD
FD3E
F82E
F82E
F82E
F82E
F82E
003E
01FD
01F4
ENDCHAR
STARTCHAR Omacron
ENCODING 332
SWIDTH 600 0
DWIDTH 10 0
BBX 9 13 0 0
BITMAP
0BFD00
0BFD00
000000
06F800
1FFF00
3E1F80
7D0BC0
7C07C0
7C07C0
7D0B80
3E1F80
1FFF00
06F800
ENDCHAR
STARTCHAR omacron
ENCODING 333
SWIDTH 600 0
DWIDTH 10 0
BBX 9 11 0 0
BITMAP
0BFD00
000000
000000
06F800
1FFF00
3E1F80
7D0B80
7D0B80
3E1F80
1FFF00
06F800
ENDCHAR
STARTCHAR Obreve
ENCODING 334
SWIDTH 600 0
DWIDTH 10 0
BBX 9 13 0 0
BITMAP
0A1D00
02F800
000000
06F800
1FFF00
3E1F80
7D0BC0
7C07C0
7C07C0
7D0B80
3E1F80
1FFF00
06F800
ENDCHAR
STARTCHAR obreve
ENCODING 335
SWIDTH 600 0
DWIDTH 10 0
BBX 9 11 0 0
BITMAP
0A1D00
06F800
000000
06F800
1FFF00
3E1F80
7D0B80
7D0B80
3E1F80
1FFF00
06F800
ENDCHAR
STARTCHAR Ohungarumlaut
ENCODING 336
SWIDTH 600 0
DWIDTH 10 0
BBX 9 14 0 0
BITMAP
009240
02CB00
075D00
000000
06F800
1FFF00
3E1F80
7D0BC0
7C07C0
7C07C0
7D0B80
3E1F80
1FFF00
06F800
ENDCHAR
STARTCHAR ohungarumlaut
ENCODING 337
SWIDTH 600 0
DWIDTH 10 0
BBX 9 12 0 0
BITMAP
01D640
02CF00
025D00
000000
06F800
1FFF00
3E1F80
7D0B80
7D0B80
3E1F80
1FFF00
06F800
ENDCHAR
STARTCHAR OE
ENCODING 338
SWIDTH 600 0
DWIDTH 10 0
BBX 10 10 0 0
BITMAP
07FFD0
2FFFD0
7D7800
BC7800
B87F80
B87F80
BC7800
7D7800
2FFFE0
07FFE0
ENDCHAR
STARTCHAR oe
ENCODING 339
SWIDTH 600 0
DWIDTH 10 0
BBX 10 8 0 0
BITMAP
1F5F40
7FFFC0
B9F1D0
B4FFD0
B4FFD0
B9F000
7FFFC0
1F5F80
ENDCHAR
STARTCHAR Racute
ENCODING 340
SWIDTH 600 0
DWIDTH 10 0
BBX 8 14 1 0
BITMAP
0090
07E0
0640
0000
FFE4
FFFD
F42E
F42E
FFFD
FFF4
F4F4
F4BC
F43E
F42F
ENDCHAR
STARTCHAR racute
ENCODING 341
SWIDTH 600 0
DWIDTH 10 0
BBX 7 13 2 0
BITMAP
0090
02F0
07D0
0240
0000
F2F8
FBF4
FD00
F400
F400
F400
F400
F400
ENDCHAR
STARTCHAR uni0156
ENCODING 342
SWIDTH 600 0
DWIDTH 10 0
BBX 8 15 1 -5
BITMAP
FFE4
FFFD
F42E
F42E
FFFD
FFF4
F4F4
F4BC
F43E
F42F
0000
0280
01E0
0BD0
0B80
ENDCHAR
STARTCHAR uni0157
ENCODING 343
SWIDTH 600 0
DWIDTH 10 0
BBX 8 13 1 -5
BITMAP
3CBE
3EFD
3F40
3D00
3D00
3D00
3D00
3D00
0000
2800
1E00
BD00
B800
ENDCHAR
STARTCHAR Rcaron
ENCODING 344
SWIDTH 600 0
DWIDTH 10 0
BBX 8 13 1 0
BITMAP
2874
0FE0
0000
FFE4
FFFD
F42E
F42E
FFFD
FFF4
F4F4
F4BC
F43E
F42F
ENDCHAR
STARTCHAR rcaron
ENCODING 345
SWIDTH 600 0
DWIDTH 10 0
BBX 7 12 2 0
BITMAP
2464
2EF0
0FD0
0000
F2F8
FBF4
FD00
F400
F400
F400
F400
F400
ENDCHAR
STARTCHAR Sacute
ENCODING 346
SWIDTH 600 0
DWIDTH 10 0
BBX 8 14 1 0
BITMAP
0060
02F0
0240
0000
1BE4
7FFD
B818
BD00
7FE4
0BFD
007E
742E
FFFD
2FE4
ENDCHAR
STARTCHAR sacute
ENCODING 347
SWIDTH 600 0
DWIDTH 10 0
BBX 8 13 1 0
BITMAP
0060
00F8
03E0
0240
0000
1BE4
7FFD
BC14
7FE4
0AFD
643E
FFFD
2FE4
ENDCHAR
STARTCHAR Scircumflex
ENCODING 348
SWIDTH 600 0
DWIDTH 10 0
BBX 8 13 1 0
BITMAP
0BE0
1D24
0000
1BE4
7FFD
B818
BD00
7FE4
0BFD
007E
742E
FFFD
2FE4
ENDCHAR
STARTCHAR scircumflex
ENCODING 349
SWIDTH 600 0
DWIDTH 10 0
BBX 8 12 1 0
BITMAP
0BE0
1EB4
2828
0000
1BE4
7FFD
BC14
7FE4
0AFD
643E
FFFD
2FE4
ENDCHAR
STARTCHAR uni015E
ENCODING 350
SWIDTH 600 0
DWIDTH 10 0
BBX 8 14 1 -4
BITMAP
1BE4
7FFD
B818
BD00
7FE4
0BFD
007E
742E
FFFD
2FE4
0340
07C0
02D0
0B80
ENDCHAR
STARTCHAR uni015F
ENCODING 351
SWIDTH 600 0
DWIDTH 10 0
BBX 8 12 1 -4
BITMAP
1BE4
7FFD
BC14
7FE4
0AFD
643E
FFFD
2FE4
0280
07D0
01D0
0B80
ENDCHAR
STARTCHAR Scaron
ENCODING 352
SWIDTH 600 0
DWIDTH 10 0
BBX 8 13 1 0
BITMAP
1D24
0BE0
0000
1BE4
7FFD
B818
BD00
7FE4
0BFD
007E
742E
FFFD
2FE4
ENDCHAR
STARTCHAR scaron
ENCODING 353
SWIDTH 600 0
DWIDTH 10 0
BBX 8 12 1 0
BITMAP
2828
1EB4
0BE0
0000
1BE4
7FFD
BC14
7FE4
0AFD
643E
FFFD
2FE4
ENDCHAR
STARTCHAR uni0162
ENCODING 354
SWIDTH 600 0
DWIDTH 10 0
BBX 9 14 0 -4
BITMAP
BFFFC0
BFFFC0
01F000
01F000
01F000
01F000
01F000
01F000
01F000
01F000
00D000
01F000
00B400
03D000
ENDCHAR
STARTCHAR uni0163
ENCODING 355
SWIDTH 600 0
DWIDTH 10 0
BBX 9 14 0 -4
BITMAP
03C000
03C000
7FFF80
7FFF80
07C000
07C000
07C000
03E000
02FF80
00BF40
002800
007D00
001D00
00B800
ENDCHAR
STARTCHAR Tcaron
ENCODING 356
SWIDTH 600 0
DWIDTH 10 0
BBX 9 13 0 0
BITMAP
0A1D00
03F800
000000
BFFFC0
BFFFC0
01F000
01F000
01F000
01F000
01F000
01F000
01F000
01F000
ENDCHAR
STARTCHAR tcaron
ENCODING 357
SWIDTH 600 0
DWIDTH 10 0
BBX 9 13 0 0
BITMAP
000F00
000F00
000F00
03CE00
03C000
7FFF80
7FFF80
07C000
07C000
07C000
03E000
02FF80
00BF40
ENDCHAR
STARTCHAR Tbar
ENCODING 358
SWIDTH 600 0
DWIDTH 10 0
BBX 9 10 0 0
BITMAP
BFFFC0
BFFFC0
01F000
01F000
1FFF00
2FFF00
01F000
01F000
01F000
01F000
ENDCHAR
STARTCHAR tbar
ENCODING 359
SWIDTH 600 0
DWIDTH 10 0
BBX 9 11 0 0
BITMAP
014000
03C000
03C000
7FFF80
7FFF80
7FFF40
7FFF40
07D000
03E000
02FF80
00BF40
ENDCHAR
STARTCHAR Utilde
ENCODING 360
SWIDTH 600 0
DWIDTH 10 0
BBX 8 14 1 0
BITMAP
2E68
3FF8
65F4
0000
F42E
F42E
F42E
F42E
F42E
F42E
F42E
B87D
7FFC
1BE4
ENDCHAR
STARTCHAR utilde
ENCODING 361
SWIDTH 600 0
DWIDTH 10 0
BBX 8 13 1 0
BITMAP
0410
2F78
3BF8
65E0
0000
F43D
F43D
F43D
F43D
F43D
F8BD
BFFD
2F6D
ENDCHAR
STARTCHAR Umacron
ENCODING 362
SWIDTH 600 0
DWIDTH 10 0
BBX 8 13 1 0
BITMAP
2FF4
2FF4
0000
F42E
F42E
F42E
F42E
F42E
F42E
F42E
B87D
7FFC
1BE4
ENDCHAR
STARTCHAR umacron
ENCODING 363
SWIDTH 600 0
DWIDTH 10 0
BBX 8 11 1 0
BITMAP
2FF0
0000
0000
F43D
F43D
F43D
F43D
F43D
F8BD
BFFD
2F6D
ENDCHAR
STARTCHAR Ubreve
ENCODING 364
SWIDTH 600 0
DWIDTH 10 0
BBX 8 13 1 0
BITMAP
2874
0BE0
0000
F42E
F42E
F42E
F42E
F42E
F42E
F42E
B87D
7FFC
1BE4
ENDCHAR
STARTCHAR ubreve
ENCODING 365
SWIDTH 600 0
DWIDTH 10 0
BBX 8 11 1 0
BITMAP
2874
1BE0
0000
F43D
F43D
F43D
F43D
F43D
F8BD
BFFD
2F6D
ENDCHAR
STARTCHAR Uring
ENCODING 366
SWIDTH 600 0
DWIDTH 10 0
BBX 8 14 1 0
BITMAP
0BD0
0DA0
0BD0
0000
F42E
F42E
F42E
F42E
F42E
F42E
F42E
B87D
7FFC
1BE4
ENDCHAR
STARTCHAR uring
ENCODING 367
SWIDTH 600 0
DWIDTH 10 0
BBX 8 13 1 0
BITMAP
0BD0
1DA0
1DA0
0BD0
0000
F43D
F43D
F43D
F43D
F43D
F8BD
BFFD
2F6D
ENDCHAR
STARTCHAR Uhungarumlaut
ENCODING 368
SWIDTH 600 0
DWIDTH 10 0
BBX 8 14 1 0
BITMAP
0249
0B2C
1D74
0000
F42E
F42E
F42E
F42E
F42E
F42E
F42E
B87D
7FFC
1BE4
ENDCHAR
STARTCHAR uhungarumlaut
ENCODING 369
SWIDTH 600 0
DWIDTH 10 0
BBX 8 12 1 0
BITMAP
0659
0B38
0D70
0000
F43D
F43D
F43D
F43D
F43D
F8BD
BFFD
2F6D
ENDCHAR
STARTCHAR Uogonek
ENCODING 370
SWIDTH 600 0
DWIDTH 10 0
BBX 8 14 1 -4
BITMAP
F42E
F42E
F42E
F42E
F42E
F42E
F42E
B87D
7FFC
1BE0
0340
0B00
0BE0
07D0
ENDCHAR
STARTCHAR uogonek
ENCODING 371
SWIDTH 600 0
DWIDTH 10 0
BBX 8 12 1 -4
BITMAP
F43D
F43D
F43D
F43D
F43D
F8BD
BFFD
2F6D
0074
00A0
00FE
007D
ENDCHAR
STARTCHAR Wcircumflex
ENCODING 372
SWIDTH 600 0
DWIDTH 10 0
BBX 10 13 0 0
BITMAP
03F800
0A1D00
000000
F802D0
B803D0
B853D0
78F3C0
79F3C0
7AF780
3EBB80
3F6F80
2F6F40
2F1F40
ENDCHAR
STARTCHAR wcircumflex
ENCODING 373
SWIDTH 600 0
DWIDTH 10 0
BBX 10 12 0 0
BITMAP
02F400
0BBD00
090900
000000
F402D0
B8E2D0
B9F3C0
79F7C0
7EBBC0
3E7B80
3F6F80
2F2F40
ENDCHAR
STARTCHAR Ycircumflex
ENCODING 374
SWIDTH 600 0
DWIDTH 10 0
BBX 9 13 0 0
BITMAP
03F800
0A1D00
000000
7C07C0
3D0B80
1F1F00
0F6E00
07BC00
03F800
01F000
01F000
01F000
01F000
ENDCHAR
STARTCHAR ycircumflex
ENCODING 375
SWIDTH 600 0
DWIDTH 10 0
BBX 9 15 0 -3
BITMAP
02F800
07BD00
0A0900
000000
7C07C0
3D0B80
1E0F00
0F5E00
0BAD00
03FC00
02F800
01F400
02E000
2FD000
2E4000
ENDCHAR
STARTCHAR Ydieresis
ENCODING 376
SWIDTH 600 0
DWIDTH 10 0
BBX 9 13 0 0
BITMAP
0F1E00
0F1E00
000000
7C07C0
3D0B80
1F1F00
0F6E00
07BC00
03F800
01F000
01F000
01F000
01F000
ENDCHAR
STARTCHAR Zacute
ENCODING 377
SWIDTH 600 0
DWIDTH 10 0
BBX 8 14 1 0
BITMAP
0060
02F0
0240
0000
BFFE
BFFE
00BC
01F4
03D0
0B80
2F00
7D00
FFFE
FFFE
ENDCHAR
STARTCHAR zacute
ENCODING 378
SWIDTH 600 0
DWIDTH 10 0
BBX 8 13 1 0
BITMAP
0020
00B8
02E0
0180
0000
7FFE
7FFD
01F8
03E0
0F80
3E00
BFFE
FFFE
ENDCHAR
STARTCHAR Zdotaccent
ENCODING 379
SWIDTH 600 0
DWIDTH 10 0
BBX 8 14 1 0
BITMAP
02D0
07D0
03D0
0000
BFFE
BFFE
00BC
01F4
03D0
0B80
2F00
7D00
FFFE
FFFE
ENDCHAR
STARTCHAR zdotaccent
ENCODING 380
SWIDTH 600 0
DWIDTH 10 0
BBX 8 12 1 0
BITMAP
02D0
07E0
02D0
0000
7FFE
7FFD
01F8
03E0
0F80
3E00
BFFE
FFFE
ENDCHAR
STARTCHAR Zcaron
ENCODING 381
SWIDTH 600 0
DWIDTH 10 0
BBX 8 13 1 0
BITMAP
1D24
0BE0
0000
BFFE
BFFE
00BC
01F4
03D0
0B80
2F00
7D00
FFFE
FFFE
ENDCHAR
STARTCHAR zcaron
ENCODING 382
SWIDTH 600 0
DWIDTH 10 0
BBX 8 12 1 0
BITMAP
1818
1FB8
07E0
0000
7FFE
7FFD
01F8
03E0
0F80
3E00
BFFE
FFFE
ENDCHAR
STARTCHAR longs
ENCODING 383
SWIDTH 600 0
DWIDTH 10 0
BBX 9 11 1 0
BITMAP
01BE40
07FF00
0BD000
BF8000
BF8000
0B8000
0B8000
0B8000
0B8000
0B8000
0B8000
ENDCHAR
STARTCHAR uni0180
ENCODING 384
SWIDTH 600 0
DWIDTH 10 0
BBX 9 11 0 0
BITMAP
3D0000
BFF400
FFF400
3D0000
3EBD00
3FFF40
3E0F80
3E0B80
3E0F80
3FFF40
3DB900
ENDCHAR
STARTCHAR uni018A
ENCODING 394
SWIDTH 600 0
DWIDTH 10 0
BBX 10 10 0 0
BITMAP
1BF900
7FFF40
B7DBC0
F3C3C0
F3C3D0
77C3D0
13C3C0
03DBC0
03FF40
03F900
ENDCHAR
STARTCHAR uni018F
ENCODING 399
SWIDTH 600 0
DWIDTH 10 0
BBX 9 10 0 0
BITMAP
06F800
0FFF00
051F40
000B80
7FFFC0
3FFFC0
3D0B80
2E1F40
1FFF00
06F800
ENDCHAR
STARTCHAR uni0192
ENCODING 402
SWIDTH 600 0
DWIDTH 10 0
BBX 8 12 1 -2
BITMAP
00BE
02FE
03D0
2FFC
2FFC
0780
0B80
0B80
0F40
1F40
FE00
F800
ENDCHAR
STARTCHAR uni0193
ENCODING 403
SWIDTH 600 0
DWIDTH 10 0
BBX 10 13 0 0
BITMAP
0002E0
000BD0
000F40
02FF40
0FFF40
2F4500
3D0000
7D3F80
7D3F80
3D0780
2F4780
1FFF80
02FE00
ENDCHAR
STARTCHAR Ohorn
ENCODING 416
SWIDTH 600 0
DWIDTH 10 0
BBX 10 13 0 0
BITMAP
000190
0002D0
0002D0
06FB80
1FFF00
3E1F80
7D0B80
7C07C0
7C07C0
7D0BC0
3E1F80
1FFF00
06F800
ENDCHAR
STARTCHAR ohorn
ENCODING 417
SWIDTH 600 0
DWIDTH 10 0
BBX 10 11 0 0
BITMAP
000190
0002D0
0002D0
06FB80
1FFF00
3E1F80
7D0B80
7D0B80
3E1F80
1FFF00
06F800
ENDCHAR
STARTCHAR Uhorn
ENCODING 431
SWIDTH 600 0
DWIDTH 10 0
BBX 10 13 1 0
BITMAP
000190
0001E0
0002D0
F42F80
F42E00
F42E00
F42E00
F42E00
F42E00
F42E00
B87D00
7FFC00
1BE000
ENDCHAR
STARTCHAR uhorn
ENCODING 432
SWIDTH 600 0
DWIDTH 10 0
BBX 9 11 1 0
BITMAP
000280
0003C0
000780
F43F40
F43D00
F43D00
F43D00
F43D00
F8BD00
BFFD00
2F6D00
ENDCHAR
STARTCHAR uni01C2
ENCODING 450
SWIDTH 600 0
DWIDTH 10 0
BBX 8 14 1 -3
BITMAP
07C0
07C0
07C0
07C0
BFFE
FFFE
07C0
07C0
BFFE
FFFE
07C0
07C0
07C0
07C0
ENDCHAR
STARTCHAR uni01CD
ENCODING 461
SWIDTH 600 0
DWIDTH 10 0
BBX 10 13 0 0
BITMAP
0A1D00
03F800
000000
02F400
03F800
07BC00
0B6D00
0F2E00
1E1F00
2FFF40
3FFF80
7C0BC0
B807D0
ENDCHAR
STARTCHAR uni01CE
ENCODING 462
SWIDTH 600 0
DWIDTH 10 0
BBX 8 12 1 0
BITMAP
1828
1FB8
07E0
0000
1BE4
BFFC
247D
1AFE
BFFE
F87E
FFFE
6F5E
ENDCHAR
STARTCHAR uni01CF
ENCODING 463
SWIDTH 600 0
DWIDTH 10 0
BBX 8 13 1 0
BITMAP
2874
0FE0
0000
BFFD
BFFD
07C0
07C0
07C0
07C0
07C0
07C0
BFFD
BFFD
ENDCHAR
STARTCHAR uni01D0
ENCODING 464
SWIDTH 600 0
DWIDTH 10 0
BBX 7 12 1 0
BITMAP
0918
0FBC
03F4
0000
BFE0
BFE0
02E0
02E0
02E0
02E0
02E0
02E0
ENDCHAR
STARTCHAR uni01D1
ENCODING 465
SWIDTH 600 0
DWIDTH 10 0
BBX 9 13 0 0
BITMAP
0A1D00
03F800
000000
06F800
1FFF00
3E1F80
7D0BC0
7C07C0
7C07C0
7D0B80
3E1F80
1FFF00
06F800
ENDCHAR
STARTCHAR uni01D2
ENCODING 466
SWIDTH 600 0
DWIDTH 10 0
BBX 9 12 0 0
BITMAP
090900
0BBD00
02F400
000000
06F800
1FFF00
3E1F80
7D0B80
7D0B80
3E1F80
1FFF00
06F800
ENDCHAR
STARTCHAR uni01D3
ENCODING 467
SWIDTH 600 0
DWIDTH 10 0
BBX 8 13 1 0
BITMAP
2874
0FE0
0000
F42E
F42E
F42E
F42E
F42E
F42E
F42E
B87D
7FFC
1BE4
ENDCHAR
STARTCHAR uni01D4
ENCODING 468
SWIDTH 600 0
DWIDTH 10 0
BBX 8 12 1 0
BITMAP
2424
2EF4
0BD0
0000
F43D
F43D
F43D
F43D
F43D
F8BD
BFFD
2F6D
ENDCHAR
STARTCHAR uni01D5
ENCODING 469
SWIDTH 600 0
DWIDTH 10 0
BBX 8 15 1 0
BITMAP
2FF4
0000
2874
2874
0000
F42E
F42E
F42E
F42E
F42E
F42E
F42E
B87D
7FFC
1BE4
ENDCHAR
STARTCHAR uni01D6
ENCODING 470
SWIDTH 600 0
DWIDTH 10 0
BBX 8 13 1 0
BITMAP
2FF0
0000
2874
2874
0000
F43D
F43D
F43D
F43D
F43D
F8BD
BFFD
2F6D
ENDCHAR
STARTCHAR uni01D7
ENCODING 471
SWIDTH 600 0
DWIDTH 10 0
BBX 8 16 1 0
BITMAP
0090
02D0
0240
2874
2874
0000
F42E
F42E
F42E
F42E
F42E
F42E
F42E
B87D
7FFC
1BE4
ENDCHAR
STARTCHAR uni01D8
ENCODING 472
SWIDTH 600 0
DWIDTH 10 0
BBX 8 14 1 0
BITMAP
0080
02C0
0240
2874
2874
0000
F43D
F43D
F43D
F43D
F43D
F8BD
BFFD
2F6D
ENDCHAR
STARTCHAR uni01D9
ENCODING 473
SWIDTH 600 0
DWIDTH 10 0
BBX 8 16 1 0
BITMAP
1960
0BD0
0000
2874
2874
0000
F42E
F42E
F42E
F42E
F42E
F42E
F42E
B87D
7FFC
1BE4
ENDCHAR
STARTCHAR uni01DA
ENCODING 474
SWIDTH 600 0
DWIDTH 10 0
BBX 8 14 1 0
BITMAP
1960
0BD0
0000
2874
2874
0000
F43D
F43D
F43D
F43D
F43D
F8BD
BFFD
2F6D
ENDCHAR
STARTCHAR uni01DB
ENCODING 475
SWIDTH 600 0
DWIDTH 10 0
BBX 8 16 1 0
BITMAP
0900
0B00
0240
2874
2874
0000
F42E
F42E
F42E
F42E
F42E
F42E
F42E
B87D
7FFC
1BE4
ENDCHAR
STARTCHAR uni01DC
ENCODING 476
SWIDTH 600 0
DWIDTH 10 0
BBX 8 14 1 0
BITMAP
0600
0B00
0240
2874
2874
0000
F43D
F43D
F43D
F43D
F43D
F8BD
BFFD
2F6D
ENDCHAR
STARTCHAR uni01E2
ENCODING 482
SWIDTH 600 0
DWIDTH 10 0
BBX 10 13 0 0
BITMAP
00FF80
00FF80
000000
02FFD0
03FFD0
07BC00
0B7C00
0F3FC0
1E3FC0
2FFC00
7FFC00
BC3FE0
F83FE0
ENDCHAR
STARTCHAR uni01E3
ENCODING 483
SWIDTH 600 0
DWIDTH 10 0
BBX 10 11 0 0
BITMAP
07FD00
000000
000000
2F5F40
7FFFC0
1BF2D0
3FFFD0
B8FFD0
B8F440
BFFFC0
2E2F80
ENDCHAR
STARTCHAR Gcaron
ENCODING 486
SWIDTH 600 0
DWIDTH 10 0
BBX 9 13 0 0
BITMAP
034A00
01FC00
000000
02FD00
0FFF40
2F4500
3D0000
7D3F80
7D3F80
3D0780
2F4780
1FFF80
02FE00
ENDCHAR
STARTCHAR gcaron
ENCODING 487
SWIDTH 600 0
DWIDTH 10 0
BBX 8 15 1 -3
BITMAP
2424
2EF4
0BD0
0000
1FFF
7FFF
B878
BEF8
3FF4
7540
BFF9
7FFF
F01F
FFFE
6FE4
ENDCHAR
STARTCHAR uni01EA
ENCODING 490
SWIDTH 600 0
DWIDTH 10 0
BBX 9 14 0 -4
BITMAP
06F800
1FFF00
3E1F80
7D0B80
7C07C0
7C07C0
7D0B80
3E1F40
1FFE00
06F800
00D000
02C000
02F800
01F400
ENDCHAR
STARTCHAR uni01EB
ENCODING 491
SWIDTH 600 0
DWIDTH 10 0
BBX 9 12 0 -4
BITMAP
06F800
1FFF00
3E1F80
7D0B80
7D0B80
3E1F80
1FFF00
06F800
00D000
02C000
02F800
01F800
ENDCHAR
STARTCHAR uni01F4
ENCODING 500
SWIDTH 600 0
DWIDTH 10 0
BBX 9 14 0 0
BITMAP
001800
00BD00
00A000
000000
02FD00
0FFF40
2F4500
3D0000
7D3F80
7D3F80
3D0780
2F4780
1FFF80
02FE00
ENDCHAR
STARTCHAR uni01F5
ENCODING 501
SWIDTH 600 0
DWIDTH 10 0
BBX 8 16 1 -3
BITMAP
0060
01F4
03E0
0240
0000
1FFF
7FFF
B878
BEF8
3FF4
7540
BFF9
7FFF
F01F
FFFE
6FE4
ENDCHAR
STARTCHAR uni01F8
ENCODING 504
SWIDTH 600 0
DWIDTH 10 0
BBX 8 14 1 0
BITMAP
0A00
0B80
0180
0000
F82E
FC2E
FE2E
FB2E
F76E
F7EE
F5EE
F4FE
F4BE
F43E
ENDCHAR
STARTCHAR uni01F9
ENCODING 505
SWIDTH 600 0
DWIDTH 10 0
BBX 8 13 1 0
BITMAP
0900
1F40
0BC0
0180
0000
F6F8
FFFD
FD3E
F82E
F82E
F82E
F82E
F82E
ENDCHAR
STARTCHAR Aringacute
ENCODING 506
SWIDTH 600 0
DWIDTH 10 0
BBX 10 16 0 0
BITMAP
002400
00B800
02B400
036800
02F400
000000
02F400
03F800
07BC00
0B7D00
0F2E00
1E1F00
2FFF40
3FFF80
7C0BC0
B807D0
ENDCHAR
STARTCHAR aringacute
ENCODING 507
SWIDTH 600 0
DWIDTH 10 0
BBX 8 14 1 0
BITMAP
0060
02E0
0AB0
0E74
07E0
0000
1BE4
BFFC
247D
1AFE
BFFE
F87E
FFFE
6F5E
ENDCHAR
STARTCHAR AEacute
ENCODING 508
SWIDTH 600 0
DWIDTH 10 0
BBX 10 14 0 0
BITMAP
000600
002F40
002800
000000
02FFD0
03FFD0
07BC00
0B7C00
0F3FC0
1E3FC0
2FFC00
7FFC00
BC3FE0
F83FE0
ENDCHAR
STARTCHAR aeacute
ENCODING 509
SWIDTH 600 0
DWIDTH 10 0
BBX 10 13 0 0
BITMAP
001800
007D00
00F800
009000
000000
2F5F40
7FFFC0
1BF2D0
3FFFD0
B8FFD0
B8F440
BFFFC0
2E2F80
ENDCHAR
STARTCHAR Oslashacute
ENCODING 510
SWIDTH 600 0
DWIDTH 10 0
BBX 9 15 0 -1
BITMAP
002400
01F800
019000
000040
06FAC0
1FFF40
3E1F40
7D3F80
7CBBC0
7ED7C0
7F8B80
3F1F80
2FFF00
7AF800
100000
ENDCHAR
STARTCHAR oslashacute
ENCODING 511
SWIDTH 600 0
DWIDTH 10 0
BBX 9 13 0 0
BITMAP
001800
007D00
01F400
009000
000000
06FB40
1FFF00
3E2F80
7DBB80
7EDB80
3F5F80
1FFF00
2AF800
ENDCHAR
STARTCHAR uni0218
ENCODING 536
SWIDTH 600 0
DWIDTH 10 0
BBX 8 15 1 -5
BITMAP
1BE4
7FFD
B818
BD00
7FE4
0BFD
007E
742E
FFFD
2FE4
0000
0380
02D0
0FD0
0A40
ENDCHAR
STARTCHAR uni0219
ENCODING 537
SWIDTH 600 0
DWIDTH 10 0
BBX 8 13 1 -5
BITMAP
1BE4
7FFD
BC14
7FE4
0AFD
643E
FFFD
2FE4
0000
0380
02D0
0FD0
0A40
ENDCHAR
STARTCHAR uni021A
ENCODING 538
SWIDTH 600 0
DWIDTH 10 0
BBX 9 15 0 -5
BITMAP
BFFFC0
BFFFC0
01F000
01F000
01F000
01F000
01F000
01F000
01F000
01F000
000000
00E000
00B400
03F000
029000
ENDCHAR
STARTCHAR uni021B
ENCODING 539
SWIDTH 600 0
DWIDTH 10 0
BBX 9 15 0 -5
BITMAP
03C000
03C000
7FFF80
7FFF80
07C000
07C000
07C000
03E000
02FF80
00BF40
000000
003800
002D00
00FD00
00A400
ENDCHAR
STARTCHAR uni0237
ENCODING 567
SWIDTH 600 0
DWIDTH 10 0
BBX 6 11 1 -3
BITMAP
BFE0
BFE0
02E0
02E0
02E0
02E0
02E0
02E0
42E0
FFD0
BE40
ENDCHAR
STARTCHAR uni0243
ENCODING 579
SWIDTH 600 0
DWIDTH 10 0
BBX 9 10 0 0
BITMAP
2FFE00
2FFF40
2FFE00
2FFF00
2E0B80
BFD7C0
FFD7C0
2E0B80
2FFF40
2FF900
ENDCHAR
STARTCHAR uni0250
ENCODING 592
SWIDTH 600 0
DWIDTH 10 0
BBX 8 8 1 0
BITMAP
F6F8
FFFE
FD6E
FFFD
BFA4
B818
7FFD
1BE4
ENDCHAR
STARTCHAR uni0251
ENCODING 593
SWIDTH 600 0
DWIDTH 10 0
BBX 9 8 0 0
BITMAP
07EB40
1FFF40
3E1F40
7D0F40
7D0F40
3E1F40
2FFF40
0BEB40
ENDCHAR
STARTCHAR uni0252
ENCODING 594
SWIDTH 600 0
DWIDTH 10 0
BBX 8 8 1 0
BITMAP
F6F4
FFFD
F83E
F82E
F82E
FC7E
FFFC
F6E4
ENDCHAR
STARTCHAR uni0253
ENCODING 595
SWIDTH 600 0
DWIDTH 10 0
BBX 8 11 1 0
BITMAP
1FD0
7FC0
B800
FAF4
FFFD
F83E
F82E
F82E
FC7E
FFFC
F6E0
ENDCHAR
STARTCHAR uni0254
ENCODING 596
SWIDTH 600 0
DWIDTH 10 0
BBX 8 8 1 0
BITMAP
6F90
BFF8
10BD
003D
003D
50BD
FFF8
6F90
ENDCHAR
STARTCHAR uni0255
ENCODING 597
SWIDTH 600 0
DWIDTH 10 0
BBX 8 9 1 -1
BITMAP
0BF8
3FFD
BD04
F5B9
FBFE
BF4F
3FFE
7FF8
6400
ENDCHAR
STARTCHAR uni0256
ENCODING 598
SWIDTH 600 0
DWIDTH 10 0
BBX 10 14 0 -3
BITMAP
000F40
000F40
000F40
07EF40
1FFF40
3E1F40
7D0F40
7D0F40
3E1F40
2FFF40
0BEF40
000F40
000BE0
0002E0
ENDCHAR
STARTCHAR uni0257
ENCODING 599
SWIDTH 600 0
DWIDTH 10 0
BBX 10 11 0 0
BITMAP
0002E0
000BE0
000F40
07EF40
1FFF40
3E1F40
7D0F40
7D0F40
3E1F40
2FFF40
0BEB40
ENDCHAR
STARTCHAR uni0258
ENCODING 600
SWIDTH 600 0
DWIDTH 10 0
BBX 8 8 1 0
BITMAP
1BE0
7FF8
F47D
FFFE
FFFE
107D
BFF8
2FD0
ENDCHAR
STARTCHAR uni0259
ENCODING 601
SWIDTH 600 0
DWIDTH 10 0
BBX 8 8 1 0
BITMAP
2FE0
7FFC
107D
FFFE
FFFE
F47D
7FF8
1FE0
ENDCHAR
STARTCHAR uni025A
ENCODING 602
SWIDTH 600 0
DWIDTH 10 0
BBX 10 8 0 0
BITMAP
2F8000
7FF600
11FF40
1BFAE0
BEB9E0
B4F400
7FF000
1F8000
ENDCHAR
STARTCHAR uni025B
ENCODING 603
SWIDTH 600 0
DWIDTH 10 0
BBX 8 8 1 0
BITMAP
1BF8
7FFD
7C04
2FD0
7FD0
B808
BFFE
1BF8
ENDCHAR
STARTCHAR uni025C
ENCODING 604
SWIDTH 600 0
DWIDTH 10 0
BBX 8 8 1 0
BITMAP
6FE4
FFFC
507D
0FF8
0FFD
503E
FFFD
6FE4
ENDCHAR
STARTCHAR uni025E
ENCODING 606
SWIDTH 600 0
DWIDTH 10 0
BBX 9 8 0 0
BITMAP
06F900
1FFF40
3E0F40
7D7E00
7C7F40
3E0B80
1FFF80
06F900
ENDCHAR
STARTCHAR uni025F
ENCODING 607
SWIDTH 600 0
DWIDTH 10 0
BBX 8 11 1 -3
BITMAP
BFE0
BFE0
02E0
7FFF
7FFF
02E0
02E0
02E0
42E0
FFD0
BE40
ENDCHAR
STARTCHAR uni0260
ENCODING 608
SWIDTH 600 0
DWIDTH 10 0
BBX 10 14 0 -3
BITMAP
0002E0
000BE0
000F80
07EF40
1FFF40
3E1F40
7D0F40
3D0F40
3E6F40
1FFF40
069F40
041F40
1FFF00
0BF800
ENDCHAR
STARTCHAR uni0261
ENCODING 609
SWIDTH 600 0
DWIDTH 10 0
BBX 9 11 0 -3
BITMAP
07EB40
1FFF40
3E1F40
7D0F40
7D0F40
3E1F40
2FFF40
0BEF40
041F40
1FFF00
1BF800
ENDCHAR
STARTCHAR uni0262
ENCODING 610
SWIDTH 600 0
DWIDTH 10 0
BBX 8 8 1 0
BITMAP
0BF4
3FFD
BD14
F8FE
F4FE
BD2E
3FFE
0BF8
ENDCHAR
STARTCHAR uni0263
ENCODING 611
SWIDTH 600 0
DWIDTH 10 0
BBX 9 11 0 -3
BITMAP
7C07C0
3D0B40
1E0F00
0F5E00
0BBD00
03F800
03F800
07BC00
0B6D00
0BFD00
02F400
ENDCHAR
STARTCHAR uni0264
ENCODING 612
SWIDTH 600 0
DWIDTH 10 0
BBX 9 8 0 0
BITMAP
7E1F80
3FFF80
07F800
0BBD00
1F1E00
1F1F00
0FFE00
06F800
ENDCHAR
STARTCHAR uni0265
ENCODING 613
SWIDTH 600 0
DWIDTH 10 0
BBX 8 11 1 -3
BITMAP
F43D
F43D
F43D
F43D
F43D
F87D
BFFD
2F7D
003D
003D
003D
ENDCHAR
STARTCHAR uni0266
ENCODING 614
SWIDTH 600 0
DWIDTH 10 0
BBX 8 11 1 0
BITMAP
1FD0
7FC0
B800
F6F8
FFFD
FD3E
F82E
F82E
F82E
F82E
F82E
ENDCHAR
STARTCHAR uni0267
ENCODING 615
SWIDTH 600 0
DWIDTH 10 0
BBX 8 14 1 -3
BITMAP
1FD0
7FC0
B800
F6F8
FFFD
FD3E
F82E
F82E
F82E
F82E
F82E
003E
01FD
01F4
ENDCHAR
STARTCHAR uni0268
ENCODING 616
SWIDTH 600 0
DWIDTH 10 0
BBX 8 12 1 0
BITMAP
02E0
03F0
02E0
0000
BFE0
BFE0
02E0
3FFF
3FFF
02E0
02E0
02E0
ENDCHAR
STARTCHAR uni026A
ENCODING 618
SWIDTH 600 0
DWIDTH 10 0
BBX 8 8 1 0
BITMAP
BFFD
BFFD
07C0
07C0
07C0
07C0
BFFD
BFFD
ENDCHAR
STARTCHAR uni026B
ENCODING 619
SWIDTH 600 0
DWIDTH 10 0
BBX 9 11 0 0
BITMAP
7FE000
7FE000
02E000
07E000
2FEB00
3FFF00
26FD00
02E000
02F000
01FF40
007F40
ENDCHAR
STARTCHAR uni026C
ENCODING 620
SWIDTH 600 0
DWIDTH 10 0
BBX 9 11 0 0
BITMAP
7FE000
7FE000
2FE000
7FE000
76E000
3FFE00
1FFE00
02E000
02E000
01FF40
007F40
ENDCHAR
STARTCHAR uni026D
ENCODING 621
SWIDTH 600 0
DWIDTH 10 0
BBX 9 14 0 -3
BITMAP
7FE000
7FE000
02E000
02E000
02E000
02E000
02E000
02E000
02E000
02E000
02E000
02F000
01FF40
007F40
ENDCHAR
STARTCHAR uni026E
ENCODING 622
SWIDTH 600 0
DWIDTH 10 0
BBX 10 14 0 -3
BITMAP
7C0000
7C0000
7C0000
7FFFD0
7FFFC0
7C0F00
7C2D00
7CBE40
7CBFC0
7C07D0
7C02E0
0247D0
07FF80
01BE00
ENDCHAR
STARTCHAR uni026F
ENCODING 623
SWIDTH 600 0
DWIDTH 10 0
BBX 9 8 0 0
BITMAP
B9E7C0
B9E7C0
B9E7C0
B9E7C0
B9E7C0
B9E7C0
7FFFC0
2DB6C0
ENDCHAR
STARTCHAR uni0270
ENCODING 624
SWIDTH 600 0
DWIDTH 10 0
BBX 9 11 0 -3
BITMAP
B9E7C0
B9E7C0
B9E7C0
B9E7C0
B9E7C0
B9E7C0
7FFFC0
2DBBC0
0007C0
0007C0
0007C0
ENDCHAR
STARTCHAR uni0271
ENCODING 625
SWIDTH 600 0
DWIDTH 10 0
BBX 10 11 0 -3
BITMAP
76DB40
7FFFC0
7DF7D0
78E3D0
78E3D0
78E3D0
78E3D0
78E3D0
0007C0
000FC0
001F40
ENDCHAR
STARTCHAR uni0272
ENCODING 626
SWIDTH 600 0
DWIDTH 10 0
BBX 9 11 0 -3
BITMAP
2DBE00
2FFF40
2F4F80
2E0B80
2E0B80
2E0B80
2E0B80
2E0B80
2E0000
FD0000
F80000
ENDCHAR
STARTCHAR uni0273
ENCODING 627
SWIDTH 600 0
DWIDTH 10 0
BBX 9 11 1 -3
BITMAP
F6F400
FFFD00
FD3D00
F83D00
F83D00
F83D00
F83D00
F83D00
002E00
002F80
000BC0
ENDCHAR
STARTCHAR uni0274
ENCODING 628
SWIDTH 600 0
DWIDTH 10 0
BBX 8 8 1 0
BITMAP
B82D
BD2D
BF2D
BBAD
B7ED
B5FD
B4BD
B43D
ENDCHAR
STARTCHAR uni0275
ENCODING 629
SWIDTH 600 0
DWIDTH 10 0
BBX 9 8 0 0
BITMAP
06F800
1FFF00
3D0B80
7FFF80
7FFF80
3D0B80
1FFF00
06F800
ENDCHAR
STARTCHAR uni0276
ENCODING 630
SWIDTH 600 0
DWIDTH 10 0
BBX 10 8 0 0
BITMAP
0BFFD0
3FFFD0
7D7800
B87FC0
B87FC0
7D7800
3FFFD0
0BFFD0
ENDCHAR
STARTCHAR uni0278
ENCODING 632
SWIDTH 600 0
DWIDTH 10 0
BBX 9 14 0 -3
BITMAP
01E000
01E000
01E000
0BF900
2FFF40
7DE7C0
B9E3C0
B9E3C0
7DE7C0
2FFF40
0BF900
01E000
01E000
01E000
ENDCHAR
STARTCHAR uni0279
ENCODING 633
SWIDTH 600 0
DWIDTH 10 0
BBX 7 8 1 0
BITMAP
00B8
00B8
00B8
00B8
00F8
02F8
FFB8
F978
ENDCHAR
STARTCHAR uni027A
ENCODING 634
SWIDTH 600 0
DWIDTH 10 0
BBX 7 11 1 0
BITMAP
00B8
00B8
00B8
00B8
00B8
00B8
00B8
00B8
02F8
FFB8
F978
ENDCHAR
STARTCHAR uni027B
ENCODING 635
SWIDTH 600 0
DWIDTH 10 0
BBX 8 11 1 -3
BITMAP
01F0
01F0
01F0
01F0
02F0
07F0
FEF0
F9F0
00F0
00FE
006E
ENDCHAR
STARTCHAR uni027D
ENCODING 637
SWIDTH 600 0
DWIDTH 10 0
BBX 7 11 2 -3
BITMAP
E2F8
FBF4
FD00
F400
F400
F400
F400
F400
F800
BFE0
2FE0
ENDCHAR
STARTCHAR uni027E
ENCODING 638
SWIDTH 600 0
DWIDTH 10 0
BBX 7 8 2 0
BITMAP
1BF8
7FF4
FD00
F400
F400
F400
F400
F400
ENDCHAR
STARTCHAR uni0280
ENCODING 640
SWIDTH 600 0
DWIDTH 10 0
BBX 8 8 1 0
BITMAP
BFF4
BFFD
B83D
BFFD
BFF4
B8F8
B87C
B83E
ENDCHAR
STARTCHAR uni0281
ENCODING 641
SWIDTH 600 0
DWIDTH 10 0
BBX 8 8 1 0
BITMAP
F83D
7D3D
2FFD
7FFD
B83D
F83D
BFFD
2FFD
ENDCHAR
STARTCHAR uni0282
ENCODING 642
SWIDTH 600 0
DWIDTH 10 0
BBX 8 11 1 -3
BITMAP
1BE4
7FFD
BC14
7FE4
0AFD
643E
FFFD
FFE4
F000
BE00
6E00
ENDCHAR
STARTCHAR uni0283
ENCODING 643
SWIDTH 600 0
DWIDTH 10 0
BBX 8 14 1 -3
BITMAP
01BE
03FE
07D0
07C0
07C0
07C0
07C0
07C0
07C0
07C0
07C0
0BC0
FF80
BE00
ENDCHAR
STARTCHAR uni0284
ENCODING 644
SWIDTH 600 0
DWIDTH 10 0
BBX 8 14 1 -3
BITMAP
01BE
03FE
07D0
07C0
07C0
07C0
BFFD
BFFD
07C0
07C0
07C0
0BC0
FF80
BE00
ENDCHAR
STARTCHAR uni0287
ENCODING 647
SWIDTH 600 0
DWIDTH 10 0
BBX 8 10 1 -2
BITMAP
BF40
FFD0
02E0
02E0
02E0
02E0
FFFE
FFFE
02E0
02D0
ENDCHAR
STARTCHAR uni0288
ENCODING 648
SWIDTH 600 0
DWIDTH 10 0
BBX 9 13 0 -3
BITMAP
03C000
03C000
7FFF80
7FFF80
07C000
07C000
07C000
07C000
07C000
07C000
03E000
02FF80
00BF40
ENDCHAR
STARTCHAR uni0289
ENCODING 649
SWIDTH 600 0
DWIDTH 10 0
BBX 11 8 -1 0
BITMAP
0F43D0
0F43D0
3FFFF8
7FFFF8
0F43D0
0B87D0
0BFFD0
02F6D0
ENDCHAR
STARTCHAR uni028A
ENCODING 650
SWIDTH 600 0
DWIDTH 10 0
BBX 9 8 0 0
BITMAP
7F1F80
7F2F80
1E0F00
3D0B80
3D0B80
3E1F80
2FFF00
06F800
ENDCHAR
STARTCHAR uni028B
ENCODING 651
SWIDTH 600 0
DWIDTH 10 0
BBX 8 8 1 0
BITMAP
F4F8
F4FD
F42E
F42E
F42E
F87D
7FFC
1BE0
ENDCHAR
STARTCHAR uni028C
ENCODING 652
SWIDTH 600 0
DWIDTH 10 0
BBX 9 8 0 0
BITMAP
02F400
03F800
0BBC00
0F6D00
1F1E00
2E0F40
3D0B80
7C07C0
ENDCHAR
STARTCHAR uni028D
ENCODING 653
SWIDTH 600 0
DWIDTH 10 0
BBX 10 8 0 0
BITMAP
2F2F40
3F6F40
3F7B80
7ABB80
7AF7C0
B9F3C0
B5E3D0
F402D0
ENDCHAR
STARTCHAR uni028E
ENCODING 654
SWIDTH 600 0
DWIDTH 10 0
BBX 9 11 0 0
BITMAP
001F40
007F40
00F400
01E000
03F000
07F800
0B7C00
0F2E00
2E1F00
3D0F40
7C07C0
ENDCHAR
STARTCHAR uni028F
ENCODING 655
SWIDTH 600 0
DWIDTH 10 0
BBX 9 8 0 0
BITMAP
7D0B80
2E0F40
0F6E00
0BBD00
03F800
01F000
01F000
01F000
ENDCHAR
STARTCHAR uni0290
ENCODING 656
SWIDTH 600 0
DWIDTH 10 0
BBX 9 11 1 -3
BITMAP
7FFE00
7FFD00
01F800
07E000
0F8000
3E0000
BFFE00
FFFE00
002E00
001FC0
000BC0
ENDCHAR
STARTCHAR uni0291
ENCODING 657
SWIDTH 600 0
DWIDTH 10 0
BBX 9 10 1 -2
BITMAP
7FFC00
7FF400
01E000
07DE00
1F7F40
3D7740
BFFF00
FFFD00
01C000
018000
ENDCHAR
STARTCHAR uni0292
ENCODING 658
SWIDTH 600 0
DWIDTH 10 0
BBX 8 11 1 -3
BITMAP
BFFC
BFFC
01F0
0780
2FE4
1FFC
007D
003E
607D
FFF8
2FD0
ENDCHAR
STARTCHAR uni0294
ENCODING 660
SWIDTH 600 0
DWIDTH 10 0
BBX 8 11 1 0
BITMAP
2FE0
FFF8
A07D
003D
007C
01F4
0BD0
0B80
0B80
0B80
0B80
ENDCHAR
STARTCHAR uni0295
ENCODING 661
SWIDTH 600 0
DWIDTH 10 0
BBX 8 11 1 0
BITMAP
1BE4
7FFD
BD1C
F800
B800
3F40
0BD0
03D0
03D0
03D0
03D0
ENDCHAR
STARTCHAR uni0298
ENCODING 664
SWIDTH 600 0
DWIDTH 10 0
BBX 9 11 0 0
BITMAP
06F800
1FFE00
2E1F40
3D0B80
7C9780
7DF7C0
7C5780
3D0B80
2E1F40
1FFE00
06F800
ENDCHAR
STARTCHAR uni0299
ENCODING 665
SWIDTH 600 0
DWIDTH 10 0
BBX 8 8 1 0
BITMAP
7FF8
7FFE
7C2E
7FFD
7FFE
7C1F
7FFF
7FF9
ENDCHAR
STARTCHAR uni029C
ENCODING 668
SWIDTH 600 0
DWIDTH 10 0
BBX 8 8 1 0
BITMAP
F83D
F83D
F83D
FFFD
FFFD
F83D
F83D
F83D
ENDCHAR
STARTCHAR uni029D
ENCODING 669
SWIDTH 600 0
DWIDTH 10 0
BBX 9 16 0 -4
BITMAP
00B800
00FC00
00B800
000000
2FF800
2FF800
00B800
00B800
00B800
00B800
2FF800
7FF800
B4FD00
7FFE00
1F9F40
000A00
ENDCHAR
STARTCHAR uni029E
ENCODING 670
SWIDTH 600 0
DWIDTH 10 0
BBX 9 11 0 -3
BITMAP
7D0F40
2E0F40
0B5F40
07FF40
02FF40
07DF40
1F4F40
7D0F40
000F40
000F40
000F40
ENDCHAR
STARTCHAR uni029F
ENCODING 671
SWIDTH 600 0
DWIDTH 10 0
BBX 7 8 2 0
BITMAP
F400
F400
F400
F400
F400
F400
FFF8
FFF8
ENDCHAR
STARTCHAR uni02A1
ENCODING 673
SWIDTH 600 0
DWIDTH 10 0
BBX 8 11 1 0
BITMAP
2FE0
FFF8
A07D
003D
007C
02F4
FFFE
FFFE
0B80
0B80
0B80
ENDCHAR
STARTCHAR uni02A2
ENCODING 674
SWIDTH 600 0
DWIDTH 10 0
BBX 8 11 1 0
BITMAP
1BE4
7FFD
B81C
B800
7C00
2F40
FFFE
FFFE
03D0
03D0
03D0
ENDCHAR
STARTCHAR uni02A4
ENCODING 676
SWIDTH 600 0
DWIDTH 10 0
BBX 10 14 0 -3
BITMAP
01D000
01D000
01D000
2EFFE0
BFFFD0
F6D380
F1DB40
F1EF80
F6DFE0
BFD1E0
2DD1F0
0011E0
003FD0
002F40
ENDCHAR
STARTCHAR uni02A6
ENCODING 678
SWIDTH 600 0
DWIDTH 10 0
BBX 10 11 0 0
BITMAP
040000
2E0000
2E0000
BFFF80
FFFFC0
2E7D40
2E2F40
2E07C0
2E02D0
1FFFD0
06FE40
ENDCHAR
STARTCHAR uni02A7
ENCODING 679
SWIDTH 600 0
DWIDTH 10 0
BBX 11 14 0 -3
BITMAP
0002F4
1E07F0
2E0B80
FFFF80
FFFF80
2E0B80
2E0B80
2E0B80
2E0B80
2FDB80
0BDB80
000B80
007F40
007E00
ENDCHAR
STARTCHAR h.sups
ENCODING 688
SWIDTH 600 0
DWIDTH 10 0
BBX 6 8 2 5
BITMAP
6000
B000
B780
BFD0
B5D0
B0E0
B0E0
70D0
ENDCHAR
STARTCHAR j.sups
ENCODING 690
SWIDTH 600 0
DWIDTH 10 0
BBX 5 10 2 4
BITMAP
0B40
0B40
7F40
7F40
0740
0740
0740
0B00
BF00
BD00
ENDCHAR
STARTCHAR r.sups
ENCODING 691
SWIDTH 600 0
DWIDTH 10 0
BBX 5 6 3 5
BITMAP
A7C0
BF80
B800
B000
B000
B000
ENDCHAR
STARTCHAR w.sups
ENCODING 695
SWIDTH 600 0
DWIDTH 10 0
BBX 9 5 0 6
BITMAP
75D340
3AE700
2FBB00
1F7A00
1F3D00
ENDCHAR
STARTCHAR y.sups
ENCODING 696
SWIDTH 600 0
DWIDTH 10 0
BBX 6 7 2 4
BITMAP
B1D0
76C0
2A80
1F40
0F00
7D00
7800
ENDCHAR
STARTCHAR uni02B9
ENCODING 697
SWIDTH 600 0
DWIDTH 10 0
BBX 4 5 3 6
BITMAP
3D
3C
3C
78
74
ENDCHAR
STARTCHAR uni02BB
ENCODING 699
SWIDTH 600 0
DWIDTH 10 0
BBX 4 7 3 5
BITMAP
04
2C
74
E0
F8
FD
78
ENDCHAR
STARTCHAR uni02BC
ENCODING 700
SWIDTH 600 0
DWIDTH 10 0
BBX 4 6 3 5
BITMAP
78
BD
7E
0D
2C
B4
ENDCHAR
STARTCHAR uni02BE
ENCODING 702
SWIDTH 600 0
DWIDTH 10 0
BBX 4 6 3 8
BITMAP
78
7D
1E
1E
7D
78
ENDCHAR
STARTCHAR uni02BF
ENCODING 703
SWIDTH 600 0
DWIDTH 10 0
BBX 3 6 3 8
BITMAP
2C
BC
E0
E0
BC
2C
ENDCHAR
STARTCHAR uni02C1
ENCODING 705
SWIDTH 600 0
DWIDTH 10 0
BBX 6 7 2 7
BITMAP
1F40
7FD0
B440
B400
3D00
0F00
0A00
ENDCHAR
STARTCHAR circumflex
ENCODING 710
SWIDTH 600 0
DWIDTH 10 0
BBX 6 3 2 9
BITMAP
2F40
BBD0
9090
ENDCHAR
STARTCHAR caron
ENCODING 711
SWIDTH 600 0
DWIDTH 10 0
BBX 6 3 2 9
BITMAP
9090
BBD0
2F40
ENDCHAR
STARTCHAR uni02C8
ENCODING 712
SWIDTH 600 0
DWIDTH 10 0
BBX 3 6 3 6
BITMAP
7C
7C
78
38
38
38
ENDCHAR
STARTCHAR uni02C9
ENCODING 713
SWIDTH 600 0
DWIDTH 10 0
BBX 6 1 2 10
BITMAP
BFD0
ENDCHAR
STARTCHAR uni02CA
ENCODING 714
SWIDTH 600 0
DWIDTH 10 0
BBX 5 4 3 9
BITMAP
0600
1F40
7D00
2400
ENDCHAR
STARTCHAR uni02CB
ENCODING 715
SWIDTH 600 0
DWIDTH 10 0
BBX 4 4 2 9
BITMAP
20
B8
2E
09
ENDCHAR
STARTCHAR uni02CC
ENCODING 716
SWIDTH 600 0
DWIDTH 10 0
BBX 3 6 3 -4
BITMAP
38
38
38
78
7C
7C
ENDCHAR
STARTCHAR uni02D0
ENCODING 720
SWIDTH 600 0
DWIDTH 10 0
BBX 4 9 3 0
BITMAP
A9
BD
78
24
00
00
24
7C
FE
ENDCHAR
STARTCHAR uni02D1
ENCODING 721
SWIDTH 600 0
DWIDTH 10 0
BBX 4 3 3 5
BITMAP
FE
7C
24
ENDCHAR
STARTCHAR breve
ENCODING 728
SWIDTH 600 0
DWIDTH 10 0
BBX 6 2 2 9
BITMAP
A1D0
6F80
ENDCHAR
STARTCHAR dotaccent
ENCODING 729
SWIDTH 600 0
DWIDTH 10 0
BBX 4 3 3 9
BITMAP
78
BD
78
ENDCHAR
STARTCHAR ring
ENCODING 730
SWIDTH 600 0
DWIDTH 10 0
BBX 5 4 2 9
BITMAP
2F40
7680
7680
2F40
ENDCHAR
STARTCHAR ogonek
ENCODING 731
SWIDTH 600 0
DWIDTH 10 0
BBX 4 3 3 -3
BITMAP
74
A0
7D
ENDCHAR
STARTCHAR tilde
ENCODING 732
SWIDTH 600 0
DWIDTH 10 0
BBX 6 4 2 9
BITMAP
1000
BDA0
EFE0
9780
ENDCHAR
STARTCHAR hungarumlaut
ENCODING 733
SWIDTH 600 0
DWIDTH 10 0
BBX 6 3 3 9
BITMAP
7590
B3C0
9740
ENDCHAR
STARTCHAR uni02DE
ENCODING 734
SWIDTH 600 0
DWIDTH 10 0
BBX 6 4 1 3
BITMAP
1E00
BF00
67D0
02D0
ENDCHAR
STARTCHAR uni02E0
ENCODING 736
SWIDTH 600 0
DWIDTH 10 0
BBX 6 8 2 3
BITMAP
B1D0
76C0
3B80
2F40
1F00
2B40
2F40
1F00
ENDCHAR
STARTCHAR l.sups
ENCODING 737
SWIDTH 600 0
DWIDTH 10 0
BBX 5 8 3 6
BITMAP
F800
F800
3800
3800
3800
3800
3F40
1F40
ENDCHAR
STARTCHAR s.sups
ENCODING 738
SWIDTH 600 0
DWIDTH 10 0
BBX 6 6 2 5
BITMAP
2F40
7FC0
2840
1280
7FD0
2F80
ENDCHAR
STARTCHAR x.sups
ENCODING 739
SWIDTH 600 0
DWIDTH 10 0
BBX 6 5 2 6
BITMAP
B5D0
3B80
1F00
3B40
B2D0
ENDCHAR
STARTCHAR uni02E4
ENCODING 740
SWIDTH 600 0
DWIDTH 10 0
BBX 6 8 2 6
BITMAP
1F40
7FD0
B440
B400
3D00
0F00
0F00
0F00
ENDCHAR
STARTCHAR uni0300
ENCODING 768
SWIDTH 600 0
DWIDTH 10 0
BBX 4 4 2 9
BITMAP
20
B8
2E
09
ENDCHAR
STARTCHAR uni0301
ENCODING 769
SWIDTH 600 0
DWIDTH 10 0
BBX 5 4 3 9
BITMAP
0600
1F40
7D00
2400
ENDCHAR
STARTCHAR uni0302
ENCODING 770
SWIDTH 600 0
DWIDTH 10 0
BBX 6 3 2 9
BITMAP
2F40
BBD0
9090
ENDCHAR
STARTCHAR uni0303
ENCODING 771
SWIDTH 600 0
DWIDTH 10 0
BBX 6 4 2 9
BITMAP
1000
BDA0
EFE0
9780
ENDCHAR
STARTCHAR uni0304
ENCODING 772
SWIDTH 600 0
DWIDTH 10 0
BBX 6 1 2 10
BITMAP
BFD0
ENDCHAR
STARTCHAR uni0305
ENCODING 773
SWIDTH 600 0
DWIDTH 10 0
BBX 6 1 2 10
BITMAP
BFD0
ENDCHAR
STARTCHAR uni0306
ENCODING 774
SWIDTH 600 0
DWIDTH 10 0
BBX 6 2 2 9
BITMAP
A1D0
6F80
ENDCHAR
STARTCHAR uni0307
ENCODING 775
SWIDTH 600 0
DWIDTH 10 0
BBX 4 3 3 9
BITMAP
78
BD
78
ENDCHAR
STARTCHAR uni0308
ENCODING 776
SWIDTH 600 0
DWIDTH 10 0
BBX 7 3 1 9
BITMAP
2874
7DB8
2C74
ENDCHAR
STARTCHAR uni0309
ENCODING 777
SWIDTH 600 0
DWIDTH 10 0
BBX 4 3 3 9
BITMAP
B8
2D
38
ENDCHAR
STARTCHAR uni030A
ENCODING 778
SWIDTH 600 0
DWIDTH 10 0
BBX 5 4 2 9
BITMAP
2F40
7680
7680
2F40
ENDCHAR
STARTCHAR uni030B
ENCODING 779
SWIDTH 600 0
DWIDTH 10 0
BBX 6 3 3 9
BITMAP
7590
B3C0
9740
ENDCHAR
STARTCHAR uni030C
ENCODING 780
SWIDTH 600 0
DWIDTH 10 0
BBX 6 3 2 9
BITMAP
9090
BBD0
2F40
ENDCHAR
STARTCHAR uni030F
ENCODING 783
SWIDTH 600 0
DWIDTH 10 0
BBX 6 3 1 9
BITMAP
6280
75D0
28A0
ENDCHAR
STARTCHAR uni0310
ENCODING 784
SWIDTH 600 0
DWIDTH 10 0
BBX 6 4 2 9
BITMAP
0500
1F00
E5E0
6F80
ENDCHAR
STARTCHAR uni0311
ENCODING 785
SWIDTH 600 0
DWIDTH 10 0
BBX 6 2 2 10
BITMAP
2F80
A1D0
ENDCHAR
STARTCHAR uni0312
ENCODING 786
SWIDTH 600 0
DWIDTH 10 0
BBX 3 4 3 9
BITMAP
18
74
78
38
ENDCHAR
STARTCHAR uni0313
ENCODING 787
SWIDTH 600 0
DWIDTH 10 0
BBX 3 4 3 9
BITMAP
78
7C
28
20
ENDCHAR
STARTCHAR uni0318
ENCODING 792
SWIDTH 600 0
DWIDTH 10 0
BBX 4 4 3 -4
BITMAP
0A
BE
BE
0A
ENDCHAR
STARTCHAR uni0319
ENCODING 793
SWIDTH 600 0
DWIDTH 10 0
BBX 4 4 3 -4
BITMAP
D0
FD
FD
D0
ENDCHAR
STARTCHAR uni031A
ENCODING 794
SWIDTH 600 0
DWIDTH 10 0
BBX 4 4 3 7
BITMAP
BD
BD
0D
04
ENDCHAR
STARTCHAR uni031B
ENCODING 795
SWIDTH 600 0
DWIDTH 10 0
BBX 4 4 4 7
BITMAP
19
1E
2D
74
ENDCHAR
STARTCHAR uni031C
ENCODING 796
SWIDTH 600 0
DWIDTH 10 0
BBX 3 3 3 -4
BITMAP
7C
B0
7C
ENDCHAR
STARTCHAR uni031D
ENCODING 797
SWIDTH 600 0
DWIDTH 10 0
BBX 5 2 2 -4
BITMAP
7F80
7F80
ENDCHAR
STARTCHAR uni031E
ENCODING 798
SWIDTH 600 0
DWIDTH 10 0
BBX 5 2 2 -4
BITMAP
7F80
7F80
ENDCHAR
STARTCHAR uni031F
ENCODING 799
SWIDTH 600 0
DWIDTH 10 0
BBX 5 4 2 -4
BITMAP
0D00
7F80
7F80
0D00
ENDCHAR
STARTCHAR uni0320
ENCODING 800
SWIDTH 600 0
DWIDTH 10 0
BBX 5 2 2 -3
BITMAP
7F80
7F80
ENDCHAR
STARTCHAR uni0323
ENCODING 803
SWIDTH 600 0
DWIDTH 10 0
BBX 4 3 3 -4
BITMAP
78
BD
78
ENDCHAR
STARTCHAR uni0324
ENCODING 804
SWIDTH 600 0
DWIDTH 10 0
BBX 7 3 1 -4
BITMAP
2874
7DB8
2C74
ENDCHAR
STARTCHAR uni0325
ENCODING 805
SWIDTH 600 0
DWIDTH 10 0
BBX 5 4 2 -4
BITMAP
2F40
7680
7680
2F40
ENDCHAR
STARTCHAR uni0326
ENCODING 806
SWIDTH 600 0
DWIDTH 10 0
BBX 4 4 3 -5
BITMAP
38
2D
FC
A4
ENDCHAR
STARTCHAR uni0327
ENCODING 807
SWIDTH 600 0
DWIDTH 10 0
BBX 4 4 3 -4
BITMAP
34
7C
2D
F4
ENDCHAR
STARTCHAR uni0328
ENCODING 808
SWIDTH 600 0
DWIDTH 10 0
BBX 4 3 3 -3
BITMAP
74
A0
7D
ENDCHAR
STARTCHAR uni0329
ENCODING 809
SWIDTH 600 0
DWIDTH 10 0
BBX 2 3 4 -4
BITMAP
E0
E0
E0
ENDCHAR
STARTCHAR uni032A
ENCODING 810
SWIDTH 600 0
DWIDTH 10 0
BBX 5 3 2 -4
BITMAP
7FC0
7FC0
71C0
ENDCHAR
STARTCHAR uni032C
ENCODING 812
SWIDTH 600 0
DWIDTH 10 0
BBX 6 3 2 -4
BITMAP
9090
BBD0
2F40
ENDCHAR
STARTCHAR uni032E
ENCODING 814
SWIDTH 600 0
DWIDTH 10 0
BBX 6 2 2 -4
BITMAP
A1D0
6F80
ENDCHAR
STARTCHAR uni032F
ENCODING 815
SWIDTH 600 0
DWIDTH 10 0
BBX 6 2 2 -3
BITMAP
2F80
A1D0
ENDCHAR
STARTCHAR uni0330
ENCODING 816
SWIDTH 600 0
DWIDTH 10 0
BBX 6 4 2 -4
BITMAP
1000
BDA0
EFE0
9780
ENDCHAR
STARTCHAR uni0331
ENCODING 817
SWIDTH 600 0
DWIDTH 10 0
BBX 6 1 2 -2
BITMAP
BFD0
ENDCHAR
STARTCHAR uni0334
ENCODING 820
SWIDTH 600 0
DWIDTH 10 0
BBX 8 4 1 2
BITMAP
1400
7F5D
BBFD
61B8
ENDCHAR
STARTCHAR uni0339
ENCODING 825
SWIDTH 600 0
DWIDTH 10 0
BBX 4 3 3 -4
BITMAP
78
1D
78
ENDCHAR
STARTCHAR uni033A
ENCODING 826
SWIDTH 600 0
DWIDTH 10 0
BBX 5 3 2 -3
BITMAP
71C0
7FC0
7FC0
ENDCHAR
STARTCHAR uni033B
ENCODING 827
SWIDTH 600 0
DWIDTH 10 0
BBX 5 3 2 -4
BITMAP
7FC0
71C0
7FC0
ENDCHAR
STARTCHAR uni033C
ENCODING 828
SWIDTH 600 0
DWIDTH 10 0
BBX 7 3 1 -4
BITMAP
2DB4
3FF8
7768
ENDCHAR
STARTCHAR uni033D
ENCODING 829
SWIDTH 600 0
DWIDTH 10 0
BBX 4 3 3 9
BITMAP
99
7C
AD
ENDCHAR
STARTCHAR uni0342
ENCODING 834
SWIDTH 600 0
DWIDTH 10 0
BBX 6 4 2 9
BITMAP
1000
BDA0
EFE0
9780
ENDCHAR
STARTCHAR uni0345
ENCODING 837
SWIDTH 600 0
DWIDTH 10 0
BBX 3 2 4 -3
BITMAP
F4
B8
ENDCHAR
STARTCHAR uni035F
ENCODING 863
SWIDTH 600 0
DWIDTH 10 0
BBX 17 2 -4 -3
BITMAP
7FFFFFFFC0
7FFFFFFFC0
ENDCHAR
STARTCHAR uni0361
ENCODING 865
SWIDTH 600 0
DWIDTH 10 0
BBX 15 4 -3 9
BITMAP
006FF900
0BFFFFD0
7E5006F8
24000018
ENDCHAR
STARTCHAR uni0374
ENCODING 884
SWIDTH 600 0
DWIDTH 10 0
BBX 4 5 3 6
BITMAP
3D
3C
3C
78
74
ENDCHAR
STARTCHAR uni0375
ENCODING 885
SWIDTH 600 0
DWIDTH 10 0
BBX 3 5 3 0
BITMAP
2C
38
78
B8
B8
ENDCHAR
STARTCHAR uni037A
ENCODING 890
SWIDTH 600 0
DWIDTH 10 0
BBX 3 2 4 -3
BITMAP
F4
B8
ENDCHAR
STARTCHAR uni037E
ENCODING 894
SWIDTH 600 0
DWIDTH 10 0
BBX 4 13 3 -4
BITMAP
78
FE
FE
78
00
00
7D
FE
7E
0E
2D
F8
50
ENDCHAR
STARTCHAR tonos
ENCODING 900
SWIDTH 600 0
DWIDTH 10 0
BBX 3 4 4 9
BITMAP
B4
B4
F0
E0
ENDCHAR
STARTCHAR dieresistonos
ENCODING 901
SWIDTH 600 0
DWIDTH 10 0
BBX 7 4 1 9
BITMAP
01C0
0280
76A8
7768
ENDCHAR
STARTCHAR Alphatonos
ENCODING 902
SWIDTH 600 0
DWIDTH 10 0
BBX 10 11 0 0
BITMAP
780000
79F800
B6FC00
B3ED00
B79E00
A79F00
0B4F40
0FFF40
1FFF80
2E07C0
3D07D0
ENDCHAR
STARTCHAR anoteleia
ENCODING 903
SWIDTH 600 0
DWIDTH 10 0
BBX 4 4 3 5
BITMAP
78
FE
FE
78
ENDCHAR
STARTCHAR Epsilontonos
ENCODING 904
SWIDTH 600 0
DWIDTH 10 0
BBX 9 11 0 0
BITMAP
740000
76FF40
B6FF40
B2D000
E2D000
A2FE00
02FE00
02D000
02D000
02FF80
02FF80
ENDCHAR
STARTCHAR Etatonos
ENCODING 905
SWIDTH 600 0
DWIDTH 10 0
BBX 9 11 0 0
BITMAP
740000
77D780
B7D780
B3D780
E3D780
A3FF80
03FF80
03D780
03D780
03D780
03D780
ENDCHAR
STARTCHAR Iotatonos
ENCODING 906
SWIDTH 600 0
DWIDTH 10 0
BBX 9 11 0 0
BITMAP
740000
76FF40
B6FF40
B07C00
E07C00
A07C00
007C00
007C00
007C00
02FF40
02FF40
ENDCHAR
STARTCHAR Omicrontonos
ENCODING 908
SWIDTH 600 0
DWIDTH 10 0
BBX 9 11 0 0
BITMAP
740000
74BD00
B7FF40
B7CB80
EB87C0
AB87C0
0B87C0
0B87C0
07CB80
02FF40
00BD00
ENDCHAR
STARTCHAR Upsilontonos
ENCODING 910
SWIDTH 600 0
DWIDTH 10 0
BBX 10 11 0 0
BITMAP
780000
7AE1E0
75E1D0
B4F2C0
B0B780
A07F40
003F00
002E00
001E00
001E00
001E00
ENDCHAR
STARTCHAR Omegatonos
ENCODING 911
SWIDTH 600 0
DWIDTH 10 0
BBX 9 11 0 0
BITMAP
740000
74BD00
B7FF40
B7CB80
EB87C0
AB87C0
0B8780
078780
02CB00
0BDFC0
0BDFC0
ENDCHAR
STARTCHAR iotadieresistonos
ENCODING 912
SWIDTH 600 0
DWIDTH 10 0
BBX 8 13 1 0
BITMAP
0280
0340
7774
7674
0000
FF80
FF80
0B80
0B80
0B80
0B80
07FD
02FD
ENDCHAR
STARTCHAR Alpha
ENCODING 913
SWIDTH 600 0
DWIDTH 10 0
BBX 10 10 0 0
BITMAP
02F400
03F800
07BC00
0B6D00
0F2E00
1E1F00
2FFF40
3FFF80
7C0BC0
B807D0
ENDCHAR
STARTCHAR Beta
ENCODING 914
SWIDTH 600 0
DWIDTH 10 0
BBX 8 10 1 0
BITMAP
BFE4
BFFD
B83D
B87D
BFF4
BFFD
B82F
B82F
BFFE
BFE4
ENDCHAR
STARTCHAR Gamma
ENCODING 915
SWIDTH 600 0
DWIDTH 10 0
BBX 8 10 1 0
BITMAP
7FFE
7FFE
7C00
7C00
7C00
7C00
7C00
7C00
7C00
7C00
ENDCHAR
STARTCHAR uni0394
ENCODING 916
SWIDTH 600 0
DWIDTH 10 0
BBX 9 10 0 0
BITMAP
02F400
03F800
07BC00
0B6D00
0F2E00
1E1F00
2D0F40
3D0B80
7FFFC0
BFFFC0
ENDCHAR
STARTCHAR Epsilon
ENCODING 917
SWIDTH 600 0
DWIDTH 10 0
BBX 8 10 1 0
BITMAP
BFFD
BFFD
BC00
BC00
BFF8
BFF8
BC00
BC00
BFFE
BFFE
ENDCHAR
STARTCHAR Zeta
ENCODING 918
SWIDTH 600 0
DWIDTH 10 0
BBX 8 10 1 0
BITMAP
BFFE
BFFE
00BC
01F4
03D0
0B80
2F00
7D00
FFFE
FFFE
ENDCHAR
STARTCHAR Eta
ENCODING 919
SWIDTH 600 0
DWIDTH 10 0
BBX 8 10 1 0
BITMAP
F42E
F42E
F42E
F42E
FFFE
FFFE
F42E
F42E
F42E
F42E
ENDCHAR
STARTCHAR Theta
ENCODING 920
SWIDTH 600 0
DWIDTH 10 0
BBX 9 10 0 0
BITMAP
06F800
1FFF00
3E1F80
7D0B80
7DF7C0
7DF7C0
7D0B80
3E1F80
1FFF00
06F800
ENDCHAR
STARTCHAR Iota
ENCODING 921
SWIDTH 600 0
DWIDTH 10 0
BBX 8 10 1 0
BITMAP
BFFD
BFFD
07C0
07C0
07C0
07C0
07C0
07C0
BFFD
BFFD
ENDCHAR
STARTCHAR Kappa
ENCODING 922
SWIDTH 600 0
DWIDTH 10 0
BBX 9 10 1 0
BITMAP
F42E00
F4BC00
F5F400
FBD000
FFD000
FFF000
FDF800
F47C00
F43E00
F41F40
ENDCHAR
STARTCHAR Lambda
ENCODING 923
SWIDTH 600 0
DWIDTH 10 0
BBX 10 10 0 0
BITMAP
02F400
03F800
07BC00
0B7D00
0F2E00
1E1F00
2E0F40
3D0B80
7C0BC0
B807D0
ENDCHAR
STARTCHAR Mu
ENCODING 924
SWIDTH 600 0
DWIDTH 10 0
BBX 8 10 1 0
BITMAP
F83E
F87E
FCBE
EDAE
EADE
E7DE
F39E
F11E
F01E
F01E
ENDCHAR
STARTCHAR Nu
ENCODING 925
SWIDTH 600 0
DWIDTH 10 0
BBX 8 10 1 0
BITMAP
F82E
FC2E
FE2E
FB2E
F76E
F7EE
F5EE
F4FE
F4BE
F43E
ENDCHAR
STARTCHAR Xi
ENCODING 926
SWIDTH 600 0
DWIDTH 10 0
BBX 8 10 1 0
BITMAP
BFFD
BFFD
0000
0000
3FF4
3FF4
0000
0000
FFFE
FFFE
ENDCHAR
STARTCHAR Omicron
ENCODING 927
SWIDTH 600 0
DWIDTH 10 0
BBX 9 10 0 0
BITMAP
06F800
1FFF00
3E1F80
7D0BC0
7C07C0
7C07C0
7D0B80
3E1F80
1FFF00
06F800
ENDCHAR
STARTCHAR Pi
ENCODING 928
SWIDTH 600 0
DWIDTH 10 0
BBX 8 10 1 0
BITMAP
FFFE
FFFE
F42E
F42E
F42E
F42E
F42E
F42E
F42E
F42E
ENDCHAR
STARTCHAR Rho
ENCODING 929
SWIDTH 600 0
DWIDTH 10 0
BBX 8 10 1 0
BITMAP
BFE4
BFFD
B82F
B81F
B82E
BFFD
BFE4
B800
B800
B800
ENDCHAR
STARTCHAR Sigma
ENCODING 931
SWIDTH 600 0
DWIDTH 10 0
BBX 8 10 1 0
BITMAP
FFFD
BFFD
3D00
0F40
07D0
07C0
1F40
3D00
FFFE
FFFE
ENDCHAR
STARTCHAR Tau
ENCODING 932
SWIDTH 600 0
DWIDTH 10 0
BBX 9 10 0 0
BITMAP
BFFFC0
BFFFC0
01F000
01F000
01F000
01F000
01F000
01F000
01F000
01F000
ENDCHAR
STARTCHAR Upsilon
ENCODING 933
SWIDTH 600 0
DWIDTH 10 0
BBX 9 10 0 0
BITMAP
7C07C0
3D0B80
1F1F00
0F6E00
07BC00
03F800
01F000
01F000
01F000
01F000
ENDCHAR
STARTCHAR Phi
ENCODING 934
SWIDTH 600 0
DWIDTH 10 0
BBX 10 10 0 0
BITMAP
00E000
06F400
2FFF40
7EFBC0
B4E3D0
B4E3D0
7EFBC0
2FFF40
06F400
00E000
ENDCHAR
STARTCHAR Chi
ENCODING 935
SWIDTH 600 0
DWIDTH 10 0
BBX 9 10 0 0
BITMAP
7D0BC0
2F0F40
0F6E00
07FC00
03F800
03F800
0BBD00
1F2E00
2E0F40
7C0BC0
ENDCHAR
STARTCHAR Psi
ENCODING 936
SWIDTH 600 0
DWIDTH 10 0
BBX 10 10 0 0
BITMAP
B9E3D0
B9E3D0
B9E3D0
B9E3D0
7DE7C0
3FFF80
0BFD00
01E000
01E000
01E000
ENDCHAR
STARTCHAR uni03A9
ENCODING 937
SWIDTH 600 0
DWIDTH 10 0
BBX 9 10 0 0
BITMAP
06F800
1FFF00
3E1F80
7D0BC0
7C07C0
7C07C0
3D0B80
1E0E00
BF2FC0
BF2FC0
ENDCHAR
STARTCHAR Iotadieresis
ENCODING 938
SWIDTH 600 0
DWIDTH 10 0
BBX 8 13 1 0
BITMAP
3C78
3C78
0000
BFFD
BFFD
07C0
07C0
07C0
07C0
07C0
07C0
BFFD
BFFD
ENDCHAR
STARTCHAR Upsilondieresis
ENCODING 939
SWIDTH 600 0
DWIDTH 10 0
BBX 9 13 0 0
BITMAP
0F1E00
0F1E00
000000
7C07C0
3D0B80
1F1F00
0F6E00
07BC00
03F800
01F000
01F000
01F000
01F000
ENDCHAR
STARTCHAR alphatonos
ENCODING 940
SWIDTH 600 0
DWIDTH 10 0
BBX 10 13 0 0
BITMAP
003800
007800
007400
007000
000000
0BDB80
2FFF80
3E2F40
7C1F00
7C1F00
3E2F00
2FFFD0
0BD7D0
ENDCHAR
STARTCHAR epsilontonos
ENCODING 941
SWIDTH 600 0
DWIDTH 10 0
BBX 8 13 1 0
BITMAP
00E0
01F0
01E0
01D0
0000
1BF4
7FFD
7C14
2FD0
7FD0
B818
BFFE
1BF8
ENDCHAR
STARTCHAR etatonos
ENCODING 942
SWIDTH 600 0
DWIDTH 10 0
BBX 8 16 1 -3
BITMAP
01E0
01E0
02D0
02C0
0000
F5F4
BBFD
BD3D
B82D
B82E
B82E
B82E
B82E
002E
003E
003E
ENDCHAR
STARTCHAR iotatonos
ENCODING 943
SWIDTH 600 0
DWIDTH 10 0
BBX 8 13 1 0
BITMAP
0390
03C0
0780
0740
0000
FF80
FF80
0B80
0B80
0B80
0B80
07FD
02FD
ENDCHAR
STARTCHAR upsilondieresistonos
ENCODING 944
SWIDTH 600 0
DWIDTH 10 0
BBX 8 13 1 0
BITMAP
0280
0280
7778
7738
0000
F42C
F43D
F43D
F42E
F43D
B87D
7FF8
1BE0
ENDCHAR
STARTCHAR alpha
ENCODING 945
SWIDTH 600 0
DWIDTH 10 0
BBX 10 8 0 0
BITMAP
0BDB80
2FFF80
3E2F40
7C1F00
7C1F00
3E2F00
2FFFD0
0BD7D0
ENDCHAR
STARTCHAR beta
ENCODING 946
SWIDTH 600 0
DWIDTH 10 0
BBX 8 14 1 -3
BITMAP
1BE0
7FF8
B87C
B4B8
F6F4
F5FD
F42E
F41F
F82E
FFFD
FAF4
F400
F400
F800
ENDCHAR
STARTCHAR gamma
ENCODING 947
SWIDTH 600 0
DWIDTH 10 0
BBX 9 12 0 -3
BITMAP
140000
7D07C0
2E0B80
1F0B40
0B8F00
07ED00
03F800
02F400
02E000
01E000
01F000
01F000
ENDCHAR
STARTCHAR delta
ENCODING 948
SWIDTH 600 0
DWIDTH 10 0
BBX 8 11 1 0
BITMAP
1FE8
7FFD
7C18
2E40
0FE0
7EBC
F42E
F02E
F83E
7FFC
1BE0
ENDCHAR
STARTCHAR epsilon
ENCODING 949
SWIDTH 600 0
DWIDTH 10 0
BBX 8 8 1 0
BITMAP
1BF4
7FFD
7C14
2FD0
7FD0
B818
BFFE
1BF8
ENDCHAR
STARTCHAR zeta
ENCODING 950
SWIDTH 600 0
DWIDTH 10 0
BBX 8 14 1 -3
BITMAP
3FFD
3FFD
01B8
07D0
1F40
3D00
7C00
BC00
7D00
3FF4
0BFD
006E
002D
0028
ENDCHAR
STARTCHAR eta
ENCODING 951
SWIDTH 600 0
DWIDTH 10 0
BBX 8 11 1 -3
BITMAP
F5F4
BBFD
BD3D
B82D
B82E
B82E
B82E
B82E
002E
003E
003E
ENDCHAR
STARTCHAR theta
ENCODING 952
SWIDTH 600 0
DWIDTH 10 0
BBX 8 11 1 0
BITMAP
1BE0
3FF8
B87D
F42E
FFFE
FFFE
F42E
F42E
B87D
3FF8
1BE0
ENDCHAR
STARTCHAR iota
ENCODING 953
SWIDTH 600 0
DWIDTH 10 0
BBX 8 8 1 0
BITMAP
FF80
FF80
0B80
0B80
0B80
0B80
07FD
02FD
ENDCHAR
STARTCHAR kappa
ENCODING 954
SWIDTH 600 0
DWIDTH 10 0
BBX 8 8 1 0
BITMAP
B819
B8BE
BAF4
BFD0
BFE0
BDF4
B87D
B82F
ENDCHAR
STARTCHAR lambda
ENCODING 955
SWIDTH 600 0
DWIDTH 10 0
BBX 9 11 0 0
BITMAP
3F8000
3FE000
01F000
00F400
02F800
03FC00
07AE00
0F5F00
1F0F40
2E0B80
7D07C0
ENDCHAR
STARTCHAR uni03BC
ENCODING 956
SWIDTH 600 0
DWIDTH 10 0
BBX 9 11 1 -3
BITMAP
F43D00
F43D00
F43D00
F43D00
F43D00
F8BD00
FFFF00
FF9F40
F40000
F40000
F40000
ENDCHAR
STARTCHAR nu
ENCODING 957
SWIDTH 600 0
DWIDTH 10 0
BBX 9 9 0 0
BITMAP
140000
7D0780
2E0B80
1F4F40
0B9F00
07AE00
03FC00
02F800
02F000
ENDCHAR
STARTCHAR xi
ENCODING 958
SWIDTH 600 0
DWIDTH 10 0
BBX 8 14 1 -3
BITMAP
FFFD
FFFD
2E00
2E00
1BF8
1FF8
7D00
B800
BD00
3FF8
0BFD
006E
002D
0028
ENDCHAR
STARTCHAR omicron
ENCODING 959
SWIDTH 600 0
DWIDTH 10 0
BBX 8 8 1 0
BITMAP
1BE0
7FFC
F87D
F42E
F42E
F87D
7FFC
1BE0
ENDCHAR
STARTCHAR pi
ENCODING 960
SWIDTH 600 0
DWIDTH 10 0
BBX 10 8 0 0
BITMAP
BFFFD0
FFFFD0
1F0F00
1F0F00
1F1F00
1F1F00
2E0FD0
2E07D0
ENDCHAR
STARTCHAR rho
ENCODING 961
SWIDTH 600 0
DWIDTH 10 0
BBX 8 11 1 -3
BITMAP
1BE4
3FFD
B83E
B42E
F42E
F87E
FFFC
FBE4
F400
F400
F800
ENDCHAR
STARTCHAR uni03C2
ENCODING 962
SWIDTH 600 0
DWIDTH 10 0
BBX 8 11 1 -3
BITMAP
07F8
2FFD
BD04
B800
B800
BD00
3FE4
0BFD
007D
003C
0068
ENDCHAR
STARTCHAR sigma
ENCODING 963
SWIDTH 600 0
DWIDTH 10 0
BBX 10 8 0 0
BITMAP
06FFD0
1FFFD0
3E2E00
7D0F00
7D0F40
3E1F00
1FFE00
06F400
ENDCHAR
STARTCHAR tau
ENCODING 964
SWIDTH 600 0
DWIDTH 10 0
BBX 9 8 0 0
BITMAP
7FFF80
7FFF80
01F000
01F000
01F000
01F000
01FF00
007E00
ENDCHAR
STARTCHAR upsilon
ENCODING 965
SWIDTH 600 0
DWIDTH 10 0
BBX 8 8 1 0
BITMAP
F42C
F43D
F43D
F42E
F43D
B87D
7FF8
1BE0
ENDCHAR
STARTCHAR phi
ENCODING 966
SWIDTH 600 0
DWIDTH 10 0
BBX 9 13 0 -3
BITMAP
01E000
01E000
0BF900
2FFF40
7DE7C0
B9E3C0
B9E3C0
7DE7C0
2FFF40
0BF900
01E000
01E000
01E000
ENDCHAR
STARTCHAR chi
ENCODING 967
SWIDTH 600 0
DWIDTH 10 0
BBX 8 11 1 -3
BITMAP
F43E
7C7C
3EF8
1FF0
0BD0
07D0
0FE0
1FF4
3DBC
BC3D
F41F
ENDCHAR
STARTCHAR psi
ENCODING 968
SWIDTH 600 0
DWIDTH 10 0
BBX 10 13 0 -3
BITMAP
01E000
01E000
B9E680
B9E3C0
B9E3D0
B9E3D0
79E3D0
7DE7C0
3FFF80
0BFE00
01E000
01E000
01E000
ENDCHAR
STARTCHAR omega
ENCODING 969
SWIDTH 600 0
DWIDTH 10 0
BBX 10 8 0 0
BITMAP
290640
3D0B80
7897C0
B8E3D0
B8E3D0
79E7C0
3FFF80
1F6E00
ENDCHAR
STARTCHAR iotadieresis
ENCODING 970
SWIDTH 600 0
DWIDTH 10 0
BBX 8 12 1 0
BITMAP
78B4
BCF4
78B4
0000
FF80
FF80
0B80
0B80
0B80
0B80
07FD
02FD
ENDCHAR
STARTCHAR upsilondieresis
ENCODING 971
SWIDTH 600 0
DWIDTH 10 0
BBX 8 12 1 0
BITMAP
3874
7CB8
3874
0000
F42C
F43D
F43D
F42E
F43D
B87D
7FF8
1BE0
ENDCHAR
STARTCHAR omicrontonos
ENCODING 972
SWIDTH 600 0
DWIDTH 10 0
BBX 8 13 1 0
BITMAP
02D0
02D0
03C0
0380
0000
1BE0
7FFC
F87D
F42E
F42E
F87D
7FFC
1BE0
ENDCHAR
STARTCHAR upsilontonos
ENCODING 973
SWIDTH 600 0
DWIDTH 10 0
BBX 8 13 1 0
BITMAP
02D0
03D0
03C0
0380
0000
F42C
F43D
F43D
F42E
F43D
B87D
7FF8
1BE0
ENDCHAR
STARTCHAR omegatonos
ENCODING 974
SWIDTH 600 0
DWIDTH 10 0
BBX 10 13 0 0
BITMAP
00B400
00B400
00F000
00E000
000000
290640
3D0B80
7897C0
B8E3D0
B8E3D0
79E7C0
3FFF80
1F6E00
ENDCHAR
STARTCHAR uni03D0
ENCODING 976
SWIDTH 600 0
DWIDTH 10 0
BBX 8 11 1 0
BITMAP
1BE0
7FF8
B87C
B47C
FAF4
FFF8
F82E
B41F
BC2E
3FFD
0BE4
ENDCHAR
STARTCHAR uni03D1
ENCODING 977
SWIDTH 600 0
DWIDTH 10 0
BBX 8 11 1 0
BITMAP
1FD0
BFF8
F47C
F42D
BFFE
1FFE
542E
B82E
B87D
7FF8
1BE0
ENDCHAR
STARTCHAR uni03D5
ENCODING 981
SWIDTH 600 0
DWIDTH 10 0
BBX 9 13 0 -3
BITMAP
01E000
01E000
0BF900
2FFF40
7DE7C0
B9E3C0
B9E3C0
7DE7C0
2FFF40
0BF900
01E000
01E000
01E000
ENDCHAR
STARTCHAR uni03D7
ENCODING 983
SWIDTH 600 0
DWIDTH 10 0
BBX 8 11 1 -3
BITMAP
B819
B8BE
BAF4
BFD0
BFE0
BCF4
B87D
B82F
002F
007D
00F8
ENDCHAR
STARTCHAR uni03D9
ENCODING 985
SWIDTH 600 0
DWIDTH 10 0
BBX 9 11 0 -3
BITMAP
06F800
1FFF00
3E1F80
7D0B80
3D0B80
3E1F80
1FFF00
07F900
01F000
01F000
01F000
ENDCHAR
STARTCHAR uni03DB
ENCODING 987
SWIDTH 600 0
DWIDTH 10 0
BBX 8 11 1 -3
BITMAP
0BFE
3FFE
BD00
B800
B800
BD00
2FE4
0BFD
007D
003C
0028
ENDCHAR
STARTCHAR uni03DD
ENCODING 989
SWIDTH 600 0
DWIDTH 10 0
BBX 7 11 2 -3
BITMAP
FFF4
FFF4
F000
F000
FFF0
FAA0
F000
F000
F000
F000
F400
ENDCHAR
STARTCHAR uni03E1
ENCODING 993
SWIDTH 600 0
DWIDTH 10 0
BBX 8 14 1 -3
BITMAP
1800
3F00
1FC0
07E0
02F4
1FF8
FFBC
B43D
01FE
1FFE
1E5F
041E
002E
002E
ENDCHAR
STARTCHAR uni0400
ENCODING 1024
SWIDTH 600 0
DWIDTH 10 0
BBX 8 14 1 0
BITMAP
0600
0BD0
0190
0000
BFFD
BFFD
BC00
BC00
BFF8
BFF8
BC00
BC00
BFFE
BFFE
ENDCHAR
STARTCHAR uni0401
ENCODING 1025
SWIDTH 600 0
DWIDTH 10 0
BBX 8 13 1 0
BITMAP
2D3C
2D3C
0000
BFFD
BFFD
BC00
BC00
BFF8
BFF8
BC00
BC00
BFFE
BFFE
ENDCHAR
STARTCHAR uni0402
ENCODING 1026
SWIDTH 600 0
DWIDTH 10 0
BBX 9 10 0 0
BITMAP
BFFD00
BFFD00
07C000
07C000
07FE00
07FF80
07C7C0
07C7C0
07DFC0
07DF40
ENDCHAR
STARTCHAR uni0403
ENCODING 1027
SWIDTH 600 0
DWIDTH 10 0
BBX 8 14 1 0
BITMAP
0090
07E0
0640
0000
7FFE
7FFE
7C00
7C00
7C00
7C00
7C00
7C00
7C00
7C00
ENDCHAR
STARTCHAR uni0404
ENCODING 1028
SWIDTH 600 0
DWIDTH 10 0
BBX 8 10 1 0
BITMAP
07F8
2FFE
BD08
F400
FFF0
FFF0
F400
BD09
3FFF
0BF8
ENDCHAR
STARTCHAR uni0405
ENCODING 1029
SWIDTH 600 0
DWIDTH 10 0
BBX 8 10 1 0
BITMAP
1BE4
7FFD
B818
BD00
7FE4
0BFD
007E
742E
FFFD
2FE4
ENDCHAR
STARTCHAR uni0406
ENCODING 1030
SWIDTH 600 0
DWIDTH 10 0
BBX 8 10 1 0
BITMAP
BFFD
BFFD
07C0
07C0
07C0
07C0
07C0
07C0
BFFD
BFFD
ENDCHAR
STARTCHAR uni0407
ENCODING 1031
SWIDTH 600 0
DWIDTH 10 0
BBX 8 13 1 0
BITMAP
3C78
3C78
0000
BFFD
BFFD
07C0
07C0
07C0
07C0
07C0
07C0
BFFD
BFFD
ENDCHAR
STARTCHAR uni0408
ENCODING 1032
SWIDTH 600 0
DWIDTH 10 0
BBX 8 10 1 0
BITMAP
7FFD
7FFD
003D
003D
003D
003D
003D
647C
BFF8
2FE0
ENDCHAR
STARTCHAR uni0409
ENCODING 1033
SWIDTH 600 0
DWIDTH 10 0
BBX 10 10 0 0
BITMAP
2FF000
2FF000
2DF000
2DFE00
2CFFC0
3CF2D0
3CF2D0
78F3D0
F8FF80
E0FE00
ENDCHAR
STARTCHAR uni040A
ENCODING 1034
SWIDTH 600 0
DWIDTH 10 0
BBX 10 10 0 0
BITMAP
B8F000
B8F000
B8F000
BFFE00
BFFFC0
B8F3D0
B8F2D0
B8F3D0
B8FF80
B8FE00
ENDCHAR
STARTCHAR uni040B
ENCODING 1035
SWIDTH 600 0
DWIDTH 10 0
BBX 9 10 0 0
BITMAP
BFFD00
BFFD00
07C000
07C000
07FE00
07FF80
07C7C0
07C7C0
07C7C0
07C7C0
ENDCHAR
STARTCHAR uni040C
ENCODING 1036
SWIDTH 600 0
DWIDTH 10 0
BBX 9 14 1 0
BITMAP
006000
02F400
028000
000000
F41F00
F47F00
F4B800
F5F000
FFD000
FFE000
F5F400
F4BC00
F43E00
F41F40
ENDCHAR
STARTCHAR uni040D
ENCODING 1037
SWIDTH 600 0
DWIDTH 10 0
BBX 8 14 1 0
BITMAP
0900
1F80
0180
0000
F03E
F0BE
F0FE
F2EE
F3DE
F79E
FB2E
FE2E
FC2E
F82E
ENDCHAR
STARTCHAR uni040E
ENCODING 1038
SWIDTH 600 0
DWIDTH 10 0
BBX 9 13 0 0
BITMAP
0B5E00
06F800
000000
7C07C0
3D0B80
1F0F40
0F5E00
07AD00
03FC00
01F800
01F000
1FE000
1F8000
ENDCHAR
STARTCHAR uni040F
ENCODING 1039
SWIDTH 600 0
DWIDTH 10 0
BBX 8 13 1 -3
BITMAP
F42E
F42E
F42E
F42E
F42E
F42E
F42E
F42E
FFFE
FFFE
03C0
03C0
0380
ENDCHAR
STARTCHAR uni0410
ENCODING 1040
SWIDTH 600 0
DWIDTH 10 0
BBX 10 10 0 0
BITMAP
02F400
03F800
07BC00
0B6D00
0F2E00
1E1F00
2FFF40
3FFF80
7C0BC0
B807D0
ENDCHAR
STARTCHAR uni0411
ENCODING 1041
SWIDTH 600 0
DWIDTH 10 0
BBX 8 10 1 0
BITMAP
BFFD
BFFD
B800
B800
BFE4
BFFE
B82F
B82F
BFFD
BFE4
ENDCHAR
STARTCHAR uni0412
ENCODING 1042
SWIDTH 600 0
DWIDTH 10 0
BBX 8 10 1 0
BITMAP
BFE4
BFFD
B83D
B87D
BFF4
BFFD
B82F
B82F
BFFE
BFE4
ENDCHAR
STARTCHAR uni0413
ENCODING 1043
SWIDTH 600 0
DWIDTH 10 0
BBX 8 10 1 0
BITMAP
7FFE
7FFE
7C00
7C00
7C00
7C00
7C00
7C00
7C00
7C00
ENDCHAR
STARTCHAR uni0414
ENCODING 1044
SWIDTH 600 0
DWIDTH 10 0
BBX 10 13 0 -3
BITMAP
07FF00
0BFF00
0B5F00
0F5F00
0F1F00
1F1F00
2E1F00
3D1F00
BFFFD0
BFFFD0
B803D0
B803D0
B803D0
ENDCHAR
STARTCHAR uni0415
ENCODING 1045
SWIDTH 600 0
DWIDTH 10 0
BBX 8 10 1 0
BITMAP
BFFD
BFFD
BC00
BC00
BFF8
BFF8
BC00
BC00
BFFE
BFFE
ENDCHAR
STARTCHAR uni0416
ENCODING 1046
SWIDTH 600 0
DWIDTH 10 0
BBX 10 10 0 0
BITMAP
F4E2D0
B8E3D0
2DE740
1DEB00
1FFF00
1FFF00
2DEB40
3CE780
78E3C0
B4E2D0
ENDCHAR
STARTCHAR uni0417
ENCODING 1047
SWIDTH 600 0
DWIDTH 10 0
BBX 8 10 1 0
BITMAP
2FE4
BFFC
247D
007D
0BF8
0BFD
002E
642E
FFFD
2FE4
ENDCHAR
STARTCHAR uni0418
ENCODING 1048
SWIDTH 600 0
DWIDTH 10 0
BBX 8 10 1 0
BITMAP
F03E
F0BE
F0FE
F2EE
F3DE
F79E
FB2E
FE2E
FC2E
F82E
ENDCHAR
STARTCHAR uni0419
ENCODING 1049
SWIDTH 600 0
DWIDTH 10 0
BBX 8 13 1 0
BITMAP
3DB8
1BE0
0000
F03E
F0BE
F0FE
F2EE
F3DE
F79E
FB2E
FE2E
FC2E
F82E
ENDCHAR
STARTCHAR uni041A
ENCODING 1050
SWIDTH 600 0
DWIDTH 10 0
BBX 9 10 1 0
BITMAP
F41F00
F47F00
F4B800
F5F000
FFD000
FFE000
F5F400
F4BC00
F43E00
F41F40
ENDCHAR
STARTCHAR uni041B
ENCODING 1051
SWIDTH 600 0
DWIDTH 10 0
BBX 9 10 0 0
BITMAP
03FF80
07FF80
078B80
0B8B80
0B4B80
0F4B80
1F0B80
2E0B80
BD0B80
F80B80
ENDCHAR
STARTCHAR uni041C
ENCODING 1052
SWIDTH 600 0
DWIDTH 10 0
BBX 8 10 1 0
BITMAP
F83E
F87E
FCBE
EDAE
EADE
E7DE
F39E
F11E
F01E
F01E
ENDCHAR
STARTCHAR uni041D
ENCODING 1053
SWIDTH 600 0
DWIDTH 10 0
BBX 8 10 1 0
BITMAP
F42E
F42E
F42E
F42E
FFFE
FFFE
F42E
F42E
F42E
F42E
ENDCHAR
STARTCHAR uni041E
ENCODING 1054
SWIDTH 600 0
DWIDTH 10 0
BBX 9 10 0 0
BITMAP
06F800
1FFF00
3E1F80
7D0BC0
7C07C0
7C07C0
7D0B80
3E1F80
1FFF00
06F800
ENDCHAR
STARTCHAR uni041F
ENCODING 1055
SWIDTH 600 0
DWIDTH 10 0
BBX 8 10 1 0
BITMAP
FFFE
FFFE
F42E
F42E
F42E
F42E
F42E
F42E
F42E
F42E
ENDCHAR
STARTCHAR uni0420
ENCODING 1056
SWIDTH 600 0
DWIDTH 10 0
BBX 8 10 1 0
BITMAP
BFE4
BFFD
B82F
B81F
B82E
BFFD
BFE4
B800
B800
B800
ENDCHAR
STARTCHAR uni0421
ENCODING 1057
SWIDTH 600 0
DWIDTH 10 0
BBX 8 10 1 0
BITMAP
06F8
2FFE
BD08
F800
F400
F400
F800
BD09
3FFF
0BF8
ENDCHAR
STARTCHAR uni0422
ENCODING 1058
SWIDTH 600 0
DWIDTH 10 0
BBX 9 10 0 0
BITMAP
BFFFC0
BFFFC0
01F000
01F000
01F000
01F000
01F000
01F000
01F000
01F000
ENDCHAR
STARTCHAR uni0423
ENCODING 1059
SWIDTH 600 0
DWIDTH 10 0
BBX 9 10 0 0
BITMAP
7C07C0
3D0B80
1F0F40
0F5E00
07AD00
03FC00
01F800
01F000
1FE000
1F8000
ENDCHAR
STARTCHAR uni0424
ENCODING 1060
SWIDTH 600 0
DWIDTH 10 0
BBX 10 10 0 0
BITMAP
00E000
0BF900
3FFF80
B9E7C0
B4E2D0
B4E2D0
7DE7C0
3FFF80
0BF900
00E000
ENDCHAR
STARTCHAR uni0425
ENCODING 1061
SWIDTH 600 0
DWIDTH 10 0
BBX 9 10 0 0
BITMAP
7D0BC0
2F0F40
0F6E00
07FC00
03F800
03F800
0BBD00
1F2E00
2E0F40
7C0BC0
ENDCHAR
STARTCHAR uni0426
ENCODING 1062
SWIDTH 600 0
DWIDTH 10 0
BBX 9 13 1 -3
BITMAP
F43E00
F43E00
F43E00
F43E00
F43E00
F43E00
F43E00
F43E00
FFFF80
FFFF80
000780
000780
000780
ENDCHAR
STARTCHAR uni0427
ENCODING 1063
SWIDTH 600 0
DWIDTH 10 0
BBX 9 10 0 0
BITMAP
7C0B80
7C0B80
7C0B80
3E0B80
2FFF80
0BFF80
000B80
000B80
000B80
000B80
ENDCHAR
STARTCHAR uni0428
ENCODING 1064
SWIDTH 600 0
DWIDTH 10 0
BBX 9 10 0 0
BITMAP
B8E3C0
B8E3C0
B8E3C0
B8E3C0
B8E3C0
B8E3C0
B8E3C0
B8E3C0
BFFFC0
BFFFC0
ENDCHAR
STARTCHAR uni0429
ENCODING 1065
SWIDTH 600 0
DWIDTH 10 0
BBX 10 13 0 -3
BITMAP
B5E780
B5E780
B5E780
B5E780
B5E780
B5E780
B5E780
B5E780
BFFFE0
BFFFE0
0001E0
0001E0
0001E0
ENDCHAR
STARTCHAR uni042A
ENCODING 1066
SWIDTH 600 0
DWIDTH 10 0
BBX 9 10 0 0
BITMAP
BFC000
BFC000
07C000
07FD00
07FF80
07CBC0
07C3C0
07CBC0
07FF80
07FE00
ENDCHAR
STARTCHAR uni042B
ENCODING 1067
SWIDTH 600 0
DWIDTH 10 0
BBX 9 10 0 0
BITMAP
7803C0
7803C0
7803C0
7F83C0
7FE3C0
79F3C0
78F3C0
79F3C0
7FE3C0
7F83C0
ENDCHAR
STARTCHAR uni042C
ENCODING 1068
SWIDTH 600 0
DWIDTH 10 0
BBX 8 10 1 0
BITMAP
B800
B800
B800
BFE4
BFFD
B82F
B81F
B82F
BFFD
BFE4
ENDCHAR
STARTCHAR uni042D
ENCODING 1069
SWIDTH 600 0
DWIDTH 10 0
BBX 9 10 0 0
BITMAP
1BE400
3FFE00
142F40
000F80
07FF80
07FF80
000B80
242F40
7FFE00
1BE400
ENDCHAR
STARTCHAR uni042E
ENCODING 1070
SWIDTH 600 0
DWIDTH 10 0
BBX 10 10 0 0
BITMAP
B87E00
B8FF80
B9E7C0
BAD3D0
BFD3D0
BFD3D0
BAD3D0
B9E7C0
B8FF80
B87E00
ENDCHAR
STARTCHAR uni042F
ENCODING 1071
SWIDTH 600 0
DWIDTH 10 0
BBX 9 10 0 0
BITMAP
0BFF80
3FFF80
7D0F80
7D0F80
2FFF80
0BFF80
0B8F80
1F0F80
3E0F80
BC0F80
ENDCHAR
STARTCHAR uni0430
ENCODING 1072
SWIDTH 600 0
DWIDTH 10 0
BBX 8 8 1 0
BITMAP
1BE4
BFFC
247D
1AFE
BFFE
F87E
FFFE
6F5E
ENDCHAR
STARTCHAR uni0431
ENCODING 1073
SWIDTH 600 0
DWIDTH 10 0
BBX 8 11 1 0
BITMAP
016C
1FFD
7FA4
B800
FAE4
FFFD
F83E
F42E
B87D
7FFC
1BE0
ENDCHAR
STARTCHAR uni0432
ENCODING 1074
SWIDTH 600 0
DWIDTH 10 0
BBX 8 8 1 0
BITMAP
BFF4
BFFD
B83D
BFF8
BFFD
B82E
BFFE
BFF8
ENDCHAR
STARTCHAR uni0433
ENCODING 1075
SWIDTH 600 0
DWIDTH 10 0
BBX 7 8 2 0
BITMAP
FFF4
FFF4
F400
F400
F400
F400
F400
F400
ENDCHAR
STARTCHAR uni0434
ENCODING 1076
SWIDTH 600 0
DWIDTH 10 0
BBX 10 11 0 -3
BITMAP
0FFF00
0FFF00
1F1F00
1E1F00
2E1F00
2D1F00
BFFFD0
BFFFD0
B803D0
B803D0
B803C0
ENDCHAR
STARTCHAR uni0435
ENCODING 1077
SWIDTH 600 0
DWIDTH 10 0
BBX 8 8 1 0
BITMAP
1BE0
7FFC
B82D
FFFE
FFFE
F804
7FFD
1BE4
ENDCHAR
STARTCHAR uni0436
ENCODING 1078
SWIDTH 600 0
DWIDTH 10 0
BBX 10 8 0 0
BITMAP
B4E2D0
BCE7D0
2DEB40
1FFF00
1FFF00
3DE780
78E3C0
B4E2D0
ENDCHAR
STARTCHAR uni0437
ENCODING 1079
SWIDTH 600 0
DWIDTH 10 0
BBX 8 8 1 0
BITMAP
6FE4
FFFC
507D
0FF8
0FFD
503E
FFFD
6FE4
ENDCHAR
STARTCHAR uni0438
ENCODING 1080
SWIDTH 600 0
DWIDTH 10 0
BBX 8 8 1 0
BITMAP
B43D
B4BD
B5FD
B6ED
BB6D
BE2D
BD3D
B83D
ENDCHAR
STARTCHAR uni0439
ENCODING 1081
SWIDTH 600 0
DWIDTH 10 0
BBX 8 11 1 0
BITMAP
2D78
0BE0
0000
B43D
B4BD
B5FD
B6ED
BB6D
BE2D
BD3D
B83D
ENDCHAR
STARTCHAR uni043A
ENCODING 1082
SWIDTH 600 0
DWIDTH 10 0
BBX 8 8 1 0
BITMAP
B82E
B87E
B8F4
BFE0
BFF0
B8B8
B87D
B82F
ENDCHAR
STARTCHAR uni043B
ENCODING 1083
SWIDTH 600 0
DWIDTH 10 0
BBX 9 8 0 0
BITMAP
0BFF40
0BFF40
0F4F40
0F0F40
0F0F40
1E0F40
BD0F40
B80F40
ENDCHAR
STARTCHAR uni043C
ENCODING 1084
SWIDTH 600 0
DWIDTH 10 0
BBX 9 8 0 0
BITMAP
7D0FC0
7E1FC0
7F1FC0
7B6BC0
7BF7C0
79F3C0
78E3C0
7843C0
ENDCHAR
STARTCHAR uni043D
ENCODING 1085
SWIDTH 600 0
DWIDTH 10 0
BBX 8 8 1 0
BITMAP
F83D
F83D
F83D
FFFD
FFFD
F83D
F83D
F83D
ENDCHAR
STARTCHAR uni043E
ENCODING 1086
SWIDTH 600 0
DWIDTH 10 0
BBX 9 8 0 0
BITMAP
06F800
1FFF00
3E1F80
7D0B80
7D0B80
3E1F80
1FFF00
06F800
ENDCHAR
STARTCHAR uni043F
ENCODING 1087
SWIDTH 600 0
DWIDTH 10 0
BBX 8 8 1 0
BITMAP
FFFD
FFFD
F83D
F83D
F83D
F83D
F83D
F83D
ENDCHAR
STARTCHAR uni0440
ENCODING 1088
SWIDTH 600 0
DWIDTH 10 0
BBX 8 11 1 -3
BITMAP
F6F4
FFFD
FD3E
F82E
F82E
F87E
FFFC
FAE4
F400
F800
F800
ENDCHAR
STARTCHAR uni0441
ENCODING 1089
SWIDTH 600 0
DWIDTH 10 0
BBX 8 8 1 0
BITMAP
0BF8
3FFD
BD04
F800
F800
BD08
3FFE
0BF8
ENDCHAR
STARTCHAR uni0442
ENCODING 1090
SWIDTH 600 0
DWIDTH 10 0
BBX 9 8 0 0
BITMAP
7FFF80
7FFF80
01F000
01F000
01F000
01F000
01F000
01F000
ENDCHAR
STARTCHAR uni0443
ENCODING 1091
SWIDTH 600 0
DWIDTH 10 0
BBX 9 11 0 -3
BITMAP
7C07C0
3D0B80
1E0F00
0F5E00
0BAD00
03FC00
02F800
01F400
02E000
2FD000
2E4000
ENDCHAR
STARTCHAR uni0444
ENCODING 1092
SWIDTH 600 0
DWIDTH 10 0
BBX 10 14 0 -3
BITMAP
01E000
01E000
01E000
1EFF40
3FFF80
79E3C0
B4E2D0
B4E3D0
79E3C0
7FFF80
2FFE00
00E000
01E000
01E000
ENDCHAR
STARTCHAR uni0445
ENCODING 1093
SWIDTH 600 0
DWIDTH 10 0
BBX 8 8 1 0
BITMAP
F83E
7D7C
2EF4
0FE0
0FE0
2EF4
7CBC
F43E
ENDCHAR
STARTCHAR uni0446
ENCODING 1094
SWIDTH 600 0
DWIDTH 10 0
BBX 9 11 1 -3
BITMAP
F87C00
F87C00
F87C00
F87C00
F87C00
F87C00
FFFF40
FFFF40
000F40
000F40
000F40
ENDCHAR
STARTCHAR uni0447
ENCODING 1095
SWIDTH 600 0
DWIDTH 10 0
BBX 8 8 1 0
BITMAP
F43D
F43D
F83D
BFFD
2FFD
003D
003D
003D
ENDCHAR
STARTCHAR uni0448
ENCODING 1096
SWIDTH 600 0
DWIDTH 10 0
BBX 9 8 0 0
BITMAP
78E3C0
78E3C0
78E3C0
78E3C0
78E3C0
78E3C0
7FFFC0
7FFFC0
ENDCHAR
STARTCHAR uni0449
ENCODING 1097
SWIDTH 600 0
DWIDTH 10 0
BBX 10 11 0 -3
BITMAP
79E780
79E780
79E780
79E780
79E780
79E780
7FFFE0
7FFFE0
0001E0
0001E0
0001E0
ENDCHAR
STARTCHAR uni044A
ENCODING 1098
SWIDTH 600 0
DWIDTH 10 0
BBX 9 8 0 0
BITMAP
BFC000
BFC000
07FE00
07FF80
07C7C0
07C7C0
07FF80
07FE00
ENDCHAR
STARTCHAR uni044B
ENCODING 1099
SWIDTH 600 0
DWIDTH 10 0
BBX 9 8 0 0
BITMAP
7803C0
7803C0
7F93C0
7FF3C0
78F7C0
78F7C0
7FE3C0
7F93C0
ENDCHAR
STARTCHAR uni044C
ENCODING 1100
SWIDTH 600 0
DWIDTH 10 0
BBX 8 8 1 0
BITMAP
B800
B800
BFF4
BFFD
B82E
B82E
BFFD
BFF4
ENDCHAR
STARTCHAR uni044D
ENCODING 1101
SWIDTH 600 0
DWIDTH 10 0
BBX 8 8 1 0
BITMAP
6F90
BFF8
107D
0FFD
0FFD
507D
FFF8
6F90
ENDCHAR
STARTCHAR uni044E
ENCODING 1102
SWIDTH 600 0
DWIDTH 10 0
BBX 10 8 0 0
BITMAP
B86E00
B8FF80
B9E7C0
BFD3D0
BFD3D0
B9E7C0
B8FF80
B86E00
ENDCHAR
STARTCHAR uni044F
ENCODING 1103
SWIDTH 600 0
DWIDTH 10 0
BBX 8 8 1 0
BITMAP
2FFD
BFFD
F83D
BFFD
2FFD
3E3D
BC3D
F43D
ENDCHAR
STARTCHAR uni0450
ENCODING 1104
SWIDTH 600 0
DWIDTH 10 0
BBX 8 13 1 0
BITMAP
0900
2F00
0BC0
0280
0000
1BE0
7FFC
B82D
FFFE
FFFE
F804
7FFD
1BE4
ENDCHAR
STARTCHAR uni0451
ENCODING 1105
SWIDTH 600 0
DWIDTH 10 0
BBX 8 12 1 0
BITMAP
2C78
3D7C
2D78
0000
1BE0
7FFC
B82D
FFFE
FFFE
F804
7FFD
1BE4
ENDCHAR
STARTCHAR uni0452
ENCODING 1106
SWIDTH 600 0
DWIDTH 10 0
BBX 9 14 0 -3
BITMAP
3E0000
BFF400
FFF400
3D0000
3DBD00
3FFF40
3E1F80
3E0B80
3E0B80
3E0B80
3E0B80
001F40
00FF00
00F900
ENDCHAR
STARTCHAR uni0453
ENCODING 1107
SWIDTH 600 0
DWIDTH 10 0
BBX 7 13 2 0
BITMAP
0090
02F0
0BC0
0600
0000
FFF4
FFF4
F400
F400
F400
F400
F400
F400
ENDCHAR
STARTCHAR uni0454
ENCODING 1108
SWIDTH 600 0
DWIDTH 10 0
BBX 8 8 1 0
BITMAP
0AF8
3FFD
B904
FFE0
FFE0
B804
3FFE
0BF8
ENDCHAR
STARTCHAR uni0455
ENCODING 1109
SWIDTH 600 0
DWIDTH 10 0
BBX 8 8 1 0
BITMAP
1BE4
7FFD
BC14
7FE4
0AFD
643E
FFFD
2FE4
ENDCHAR
STARTCHAR uni0456
ENCODING 1110
SWIDTH 600 0
DWIDTH 10 0
BBX 6 12 1 0
BITMAP
02E0
03F0
02E0
0000
BFE0
BFE0
02E0
02E0
02E0
02E0
02E0
02E0
ENDCHAR
STARTCHAR uni0457
ENCODING 1111
SWIDTH 600 0
DWIDTH 10 0
BBX 8 12 1 0
BITMAP
1E2D
1F3E
1E2D
0000
BFE0
BFE0
02E0
02E0
02E0
02E0
02E0
02E0
ENDCHAR
STARTCHAR uni0458
ENCODING 1112
SWIDTH 600 0
DWIDTH 10 0
BBX 6 15 1 -3
BITMAP
02E0
03F0
02E0
0000
BFE0
BFE0
02E0
02E0
02E0
02E0
02E0
02E0
42E0
FFD0
BE40
ENDCHAR
STARTCHAR uni0459
ENCODING 1113
SWIDTH 600 0
DWIDTH 10 0
BBX 10 8 0 0
BITMAP
1FF000
2FF000
2DFE40
2DFFC0
3CF2D0
3CF2C0
F8FFC0
E0FE40
ENDCHAR
STARTCHAR uni045A
ENCODING 1114
SWIDTH 600 0
DWIDTH 10 0
BBX 9 8 0 0
BITMAP
78F000
78F000
7EFE40
7FFFC0
7EF3C0
78F3C0
78FFC0
78FE40
ENDCHAR
STARTCHAR uni045B
ENCODING 1115
SWIDTH 600 0
DWIDTH 10 0
BBX 9 11 0 0
BITMAP
3E0000
BFF400
FFF400
3D0000
3DBE00
3FFF40
3E0F80
3E0B80
3E0B80
3E0B80
3E0B80
ENDCHAR
STARTCHAR uni045C
ENCODING 1116
SWIDTH 600 0
DWIDTH 10 0
BBX 8 13 1 0
BITMAP
0060
00F8
02E0
0180
0000
B82E
B87E
B8F4
BFE0
BFF0
B8B8
B87D
B82F
ENDCHAR
STARTCHAR uni045D
ENCODING 1117
SWIDTH 600 0
DWIDTH 10 0
BBX 8 13 1 0
BITMAP
0900
1F40
0BC0
0180
0000
B43D
B4BD
B5FD
B6ED
BB6D
BE2D
BD3D
B83D
ENDCHAR
STARTCHAR uni045E
ENCODING 1118
SWIDTH 600 0
DWIDTH 10 0
BBX 9 14 0 -3
BITMAP
0B5E00
02F800
000000
7C07C0
3D0B80
1E0F00
0F5E00
0BAD00
03FC00
02F800
01F400
02E000
2FD000
2E4000
ENDCHAR
STARTCHAR uni045F
ENCODING 1119
SWIDTH 600 0
DWIDTH 10 0
BBX 8 11 1 -3
BITMAP
B83D
B83D
B83D
B83D
B83D
B83D
BFFD
BFFD
07D4
07C0
0780
ENDCHAR
STARTCHAR uni0462
ENCODING 1122
SWIDTH 600 0
DWIDTH 10 0
BBX 9 12 0 0
BITMAP
0F4000
0F4000
BFFF00
BFFF00
0F4000
0F4000
0FFE00
0FFF80
0F47C0
0F47C0
0FFF80
0FFE00
ENDCHAR
STARTCHAR uni0463
ENCODING 1123
SWIDTH 600 0
DWIDTH 10 0
BBX 9 9 0 0
BITMAP
07C000
7FFD00
7FFD00
07C000
07FE00
07FF80
07C7C0
07FF80
07FE00
ENDCHAR
STARTCHAR uni0472
ENCODING 1138
SWIDTH 600 0
DWIDTH 10 0
BBX 9 10 0 0
BITMAP
06F800
1FFF00
3E1F80
7C0BC0
7FFFC0
7FFFC0
7C0780
3E1F80
1FFF00
06F800
ENDCHAR
STARTCHAR uni0473
ENCODING 1139
SWIDTH 600 0
DWIDTH 10 0
BBX 9 8 0 0
BITMAP
06F800
1FFF00
3D0B80
7FFF80
7FFF80
3D0B80
1FFF00
06F800
ENDCHAR
STARTCHAR uni0474
ENCODING 1140
SWIDTH 600 0
DWIDTH 10 0
BBX 10 10 0 0
BITMAP
B802E0
7C0BE0
3D0F40
2E1F00
1E1E00
1F2D00
0F7C00
0BBC00
07F800
03F400
ENDCHAR
STARTCHAR uni0475
ENCODING 1141
SWIDTH 600 0
DWIDTH 10 0
BBX 10 8 0 0
BITMAP
7C06D0
3D0BC0
2E0F00
1F1E00
0B6D00
07BC00
03F800
02F400
ENDCHAR
STARTCHAR uni0490
ENCODING 1168
SWIDTH 600 0
DWIDTH 10 0
BBX 8 13 1 0
BITMAP
001E
002E
002E
7FFE
7FFD
7C00
7C00
7C00
7C00
7C00
7C00
7C00
7C00
ENDCHAR
STARTCHAR uni0491
ENCODING 1169
SWIDTH 600 0
DWIDTH 10 0
BBX 7 11 2 0
BITMAP
00B4
00B4
00B4
FFF4
FFF4
F400
F400
F400
F400
F400
F400
ENDCHAR
STARTCHAR uni0492
ENCODING 1170
SWIDTH 600 0
DWIDTH 10 0
BBX 9 10 0 0
BITMAP
0FFF80
0FFF80
0F4000
0F4000
7FF800
7FF800
0F4000
0F4000
0F4000
0F4000
ENDCHAR
STARTCHAR uni0493
ENCODING 1171
SWIDTH 600 0
DWIDTH 10 0
BBX 9 8 0 0
BITMAP
0FFF40
0FFF40
0F4000
0F4000
7FFC00
7FFC00
0F4000
0F4000
ENDCHAR
STARTCHAR uni0496
ENCODING 1174
SWIDTH 600 0
DWIDTH 10 0
BBX 10 13 0 -3
BITMAP
F4E2D0
B8E3D0
2DE740
1DEB00
1FFF00
1FFF00
2DEB40
3CE780
78E3E0
B4E2E0
0000E0
0000E0
0000E0
ENDCHAR
STARTCHAR uni0497
ENCODING 1175
SWIDTH 600 0
DWIDTH 10 0
BBX 10 11 0 -3
BITMAP
B4E2D0
BCE7D0
2DEB40
1FFF00
1FFF00
3DE780
78E3E0
B4E2E0
0000E0
0000E0
0000E0
ENDCHAR
STARTCHAR uni0498
ENCODING 1176
SWIDTH 600 0
DWIDTH 10 0
BBX 8 13 1 -3
BITMAP
2FE4
BFFC
247D
007D
0BF8
0BFD
002E
642E
FFFD
2FE4
07C0
07C0
07C0
ENDCHAR
STARTCHAR uni0499
ENCODING 1177
SWIDTH 600 0
DWIDTH 10 0
BBX 8 11 1 -3
BITMAP
6FE4
FFFC
507D
0FF8
0FFD
503E
FFFD
6FE4
0B80
0780
0780
ENDCHAR
STARTCHAR uni049A
ENCODING 1178
SWIDTH 600 0
DWIDTH 10 0
BBX 9 13 1 -3
BITMAP
F41F00
F47F00
F4B800
F5F000
FFD000
FFE000
F5F400
F4BC00
F43F80
F41F80
000780
000780
000780
ENDCHAR
STARTCHAR uni049B
ENCODING 1179
SWIDTH 600 0
DWIDTH 10 0
BBX 9 11 1 -3
BITMAP
B82E00
B87E00
B8F400
BFE000
BFF000
B8B800
B87F80
B82F40
000740
000740
000740
ENDCHAR
STARTCHAR uni04A0
ENCODING 1184
SWIDTH 600 0
DWIDTH 10 0
BBX 10 10 0 0
BITMAP
BFC2D0
BFC7C0
07CB40
07CE00
07FD00
07FE00
07CF00
07CB80
07C7C0
07C2D0
ENDCHAR
STARTCHAR uni04A1
ENCODING 1185
SWIDTH 600 0
DWIDTH 10 0
BBX 10 8 0 0
BITMAP
BFC6C0
BFCB80
07CE00
07FD00
07FE00
07CF00
07C780
07C3D0
ENDCHAR
STARTCHAR uni04A2
ENCODING 1186
SWIDTH 600 0
DWIDTH 10 0
BBX 9 13 1 -3
BITMAP
F43E00
F43E00
F43E00
F43E00
FFFE00
FFFE00
F43E00
F43E00
F43F80
F43F80
000780
000780
000780
ENDCHAR
STARTCHAR uni04A3
ENCODING 1187
SWIDTH 600 0
DWIDTH 10 0
BBX 9 11 1 -3
BITMAP
F87C00
F87C00
F87C00
FFFC00
FFFC00
F87C00
F87F40
F87F40
000F40
000F40
000F40
ENDCHAR
STARTCHAR uni04AA
ENCODING 1194
SWIDTH 600 0
DWIDTH 10 0
BBX 8 13 1 -3
BITMAP
06F8
2FFE
BD08
F800
F400
F400
F800
BD09
3FFF
0BF8
01F0
01E0
01E0
ENDCHAR
STARTCHAR uni04AB
ENCODING 1195
SWIDTH 600 0
DWIDTH 10 0
BBX 8 11 1 -3
BITMAP
07F8
3FFD
BD04
F800
F800
BD08
3FFE
0BF8
02E0
02E0
02D0
ENDCHAR
STARTCHAR uni04AE
ENCODING 1198
SWIDTH 600 0
DWIDTH 10 0
BBX 9 10 0 0
BITMAP
7C07C0
3D0B80
1F1F00
0F6E00
07BC00
03F800
01F000
01F000
01F000
01F000
ENDCHAR
STARTCHAR uni04AF
ENCODING 1199
SWIDTH 600 0
DWIDTH 10 0
BBX 9 11 0 -3
BITMAP
7C07C0
3D0B80
2E0F00
0F1E00
0B6D00
07BC00
03F800
02F400
01F000
01F000
01F000
ENDCHAR
STARTCHAR uni04B0
ENCODING 1200
SWIDTH 600 0
DWIDTH 10 0
BBX 9 10 0 0
BITMAP
7C07C0
3D0B40
1F1F00
0B6D00
07B800
2FFF40
2FFF40
01F000
01F000
01F000
ENDCHAR
STARTCHAR uni04B1
ENCODING 1201
SWIDTH 600 0
DWIDTH 10 0
BBX 9 11 0 -3
BITMAP
7C07C0
2D0B40
1E0F00
0F1E00
076C00
03B800
2FFF40
2FFF40
01F000
01F000
01F000
ENDCHAR
STARTCHAR uni04B2
ENCODING 1202
SWIDTH 600 0
DWIDTH 10 0
BBX 10 13 0 -3
BITMAP
7D0B80
2F0F40
0F6E00
07FC00
03F800
03F800
0BBD00
1F2E00
2E0FE0
7C0BE0
0001D0
0001D0
0001D0
ENDCHAR
STARTCHAR uni04B3
ENCODING 1203
SWIDTH 600 0
DWIDTH 10 0
BBX 9 11 1 -3
BITMAP
F83E00
7D7C00
2EF400
0FE000
0FE000
2EF400
7CBF40
F43F40
000F40
000F00
000F00
ENDCHAR
STARTCHAR uni04B6
ENCODING 1206
SWIDTH 600 0
DWIDTH 10 0
BBX 10 13 0 -3
BITMAP
7C0F40
7C0F40
7C0F40
7D0F40
2FFF40
0BFF40
000F40
000F40
000FE0
000FE0
0002E0
0002E0
0002D0
ENDCHAR
STARTCHAR uni04B7
ENCODING 1207
SWIDTH 600 0
DWIDTH 10 0
BBX 9 11 1 -3
BITMAP
F47C00
F47C00
F87C00
BFFC00
2FFC00
007C00
007F40
007F40
000F40
000F40
000F40
ENDCHAR
STARTCHAR uni04BA
ENCODING 1210
SWIDTH 600 0
DWIDTH 10 0
BBX 8 10 1 0
BITMAP
F400
F400
F400
FFE4
FFFD
F43E
F41E
F41F
F41F
F41F
ENDCHAR
STARTCHAR uni04BB
ENCODING 1211
SWIDTH 600 0
DWIDTH 10 0
BBX 8 11 1 0
BITMAP
F800
F800
F400
F6F8
FFFD
FD3E
F82E
F82E
F82E
F82E
F82E
ENDCHAR
STARTCHAR uni04C0
ENCODING 1216
SWIDTH 600 0
DWIDTH 10 0
BBX 8 10 1 0
BITMAP
BFFD
BFFD
07C0
07C0
07C0
07C0
07C0
07C0
BFFD
BFFD
ENDCHAR
STARTCHAR uni04C1
ENCODING 1217
SWIDTH 600 0
DWIDTH 10 0
BBX 10 13 0 0
BITMAP
0F2E00
06F800
000000
F4E2D0
B8E3D0
2DE740
1DEB00
1FFF00
1FFF00
2DEB40
3CE780
78E3C0
B4E2D0
ENDCHAR
STARTCHAR uni04C2
ENCODING 1218
SWIDTH 600 0
DWIDTH 10 0
BBX 10 11 0 0
BITMAP
0F1D00
06F800
000000
B4E2D0
BCE7D0
2DEB40
1FFF00
1FFF00
3DE780
78E3C0
B4E2D0
ENDCHAR
STARTCHAR uni04CF
ENCODING 1231
SWIDTH 600 0
DWIDTH 10 0
BBX 9 11 0 0
BITMAP
7FE000
7FE000
02E000
02E000
02E000
02E000
02E000
02E000
02F000
01FF40
007F40
ENDCHAR
STARTCHAR uni04D0
ENCODING 1232
SWIDTH 600 0
DWIDTH 10 0
BBX 10 13 0 0
BITMAP
0F2E00
06F800
000000
02F400
03F800
07BC00
0B6D00
0F2E00
1E1F00
2FFF40
3FFF80
7C0BC0
B807D0
ENDCHAR
STARTCHAR uni04D1
ENCODING 1233
SWIDTH 600 0
DWIDTH 10 0
BBX 8 11 1 0
BITMAP
2D38
0BE4
0000
1BE4
BFFC
247D
1AFE
BFFE
F87E
FFFE
6F5E
ENDCHAR
STARTCHAR uni04D4
ENCODING 1236
SWIDTH 600 0
DWIDTH 10 0
BBX 10 10 0 0
BITMAP
02FFD0
03FFD0
07BC00
0B7C00
0F3FC0
1E3FC0
2FFC00
7FFC00
BC3FE0
F83FE0
ENDCHAR
STARTCHAR uni04D5
ENCODING 1237
SWIDTH 600 0
DWIDTH 10 0
BBX 10 8 0 0
BITMAP
2F5F40
7FFFC0
1BF2D0
3FFFD0
B8FFD0
B8F440
BFFFC0
2E2F80
ENDCHAR
STARTCHAR uni04D6
ENCODING 1238
SWIDTH 600 0
DWIDTH 10 0
BBX 8 13 1 0
BITMAP
2E7C
0BE4
0000
BFFD
BFFD
BC00
BC00
BFF8
BFF8
BC00
BC00
BFFE
BFFE
ENDCHAR
STARTCHAR uni04D7
ENCODING 1239
SWIDTH 600 0
DWIDTH 10 0
BBX 8 11 1 0
BITMAP
2D78
0BE0
0000
1BE0
7FFC
B82D
FFFE
FFFE
F804
7FFD
1BE4
ENDCHAR
STARTCHAR uni04D8
ENCODING 1240
SWIDTH 600 0
DWIDTH 10 0
BBX 9 10 0 0
BITMAP
06F800
0FFF00
051F40
000B80
7FFFC0
3FFFC0
3D0B80
2E1F40
1FFF00
06F800
ENDCHAR
STARTCHAR uni04D9
ENCODING 1241
SWIDTH 600 0
DWIDTH 10 0
BBX 8 8 1 0
BITMAP
2FE0
7FFC
107D
FFFE
FFFE
F47D
7FF8
1FE0
ENDCHAR
STARTCHAR uni04E2
ENCODING 1250
SWIDTH 600 0
DWIDTH 10 0
BBX 8 13 1 0
BITMAP
2FF4
2FF4
0000
F03E
F0BE
F0FE
F2EE
F3DE
F79E
FB2E
FE2E
FC2E
F82E
ENDCHAR
STARTCHAR uni04E3
ENCODING 1251
SWIDTH 600 0
DWIDTH 10 0
BBX 8 11 1 0
BITMAP
1FF4
0000
0000
B43D
B4BD
B5FD
B6ED
BB6D
BE2D
BD3D
B83D
ENDCHAR
STARTCHAR uni04E6
ENCODING 1254
SWIDTH 600 0
DWIDTH 10 0
BBX 9 13 0 0
BITMAP
0F1E00
0F1E00
000000
06F800
1FFF00
3E1F80
7D0BC0
7C07C0
7C07C0
7D0B80
3E1F80
1FFF00
06F800
ENDCHAR
STARTCHAR uni04E7
ENCODING 1255
SWIDTH 600 0
DWIDTH 10 0
BBX 9 12 0 0
BITMAP
0A1D00
1F6E00
0B1D00
000000
06F800
1FFF00
3E1F80
7D0B80
7D0B80
3E1F80
1FFF00
06F800
ENDCHAR
STARTCHAR uni04E8
ENCODING 1256
SWIDTH 600 0
DWIDTH 10 0
BBX 9 10 0 0
BITMAP
06F800
1FFF00
3E1F80
7C0BC0
7FFFC0
7FFFC0
7C0780
3E1F80
1FFF00
06F800
ENDCHAR
STARTCHAR uni04E9
ENCODING 1257
SWIDTH 600 0
DWIDTH 10 0
BBX 9 8 0 0
BITMAP
06F800
1FFF00
3D0B80
7FFF80
7FFF80
3D0B80
1FFF00
06F800
ENDCHAR
STARTCHAR uni04EE
ENCODING 1262
SWIDTH 600 0
DWIDTH 10 0
BBX 9 13 0 0
BITMAP
07FD00
07FD00
000000
7C07C0
3D0B80
1F0F40
0F5E00
07AD00
03FC00
01F800
01F000
1FE000
1F8000
ENDCHAR
STARTCHAR uni04EF
ENCODING 1263
SWIDTH 600 0
DWIDTH 10 0
BBX 9 14 0 -3
BITMAP
07FD00
000000
000000
7C07C0
3D0B80
1E0F00
0F5E00
0BAD00
03FC00
02F800
01F400
02E000
2FD000
2E4000
ENDCHAR
STARTCHAR uni04F2
ENCODING 1266
SWIDTH 600 0
DWIDTH 10 0
BBX 9 14 0 0
BITMAP
009240
02DB40
024900
000000
7C07C0
3D0B80
1F0F40
0F5E00
07AD00
03FC00
01F800
01F000
1FE000
1F8000
ENDCHAR
STARTCHAR uni04F3
ENCODING 1267
SWIDTH 600 0
DWIDTH 10 0
BBX 9 15 0 -3
BITMAP
00D740
02DB00
024900
000000
7C07C0
3D0B80
1E0F00
0F5E00
0BAD00
03FC00
02F800
01F400
02E000
2FD000
2E4000
ENDCHAR
STARTCHAR a.sups
ENCODING 7491
SWIDTH 600 0
DWIDTH 10 0
BBX 6 5 2 6
BITMAP
2F80
7FD0
3FD0
BFD0
7DD0
ENDCHAR
STARTCHAR b.sups
ENCODING 7495
SWIDTH 600 0
DWIDTH 10 0
BBX 6 7 2 6
BITMAP
6000
B000
BB80
BFD0
B5E0
BFD0
BB80
ENDCHAR
STARTCHAR d.sups
ENCODING 7496
SWIDTH 600 0
DWIDTH 10 0
BBX 6 7 2 6
BITMAP
0190
01D0
2ED0
BFD0
F1D0
BFD0
6DD0
ENDCHAR
STARTCHAR e.sups
ENCODING 7497
SWIDTH 600 0
DWIDTH 10 0
BBX 6 5 2 6
BITMAP
2F40
BFC0
BFD0
BFD0
2F80
ENDCHAR
STARTCHAR g.sups
ENCODING 7501
SWIDTH 600 0
DWIDTH 10 0
BBX 6 9 2 3
BITMAP
02E0
6FE0
7F80
3F40
6000
7FD0
7FE0
BFE0
7F80
ENDCHAR
STARTCHAR k.sups
ENCODING 7503
SWIDTH 600 0
DWIDTH 10 0
BBX 6 9 2 5
BITMAP
1000
7400
7400
75D0
7B80
7F00
7B80
75D0
1050
ENDCHAR
STARTCHAR m.sups
ENCODING 7504
SWIDTH 600 0
DWIDTH 10 0
BBX 9 6 0 5
BITMAP
778B00
7FFF80
79E380
74E380
74E380
74E380
ENDCHAR
STARTCHAR o.sups
ENCODING 7506
SWIDTH 600 0
DWIDTH 10 0
BBX 6 5 2 6
BITMAP
2F40
BFD0
B1D0
BFD0
2F40
ENDCHAR
STARTCHAR p.sups
ENCODING 7510
SWIDTH 600 0
DWIDTH 10 0
BBX 6 7 2 4
BITMAP
BB80
BFD0
B5E0
B5E0
BFD0
BB80
B000
ENDCHAR
STARTCHAR t.sups
ENCODING 7511
SWIDTH 600 0
DWIDTH 10 0
BBX 6 7 2 6
BITMAP
1800
3D90
BFD0
2D00
1D00
1FD0
0BD0
ENDCHAR
STARTCHAR u.sups
ENCODING 7512
SWIDTH 600 0
DWIDTH 10 0
BBX 6 5 2 6
BITMAP
B1D0
B1D0
B1D0
BFD0
7DD0
ENDCHAR
STARTCHAR v.sups
ENCODING 7515
SWIDTH 600 0
DWIDTH 10 0
BBX 6 5 2 6
BITMAP
E1D0
B2C0
7B80
2F40
1F00
ENDCHAR
STARTCHAR c.sups
ENCODING 7580
SWIDTH 600 0
DWIDTH 10 0
BBX 6 5 2 6
BITMAP
1B80
3FC0
7840
3FD0
1B80
ENDCHAR
STARTCHAR f.sups
ENCODING 7584
SWIDTH 600 0
DWIDTH 10 0
BBX 5 8 3 6
BITMAP
1F80
2FC0
7D80
FF80
3800
3800
3800
3800
ENDCHAR
STARTCHAR z.sups
ENCODING 7611
SWIDTH 600 0
DWIDTH 10 0
BBX 6 6 2 6
BITMAP
7FD0
7F80
0700
1D00
3FD0
BFD0
ENDCHAR
STARTCHAR uni1E06
ENCODING 7686
SWIDTH 600 0
DWIDTH 10 0
BBX 8 12 1 -2
BITMAP
BFE4
BFFD
B83D
B87D
BFF4
BFFD
B82F
B82F
BFFE
BFE4
0000
1FF4
ENDCHAR
STARTCHAR uni1E07
ENCODING 7687
SWIDTH 600 0
DWIDTH 10 0
BBX 8 13 1 -2
BITMAP
F800
F800
F400
FAF4
FFFD
F83E
F82E
F82E
FC7E
FFFC
F6E4
0000
1FF4
ENDCHAR
STARTCHAR uni1E0C
ENCODING 7692
SWIDTH 600 0
DWIDTH 10 0
BBX 8 14 1 -4
BITMAP
FFA0
FFF8
F47E
F42F
F41F
F41F
F42F
F47E
FFF8
FFE0
0000
0780
0BD0
0780
ENDCHAR
STARTCHAR uni1E0D
ENCODING 7693
SWIDTH 600 0
DWIDTH 10 0
BBX 9 15 0 -4
BITMAP
000F40
000F40
000F40
07EF40
1FFF40
3E1F40
7D0F40
7D0F40
3E1F40
2FFF40
0BEB40
000000
01F000
02F400
01F000
ENDCHAR
STARTCHAR uni1E0E
ENCODING 7694
SWIDTH 600 0
DWIDTH 10 0
BBX 8 12 1 -2
BITMAP
FFA0
FFF8
F47E
F42F
F41F
F41F
F42F
F47E
FFF8
FFE0
0000
2FF0
ENDCHAR
STARTCHAR uni1E0F
ENCODING 7695
SWIDTH 600 0
DWIDTH 10 0
BBX 9 13 0 -2
BITMAP
000F40
000F40
000F40
07EF40
1FFF40
3E1F40
7D0F40
7D0F40
3E1F40
2FFF40
0BEB40
000000
07FD00
ENDCHAR
STARTCHAR uni1E10
ENCODING 7696
SWIDTH 600 0
DWIDTH 10 0
BBX 8 14 1 -4
BITMAP
FFA0
FFF8
F47E
F42F
F41F
F41F
F42F
F47E
FFF8
FFE0
0700
0B80
02C0
1E40
ENDCHAR
STARTCHAR uni1E11
ENCODING 7697
SWIDTH 600 0
DWIDTH 10 0
BBX 9 15 0 -4
BITMAP
000F40
000F40
000F40
07EF40
1FFF40
3E1F40
7D0F40
7D0F40
3E1F40
2FFF40
0BEB40
01C000
02E000
00F000
079000
ENDCHAR
STARTCHAR uni1E16
ENCODING 7702
SWIDTH 600 0
DWIDTH 10 0
BBX 8 17 1 0
BITMAP
0060
02F0
0280
0000
1FF8
1FF8
0000
BFFD
BFFD
BC00
BC00
BFF8
BFF8
BC00
BC00
BFFE
BFFE
ENDCHAR
STARTCHAR uni1E17
ENCODING 7703
SWIDTH 600 0
DWIDTH 10 0
BBX 8 15 1 0
BITMAP
0090
02E0
0240
0000
1FF4
0000
0000
1BE0
7FFC
B82D
FFFE
FFFE
F804
7FFD
1BE4
ENDCHAR
STARTCHAR uni1E20
ENCODING 7712
SWIDTH 600 0
DWIDTH 10 0
BBX 9 13 0 0
BITMAP
03FE00
03FE00
000000
02FD00
0FFF40
2F4500
3D0000
7D3F80
7D3F80
3D0780
2F4780
1FFF80
02FE00
ENDCHAR
STARTCHAR uni1E21
ENCODING 7713
SWIDTH 600 0
DWIDTH 10 0
BBX 8 14 1 -3
BITMAP
2FF4
0000
0000
1FFF
7FFF
B878
BEF8
3FF4
7540
BFF9
7FFF
F01F
FFFE
6FE4
ENDCHAR
STARTCHAR uni1E24
ENCODING 7716
SWIDTH 600 0
DWIDTH 10 0
BBX 8 14 1 -4
BITMAP
F42E
F42E
F42E
F42E
FFFE
FFFE
F42E
F42E
F42E
F42E
0000
0780
0BD0
0780
ENDCHAR
STARTCHAR uni1E25
ENCODING 7717
SWIDTH 600 0
DWIDTH 10 0
BBX 8 15 1 -4
BITMAP
F800
F800
F400
F6F8
FFFD
FD3E
F82E
F82E
F82E
F82E
F82E
0000
07C0
0BD0
07C0
ENDCHAR
STARTCHAR uni1E26
ENCODING 7718
SWIDTH 600 0
DWIDTH 10 0
BBX 8 13 1 0
BITMAP
3C78
3C78
0000
F42E
F42E
F42E
F42E
FFFE
FFFE
F42E
F42E
F42E
F42E
ENDCHAR
STARTCHAR uni1E27
ENCODING 7719
SWIDTH 600 0
DWIDTH 10 0
BBX 10 14 -1 0
BITMAP
74B000
74B000
000000
0F8000
0F8000
0F4000
0F6F80
0FFFD0
0FD3E0
0F82E0
0F82E0
0F82E0
0F82E0
0F82E0
ENDCHAR
STARTCHAR uni1E28
ENCODING 7720
SWIDTH 600 0
DWIDTH 10 0
BBX 9 14 0 -4
BITMAP
3D0B80
3D0B80
3D0B80
3D0B80
3FFF80
3FFF80
3D0B80
3D0B80
3D0B80
3D0B80
280000
3D0000
1E0000
780000
ENDCHAR
STARTCHAR uni1E29
ENCODING 7721
SWIDTH 600 0
DWIDTH 10 0
BBX 9 15 0 -4
BITMAP
3E0000
3E0000
3D0000
3DBE00
3FFF40
3F4F80
3E0B80
3E0B80
3E0B80
3E0B80
3E0B80
1C0000
3E0000
1E0000
790000
ENDCHAR
STARTCHAR uni1E2A
ENCODING 7722
SWIDTH 600 0
DWIDTH 10 0
BBX 8 14 1 -4
BITMAP
F42E
F42E
F42E
F42E
FFFE
FFFE
F42E
F42E
F42E
F42E
0000
0000
2874
1BE0
ENDCHAR
STARTCHAR uni1E2B
ENCODING 7723
SWIDTH 600 0
DWIDTH 10 0
BBX 8 15 1 -4
BITMAP
F800
F800
F400
F6F8
FFFD
FD3E
F82E
F82E
F82E
F82E
F82E
0000
0000
2C74
0BE0
ENDCHAR
STARTCHAR uni1E32
ENCODING 7730
SWIDTH 600 0
DWIDTH 10 0
BBX 9 14 1 -4
BITMAP
F42E00
F4BC00
F5F400
FBD000
FFD000
FFF000
FDF800
F47C00
F43E00
F41F40
000000
02D000
07E000
02D000
ENDCHAR
STARTCHAR uni1E33
ENCODING 7731
SWIDTH 600 0
DWIDTH 10 0
BBX 8 15 1 -4
BITMAP
B800
B800
B800
B82E
B8B8
BAE0
BFD0
BFF0
BDB8
B87D
B82F
0000
02D0
07E0
02D0
ENDCHAR
STARTCHAR uni1E34
ENCODING 7732
SWIDTH 600 0
DWIDTH 10 0
BBX 9 12 1 -2
BITMAP
F42E00
F4BC00
F5F400
FBD000
FFD000
FFF000
FDF800
F47C00
F43E00
F41F40
000000
0FF800
ENDCHAR
STARTCHAR uni1E35
ENCODING 7733
SWIDTH 600 0
DWIDTH 10 0
BBX 8 13 1 -2
BITMAP
B800
B800
B800
B82E
B8B8
BAE0
BFD0
BFF0
BDB8
B87D
B82F
0000
1FF8
ENDCHAR
STARTCHAR uni1E36
ENCODING 7734
SWIDTH 600 0
DWIDTH 10 0
BBX 8 14 1 -4
BITMAP
7C00
7C00
7C00
7C00
7C00
7C00
7C00
7C00
7FFE
7FFE
0000
02D0
03F0
02D0
ENDCHAR
STARTCHAR uni1E37
ENCODING 7735
SWIDTH 600 0
DWIDTH 10 0
BBX 9 15 0 -4
BITMAP
7FE000
7FE000
02E000
02E000
02E000
02E000
02E000
02E000
02F000
01FF40
007F40
000000
007C00
00BD00
007C00
ENDCHAR
STARTCHAR uni1E38
ENCODING 7736
SWIDTH 600 0
DWIDTH 10 0
BBX 9 17 0 -4
BITMAP
7FE000
7FE000
000000
1F0000
1F0000
1F0000
1F0000
1F0000
1F0000
1F0000
1F0000
1FFF80
1FFF80
000000
00B400
00FC00
00B400
ENDCHAR
STARTCHAR uni1E39
ENCODING 7737
SWIDTH 600 0
DWIDTH 10 0
BBX 9 18 0 -4
BITMAP
0FF800
0FF800
000000
7FE000
7FE000
02E000
02E000
02E000
02E000
02E000
02E000
02F000
01FF40
007F40
000000
007C00
00BD00
007C00
ENDCHAR
STARTCHAR uni1E3A
ENCODING 7738
SWIDTH 600 0
DWIDTH 10 0
BBX 8 12 1 -2
BITMAP
7C00
7C00
7C00
7C00
7C00
7C00
7C00
7C00
7FFE
7FFE
0000
0FF8
ENDCHAR
STARTCHAR uni1E3B
ENCODING 7739
SWIDTH 600 0
DWIDTH 10 0
BBX 9 13 0 -2
BITMAP
7FE000
7FE000
02E000
02E000
02E000
02E000
02E000
02E000
02F000
01FF40
007F40
000000
01FF40
ENDCHAR
STARTCHAR uni1E3E
ENCODING 7742
SWIDTH 600 0
DWIDTH 10 0
BBX 8 14 1 0
BITMAP
0090
07E0
0640
0000
F83E
F87E
FCBE
EDAE
EADE
E7DE
F39E
F11E
F01E
F01E
ENDCHAR
STARTCHAR uni1E3F
ENCODING 7743
SWIDTH 600 0
DWIDTH 10 0
BBX 10 13 0 0
BITMAP
000800
003E00
00B800
006000
000000
76DB40
7FFFC0
7DF7D0
78E3D0
78E3D0
78E3D0
78E3D0
78E3D0
ENDCHAR
STARTCHAR uni1E40
ENCODING 7744
SWIDTH 600 0
DWIDTH 10 0
BBX 8 14 1 0
BITMAP
0780
0BD0
0780
0000
F83E
F87E
FCBE
EDAE
EADE
E7DE
F39E
F11E
F01E
F01E
ENDCHAR
STARTCHAR uni1E41
ENCODING 7745
SWIDTH 600 0
DWIDTH 10 0
BBX 10 12 0 0
BITMAP
00B400
01F800
00F400
000000
76DB40
7FFFC0
7DF7D0
78E3D0
78E3D0
78E3D0
78E3D0
78E3D0
ENDCHAR
STARTCHAR uni1E42
ENCODING 7746
SWIDTH 600 0
DWIDTH 10 0
BBX 8 14 1 -4
BITMAP
F83E
F87E
FCBE
EDAE
EADE
E7DE
F39E
F11E
F01E
F01E
0000
0780
0BD0
0780
ENDCHAR
STARTCHAR uni1E43
ENCODING 7747
SWIDTH 600 0
DWIDTH 10 0
BBX 10 12 0 -4
BITMAP
76DB40
7FFFC0
7DF7D0
78E3D0
78E3D0
78E3D0
78E3D0
78E3D0
000000
01E000
02F400
01E000
ENDCHAR
STARTCHAR uni1E44
ENCODING 7748
SWIDTH 600 0
DWIDTH 10 0
BBX 8 14 1 0
BITMAP
03C0
07D0
03C0
0000
F82E
FC2E
FE2E
FB2E
F76E
F7EE
F5EE
F4FE
F4BE
F43E
ENDCHAR
STARTCHAR uni1E45
ENCODING 7749
SWIDTH 600 0
DWIDTH 10 0
BBX 8 12 1 0
BITMAP
03D0
07E0
07D0
0000
F6F8
FFFD
FD3E
F82E
F82E
F82E
F82E
F82E
ENDCHAR
STARTCHAR uni1E46
ENCODING 7750
SWIDTH 600 0
DWIDTH 10 0
BBX 8 14 1 -4
BITMAP
F82E
FC2E
FE2E
FB2E
F76E
F7EE
F5EE
F4FE
F4BE
F43E
0000
0780
0BD0
0780
ENDCHAR
STARTCHAR uni1E47
ENCODING 7751
SWIDTH 600 0
DWIDTH 10 0
BBX 8 12 1 -4
BITMAP
F6F8
FFFD
FD3E
F82E
F82E
F82E
F82E
F82E
0000
07C0
0BD0
07C0
ENDCHAR
STARTCHAR uni1E48
ENCODING 7752
SWIDTH 600 0
DWIDTH 10 0
BBX 8 12 1 -2
BITMAP
F82E
FC2E
FE2E
FB2E
F76E
F7EE
F5EE
F4FE
F4BE
F43E
0000
2FF4
ENDCHAR
STARTCHAR uni1E49
ENCODING 7753
SWIDTH 600 0
DWIDTH 10 0
BBX 8 10 1 -2
BITMAP
F6F8
FFFD
FD3E
F82E
F82E
F82E
F82E
F82E
0000
1FF4
ENDCHAR
STARTCHAR uni1E52
ENCODING 7762
SWIDTH 600 0
DWIDTH 10 0
BBX 9 17 0 0
BITMAP
002400
00F800
009000
000000
0BFD00
0BFD00
000000
06F800
1FFF00
3E1F80
7D0BC0
7C07C0
7C07C0
7D0B80
3E1F80
1FFF00
06F800
ENDCHAR
STARTCHAR uni1E53
ENCODING 7763
SWIDTH 600 0
DWIDTH 10 0
BBX 9 15 0 0
BITMAP
002400
00B400
009000
000000
0BFD00
000000
000000
06F800
1FFF00
3E1F80
7D0B80
7D0B80
3E1F80
1FFF00
06F800
ENDCHAR
STARTCHAR uni1E58
ENCODING 7768
SWIDTH 600 0
DWIDTH 10 0
BBX 8 14 1 0
BITMAP
0780
0BD0
0780
0000
FFE4
FFFD
F42E
F42E
FFFD
FFF4
F4F4
F4BC
F43E
F42F
ENDCHAR
STARTCHAR uni1E59
ENCODING 7769
SWIDTH 600 0
DWIDTH 10 0
BBX 7 12 2 0
BITMAP
0B80
0FC0
0B80
0000
F2F8
FBF4
FD00
F400
F400
F400
F400
F400
ENDCHAR
STARTCHAR uni1E5A
ENCODING 7770
SWIDTH 600 0
DWIDTH 10 0
BBX 8 14 1 -4
BITMAP
FFE4
FFFD
F42E
F42E
FFFD
FFF4
F4F4
F4BC
F43E
F42F
0000
03D0
07E0
03D0
ENDCHAR
STARTCHAR uni1E5B
ENCODING 7771
SWIDTH 600 0
DWIDTH 10 0
BBX 8 12 1 -4
BITMAP
3CBE
3EFD
3F40
3D00
3D00
3D00
3D00
3D00
0000
2D00
7E00
3D00
ENDCHAR
STARTCHAR uni1E5C
ENCODING 7772
SWIDTH 600 0
DWIDTH 10 0
BBX 8 17 1 -4
BITMAP
2FF4
2FF4
0000
FFE4
FFFD
F42E
F42E
FFFD
FFF4
F4F4
F4BC
F43E
F42F
0000
03D0
07E0
03D0
ENDCHAR
STARTCHAR uni1E5D
ENCODING 7773
SWIDTH 600 0
DWIDTH 10 0
BBX 8 15 1 -4
BITMAP
0BFC
0000
0000
3CBE
3EFD
3F40
3D00
3D00
3D00
3D00
3D00
0000
2D00
7E00
3D00
ENDCHAR
STARTCHAR uni1E5E
ENCODING 7774
SWIDTH 600 0
DWIDTH 10 0
BBX 8 12 1 -2
BITMAP
FFE4
FFFD
F42E
F42E
FFFD
FFF4
F4F4
F4BC
F43E
F42F
0000
1FF4
ENDCHAR
STARTCHAR uni1E5F
ENCODING 7775
SWIDTH 600 0
DWIDTH 10 0
BBX 9 10 0 -2
BITMAP
0F2F80
0FBF40
0FD000
0F4000
0F4000
0F4000
0F4000
0F4000
000000
7FE000
ENDCHAR
STARTCHAR uni1E60
ENCODING 7776
SWIDTH 600 0
DWIDTH 10 0
BBX 8 14 1 0
BITMAP
02D0
07D0
03D0
0000
1BE4
7FFD
B818
BD00
7FE4
0BFD
007E
742E
FFFD
2FE4
ENDCHAR
STARTCHAR uni1E61
ENCODING 7777
SWIDTH 600 0
DWIDTH 10 0
BBX 8 12 1 0
BITMAP
07D0
0BE0
07D0
0000
1BE4
7FFD
BC14
7FE4
0AFD
643E
FFFD
2FE4
ENDCHAR
STARTCHAR uni1E62
ENCODING 7778
SWIDTH 600 0
DWIDTH 10 0
BBX 8 14 1 -4
BITMAP
1BE4
7FFD
B818
BD00
7FE4
0BFD
007E
742E
FFFD
2FE4
0000
0780
0BD0
07C0
ENDCHAR
STARTCHAR uni1E63
ENCODING 7779
SWIDTH 600 0
DWIDTH 10 0
BBX 8 12 1 -4
BITMAP
1BE4
7FFD
BC14
7FE4
0AFD
643E
FFFD
2FE4
0000
07C0
0BD0
07C0
ENDCHAR
STARTCHAR uni1E6C
ENCODING 7788
SWIDTH 600 0
DWIDTH 10 0
BBX 9 14 0 -4
BITMAP
BFFFC0
BFFFC0
01F000
01F000
01F000
01F000
01F000
01F000
01F000
01F000
000000
01E000
02F400
01E000
ENDCHAR
STARTCHAR uni1E6D
ENCODING 7789
SWIDTH 600 0
DWIDTH 10 0
BBX 9 14 0 -4
BITMAP
03C000
03C000
7FFF80
7FFF80
07C000
07C000
07C000
03E000
02FF80
00BF40
000000
007C00
00BD00
007C00
ENDCHAR
STARTCHAR uni1E6E
ENCODING 7790
SWIDTH 600 0
DWIDTH 10 0
BBX 9 12 0 -2
BITMAP
BFFFC0
BFFFC0
01F000
01F000
01F000
01F000
01F000
01F000
01F000
01F000
000000
0BFD00
ENDCHAR
STARTCHAR uni1E6F
ENCODING 7791
SWIDTH 600 0
DWIDTH 10 0
BBX 9 12 0 -2
BITMAP
03C000
03C000
7FFF80
7FFF80
07C000
07C000
07C000
03E000
02FF80
00BF40
000000
01FF40
ENDCHAR
STARTCHAR uni1E7E
ENCODING 7806
SWIDTH 600 0
DWIDTH 10 0
BBX 10 14 0 -4
BITMAP
BC07D0
7C07C0
3D0B80
2E0F40
1F1F00
0F5E00
0B6D00
07BC00
03F800
02F400
000000
01E000
02F400
01E000
ENDCHAR
STARTCHAR uni1E7F
ENCODING 7807
SWIDTH 600 0
DWIDTH 10 0
BBX 9 12 0 -4
BITMAP
7C07C0
3D0B80
2E0F40
1F1E00
0B6D00
07BC00
03F800
02F400
000000
01E000
02F400
01E000
ENDCHAR
STARTCHAR Wgrave
ENCODING 7808
SWIDTH 600 0
DWIDTH 10 0
BBX 10 14 0 0
BITMAP
024000
07E000
006000
000000
F802D0
B803D0
B853D0
78F3C0
79F3C0
7AF780
3EBB80
3F6F80
2F6F40
2F1F40
ENDCHAR
STARTCHAR wgrave
ENCODING 7809
SWIDTH 600 0
DWIDTH 10 0
BBX 10 13 0 0
BITMAP
020000
0B8000
02E000
009000
000000
F402D0
B8E2D0
B9F3C0
79F7C0
7EBBC0
3E7B80
3F6F80
2F2F40
ENDCHAR
STARTCHAR Wacute
ENCODING 7810
SWIDTH 600 0
DWIDTH 10 0
BBX 10 14 0 0
BITMAP
002400
01F800
019000
000000
F802D0
B803D0
B853D0
78F3C0
79F3C0
7AF780
3EBB80
3F6F80
2F6F40
2F1F40
ENDCHAR
STARTCHAR wacute
ENCODING 7811
SWIDTH 600 0
DWIDTH 10 0
BBX 10 13 0 0
BITMAP
001800
007D00
01F400
009000
000000
F402D0
B8E2D0
B9F3C0
79F7C0
7EBBC0
3E7B80
3F6F80
2F2F40
ENDCHAR
STARTCHAR Wdieresis
ENCODING 7812
SWIDTH 600 0
DWIDTH 10 0
BBX 10 13 0 0
BITMAP
0F1E00
0F1E00
000000
F802D0
B803D0
B853D0
78F3C0
79F3C0
7AF780
3EBB80
3F6F80
2F6F40
2F1F40
ENDCHAR
STARTCHAR wdieresis
ENCODING 7813
SWIDTH 600 0
DWIDTH 10 0
BBX 10 12 0 0
BITMAP
0A1D00
1F6E00
0B1D00
000000
F402D0
B8E2D0
B9F3C0
79F7C0
7EBBC0
3E7B80
3F6F80
2F2F40
ENDCHAR
STARTCHAR uni1E8E
ENCODING 7822
SWIDTH 600 0
DWIDTH 10 0
BBX 9 14 0 0
BITMAP
01E000
02F400
01E000
000000
7C07C0
3D0B80
1F1F00
0F6E00
07BC00
03F800
01F000
01F000
01F000
01F000
ENDCHAR
STARTCHAR uni1E8F
ENCODING 7823
SWIDTH 600 0
DWIDTH 10 0
BBX 9 15 0 -3
BITMAP
01F000
02F400
01F000
000000
7C07C0
3D0B80
1E0F00
0F5E00
0BAD00
03FC00
02F800
01F400
02E000
2FD000
2E4000
ENDCHAR
STARTCHAR uni1E90
ENCODING 7824
SWIDTH 600 0
DWIDTH 10 0
BBX 8 13 1 0
BITMAP
0BE0
1D24
0000
BFFE
BFFE
00BC
01F4
03D0
0B80
2F00
7D00
FFFE
FFFE
ENDCHAR
STARTCHAR uni1E91
ENCODING 7825
SWIDTH 600 0
DWIDTH 10 0
BBX 8 12 1 0
BITMAP
07E0
1FB8
1818
0000
7FFE
7FFD
01F8
03E0
0F80
3E00
BFFE
FFFE
ENDCHAR
STARTCHAR uni1E92
ENCODING 7826
SWIDTH 600 0
DWIDTH 10 0
BBX 8 14 1 -4
BITMAP
BFFE
BFFE
00BC
01F4
03D0
0B80
2F00
7D00
FFFE
FFFE
0000
07C0
0BD0
07D0
ENDCHAR
STARTCHAR uni1E93
ENCODING 7827
SWIDTH 600 0
DWIDTH 10 0
BBX 8 12 1 -4
BITMAP
7FFE
7FFD
01F8
03E0
0F80
3E00
BFFE
FFFE
0000
07D0
0BD0
07D0
ENDCHAR
STARTCHAR uni1E94
ENCODING 7828
SWIDTH 600 0
DWIDTH 10 0
BBX 8 12 1 -2
BITMAP
BFFE
BFFE
00BC
01F4
03D0
0B80
2F00
7D00
FFFE
FFFE
0000
1FF4
ENDCHAR
STARTCHAR uni1E95
ENCODING 7829
SWIDTH 600 0
DWIDTH 10 0
BBX 8 10 1 -2
BITMAP
7FFE
7FFD
01F8
03E0
0F80
3E00
BFFE
FFFE
0000
1FF4
ENDCHAR
STARTCHAR uni1E96
ENCODING 7830
SWIDTH 600 0
DWIDTH 10 0
BBX 8 13 1 -2
BITMAP
F800
F800
F400
F6F8
FFFD
FD3E
F82E
F82E
F82E
F82E
F82E
0000
1FF4
ENDCHAR
STARTCHAR uni1E97
ENCODING 7831
SWIDTH 600 0
DWIDTH 10 0
BBX 9 14 0 0
BITMAP
1D2C00
2E7D00
1D2C00
000000
03C000
03C000
7FFF80
7FFF80
07C000
07C000
07C000
03E000
02FF80
00BF40
ENDCHAR
STARTCHAR uni1E9E
ENCODING 7838
SWIDTH 600 0
DWIDTH 10 0
BBX 9 10 1 0
BITMAP
1BE400
7FFC00
B87D00
F4B400
F5FD00
F4FF00
F42F40
F51F40
F7FF00
F5F900
ENDCHAR
STARTCHAR uni1EA0
ENCODING 7840
SWIDTH 600 0
DWIDTH 10 0
BBX 10 14 0 -4
BITMAP
02F400
03F800
07BC00
0B6D00
0F2E00
1E1F00
2FFF40
3FFF80
7C0BC0
B807D0
000000
01E000
02F400
01E000
ENDCHAR
STARTCHAR uni1EA1
ENCODING 7841
SWIDTH 600 0
DWIDTH 10 0
BBX 8 12 1 -4
BITMAP
1BE4
BFFC
247D
1AFE
BFFE
F87E
FFFE
6F5E
0000
0780
0BD0
0780
ENDCHAR
STARTCHAR uni1EA2
ENCODING 7842
SWIDTH 600 0
DWIDTH 10 0
BBX 10 14 0 0
BITMAP
02E000
00B400
00E000
000000
02F400
03F800
07BC00
0B6D00
0F2E00
1E1F00
2FFF40
3FFF80
7C0BC0
B807D0
ENDCHAR
STARTCHAR uni1EA3
ENCODING 7843
SWIDTH 600 0
DWIDTH 10 0
BBX 8 12 1 0
BITMAP
0780
01E0
0290
0000
1BE4
BFFC
247D
1AFE
BFFE
F87E
FFFE
6F5E
ENDCHAR
STARTCHAR uni1EA4
ENCODING 7844
SWIDTH 600 0
DWIDTH 10 0
BBX 10 14 0 0
BITMAP
000280
02FA40
065800
000000
02F400
03F800
07BC00
0B6D00
0F2E00
1E1F00
2FFF40
3FFF80
7C0BC0
B807D0
ENDCHAR
STARTCHAR uni1EA5
ENCODING 7845
SWIDTH 600 0
DWIDTH 10 0
BBX 8 13 1 0
BITMAP
0002
000B
07E9
0964
0000
1BE4
BFFC
247D
1AFE
BFFE
F87E
FFFE
6F5E
ENDCHAR
STARTCHAR uni1EA6
ENCODING 7846
SWIDTH 600 0
DWIDTH 10 0
BBX 10 14 0 0
BITMAP
240000
1AF400
065800
000000
02F400
03F800
07BC00
0B6D00
0F2E00
1E1F00
2FFF40
3FFF80
7C0BC0
B807D0
ENDCHAR
STARTCHAR uni1EA7
ENCODING 7847
SWIDTH 600 0
DWIDTH 10 0
BBX 8 13 1 0
BITMAP
9000
E000
27E0
0964
0000
1BE4
BFFC
247D
1AFE
BFFE
F87E
FFFE
6F5E
ENDCHAR
STARTCHAR uni1EA8
ENCODING 7848
SWIDTH 600 0
DWIDTH 10 0
BBX 10 15 0 0
BITMAP
000B40
000380
02F740
065800
000000
02F400
03F800
07BC00
0B6D00
0F2E00
1E1F00
2FFF40
3FFF80
7C0BC0
B807D0
ENDCHAR
STARTCHAR uni1EA9
ENCODING 7849
SWIDTH 600 0
DWIDTH 10 0
BBX 8 13 1 0
BITMAP
001E
000B
07EA
0964
0000
1BE4
BFFC
247D
1AFE
BFFE
F87E
FFFE
6F5E
ENDCHAR
STARTCHAR uni1EAA
ENCODING 7850
SWIDTH 600 0
DWIDTH 10 0
BBX 10 16 0 0
BITMAP
014400
06B800
000000
02F400
065800
000000
02F400
03F800
07BC00
0B6D00
0F2E00
1E1F00
2FFF40
3FFF80
7C0BC0
B807D0
ENDCHAR
STARTCHAR uni1EAB
ENCODING 7851
SWIDTH 600 0
DWIDTH 10 0
BBX 8 14 1 0
BITMAP
0510
0EF4
0000
07E0
0964
0000
1BE4
BFFC
247D
1AFE
BFFE
F87E
FFFE
6F5E
ENDCHAR
STARTCHAR uni1EAC
ENCODING 7852
SWIDTH 600 0
DWIDTH 10 0
BBX 10 17 0 -4
BITMAP
03F800
0A1D00
000000
02F400
03F800
07BC00
0B6D00
0F2E00
1E1F00
2FFF40
3FFF80
7C0BC0
B807D0
000000
01E000
02F400
01E000
ENDCHAR
STARTCHAR uni1EAD
ENCODING 7853
SWIDTH 600 0
DWIDTH 10 0
BBX 8 16 1 -4
BITMAP
07E0
1FB8
1828
0000
1BE4
BFFC
247D
1AFE
BFFE
F87E
FFFE
6F5E
0000
0780
0BD0
0780
ENDCHAR
STARTCHAR uni1EAE
ENCODING 7854
SWIDTH 600 0
DWIDTH 10 0
BBX 10 16 0 0
BITMAP
002400
00B400
00A000
0A1D00
02F800
000000
02F400
03F800
07BC00
0B6D00
0F2E00
1E1F00
2FFF40
3FFF80
7C0BC0
B807D0
ENDCHAR
STARTCHAR uni1EAF
ENCODING 7855
SWIDTH 600 0
DWIDTH 10 0
BBX 8 14 1 0
BITMAP
0090
01E0
0180
1C28
0BE0
0000
1BE4
BFFC
247D
1AFE
BFFE
F87E
FFFE
6F5E
ENDCHAR
STARTCHAR uni1EB0
ENCODING 7856
SWIDTH 600 0
DWIDTH 10 0
BBX 10 16 0 0
BITMAP
024000
02D000
009000
0A1D00
02F800
000000
02F400
03F800
07BC00
0B6D00
0F2E00
1E1F00
2FFF40
3FFF80
7C0BC0
B807D0
ENDCHAR
STARTCHAR uni1EB1
ENCODING 7857
SWIDTH 600 0
DWIDTH 10 0
BBX 8 14 1 0
BITMAP
0600
0740
0280
1C28
0BE0
0000
1BE4
BFFC
247D
1AFE
BFFE
F87E
FFFE
6F5E
ENDCHAR
STARTCHAR uni1EB2
ENCODING 7858
SWIDTH 600 0
DWIDTH 10 0
BBX 10 16 0 0
BITMAP
01E000
00B000
00A000
0A1D00
02F800
000000
02F400
03F800
07BC00
0B6D00
0F2E00
1E1F00
2FFF40
3FFF80
7C0BC0
B807D0
ENDCHAR
STARTCHAR uni1EB3
ENCODING 7859
SWIDTH 600 0
DWIDTH 10 0
BBX 8 14 1 0
BITMAP
0380
01D0
0290
1C28
0BE0
0000
1BE4
BFFC
247D
1AFE
BFFE
F87E
FFFE
6F5E
ENDCHAR
STARTCHAR uni1EB4
ENCODING 7860
SWIDTH 600 0
DWIDTH 10 0
BBX 10 16 0 0
BITMAP
014400
06B800
000000
0A1D00
02F400
000000
02F400
03F800
07BC00
0B6D00
0F2E00
1E1F00
2FFF40
3FFF80
7C0BC0
B807D0
ENDCHAR
STARTCHAR uni1EB5
ENCODING 7861
SWIDTH 600 0
DWIDTH 10 0
BBX 8 14 1 0
BITMAP
0510
1EF4
0000
1D34
07E0
0000
1BE4
BFFC
247D
1AFE
BFFE
F87E
FFFE
6F5E
ENDCHAR
STARTCHAR uni1EB6
ENCODING 7862
SWIDTH 600 0
DWIDTH 10 0
BBX 10 17 0 -4
BITMAP
0A1D00
02F800
000000
02F400
03F800
07BC00
0B6D00
0F2E00
1E1F00
2FFF40
3FFF80
7C0BC0
B807D0
000000
01E000
02F400
01E000
ENDCHAR
STARTCHAR uni1EB7
ENCODING 7863
SWIDTH 600 0
DWIDTH 10 0
BBX 8 15 1 -4
BITMAP
1D38
0BE0
0000
1BE4
BFFC
247D
1AFE
BFFE
F87E
FFFE
6F5E
0000
0780
0BD0
0780
ENDCHAR
STARTCHAR uni1EB8
ENCODING 7864
SWIDTH 600 0
DWIDTH 10 0
BBX 8 14 1 -4
BITMAP
BFFD
BFFD
BC00
BC00
BFF8
BFF8
BC00
BC00
BFFE
BFFE
0000
02D0
07E0
02D0
ENDCHAR
STARTCHAR uni1EB9
ENCODING 7865
SWIDTH 600 0
DWIDTH 10 0
BBX 8 12 1 -4
BITMAP
1BE0
7FFC
B82D
FFFE
FFFE
F804
7FFD
1BE4
0000
07D0
0BE0
07D0
ENDCHAR
STARTCHAR uni1EBA
ENCODING 7866
SWIDTH 600 0
DWIDTH 10 0
BBX 8 14 1 0
BITMAP
0390
01E0
0290
0000
BFFD
BFFD
BC00
BC00
BFF8
BFF8
BC00
BC00
BFFE
BFFE
ENDCHAR
STARTCHAR uni1EBB
ENCODING 7867
SWIDTH 600 0
DWIDTH 10 0
BBX 8 12 1 0
BITMAP
0780
01D0
0280
0000
1BE0
7FFC
B82D
FFFE
FFFE
F804
7FFD
1BE4
ENDCHAR
STARTCHAR uni1EBC
ENCODING 7868
SWIDTH 600 0
DWIDTH 10 0
BBX 8 14 1 0
BITMAP
1F59
2FFC
29B4
0000
BFFD
BFFD
BC00
BC00
BFF8
BFF8
BC00
BC00
BFFE
BFFE
ENDCHAR
STARTCHAR uni1EBD
ENCODING 7869
SWIDTH 600 0
DWIDTH 10 0
BBX 8 13 1 0
BITMAP
0504
2F6C
3FF8
24B4
0000
1BE0
7FFC
B82D
FFFE
FFFE
F804
7FFD
1BE4
ENDCHAR
STARTCHAR uni1EBE
ENCODING 7870
SWIDTH 600 0
DWIDTH 10 0
BBX 8 14 1 0
BITMAP
0006
07E9
0964
0000
BFFD
BFFD
BC00
BC00
BFF8
BFF8
BC00
BC00
BFFE
BFFE
ENDCHAR
STARTCHAR uni1EBF
ENCODING 7871
SWIDTH 600 0
DWIDTH 10 0
BBX 8 13 1 0
BITMAP
0002
000B
0BE9
0960
0000
1BE0
7FFC
B82D
FFFE
FFFE
F804
7FFD
1BE4
ENDCHAR
STARTCHAR uni1EC0
ENCODING 7872
SWIDTH 600 0
DWIDTH 10 0
BBX 8 14 1 0
BITMAP
9000
6BE0
0964
0000
BFFD
BFFD
BC00
BC00
BFF8
BFF8
BC00
BC00
BFFE
BFFE
ENDCHAR
STARTCHAR uni1EC1
ENCODING 7873
SWIDTH 600 0
DWIDTH 10 0
BBX 8 13 1 0
BITMAP
8000
E000
6BD0
0960
0000
1BE0
7FFC
B82D
FFFE
FFFE
F804
7FFD
1BE4
ENDCHAR
STARTCHAR uni1EC2
ENCODING 7874
SWIDTH 600 0
DWIDTH 10 0
BBX 8 15 1 0
BITMAP
001E
0007
07EA
0964
0000
BFFD
BFFD
BC00
BC00
BFF8
BFF8
BC00
BC00
BFFE
BFFE
ENDCHAR
STARTCHAR uni1EC3
ENCODING 7875
SWIDTH 600 0
DWIDTH 10 0
BBX 8 13 1 0
BITMAP
001E
000B
0BD9
0960
0000
1BE0
7FFC
B82D
FFFE
FFFE
F804
7FFD
1BE4
ENDCHAR
STARTCHAR uni1EC4
ENCODING 7876
SWIDTH 600 0
DWIDTH 10 0
BBX 8 16 1 0
BITMAP
0510
0EF4
0000
07E0
0964
0000
BFFD
BFFD
BC00
BC00
BFF8
BFF8
BC00
BC00
BFFE
BFFE
ENDCHAR
STARTCHAR uni1EC5
ENCODING 7877
SWIDTH 600 0
DWIDTH 10 0
BBX 8 14 1 0
BITMAP
0510
1EF0
0000
0BE0
0970
0000
1BE0
7FFC
B82D
FFFE
FFFE
F804
7FFD
1BE4
ENDCHAR
STARTCHAR uni1EC6
ENCODING 7878
SWIDTH 600 0
DWIDTH 10 0
BBX 8 17 1 -4
BITMAP
0BF0
1D28
0000
BFFD
BFFD
BC00
BC00
BFF8
BFF8
BC00
BC00
BFFE
BFFE
0000
02D0
07E0
02D0
ENDCHAR
STARTCHAR uni1EC7
ENCODING 7879
SWIDTH 600 0
DWIDTH 10 0
BBX 8 16 1 -4
BITMAP
0BE0
1EB4
2828
0000
1BE0
7FFC
B82D
FFFE
FFFE
F804
7FFD
1BE4
0000
07D0
0BE0
07D0
ENDCHAR
STARTCHAR uni1EC8
ENCODING 7880
SWIDTH 600 0
DWIDTH 10 0
BBX 8 14 1 0
BITMAP
0B80
02D0
0380
0000
BFFD
BFFD
07C0
07C0
07C0
07C0
07C0
07C0
BFFD
BFFD
ENDCHAR
STARTCHAR uni1EC9
ENCODING 7881
SWIDTH 600 0
DWIDTH 10 0
BBX 6 12 1 0
BITMAP
02D0
00B0
01D0
0000
BFE0
BFE0
02E0
02E0
02E0
02E0
02E0
02E0
ENDCHAR
STARTCHAR uni1ECA
ENCODING 7882
SWIDTH 600 0
DWIDTH 10 0
BBX 8 14 1 -4
BITMAP
BFFD
BFFD
07C0
07C0
07C0
07C0
07C0
07C0
BFFD
BFFD
0000
0780
0BD0
0780
ENDCHAR
STARTCHAR uni1ECB
ENCODING 7883
SWIDTH 600 0
DWIDTH 10 0
BBX 6 16 1 -4
BITMAP
02E0
03F0
02E0
0000
BFE0
BFE0
02E0
02E0
02E0
02E0
02E0
02E0
0000
02E0
03F0
02E0
ENDCHAR
STARTCHAR uni1ECC
ENCODING 7884
SWIDTH 600 0
DWIDTH 10 0
BBX 9 14 0 -4
BITMAP
06F800
1FFF00
3E1F80
7D0BC0
7C07C0
7C07C0
7D0B80
3E1F80
1FFF00
06F800
000000
01E000
02F400
01E000
ENDCHAR
STARTCHAR uni1ECD
ENCODING 7885
SWIDTH 600 0
DWIDTH 10 0
BBX 9 12 0 -4
BITMAP
06F800
1FFF00
3E1F80
7D0B80
7D0B80
3E1F80
1FFF00
06F800
000000
01E000
02F400
01E000
ENDCHAR
STARTCHAR uni1ECE
ENCODING 7886
SWIDTH 600 0
DWIDTH 10 0
BBX 9 14 0 0
BITMAP
02E000
00B400
00E000
000000
06F800
1FFF00
3E1F80
7D0BC0
7C07C0
7C07C0
7D0B80
3E1F80
1FFF00
06F800
ENDCHAR
STARTCHAR uni1ECF
ENCODING 7887
SWIDTH 600 0
DWIDTH 10 0
BBX 9 12 0 0
BITMAP
02E000
00B400
00E000
000000
06F800
1FFF00
3E1F80
7D0B80
7D0B80
3E1F80
1FFF00
06F800
ENDCHAR
STARTCHAR uni1ED0
ENCODING 7888
SWIDTH 600 0
DWIDTH 10 0
BBX 9 14 0 0
BITMAP
000280
02FA40
065800
000000
06F800
1FFF00
3E1F80
7D0BC0
7C07C0
7C07C0
7D0B80
3E1F80
1FFF00
06F800
ENDCHAR
STARTCHAR uni1ED1
ENCODING 7889
SWIDTH 600 0
DWIDTH 10 0
BBX 9 13 0 0
BITMAP
000180
000380
02F600
065800
000000
06F800
1FFF00
3E1F80
7D0B80
7D0B80
3E1F80
1FFF00
06F800
ENDCHAR
STARTCHAR uni1ED2
ENCODING 7890
SWIDTH 600 0
DWIDTH 10 0
BBX 9 14 0 0
BITMAP
240000
1AF400
065800
000000
06F800
1FFF00
3E1F80
7D0BC0
7C07C0
7C07C0
7D0B80
3E1F80
1FFF00
06F800
ENDCHAR
STARTCHAR uni1ED3
ENCODING 7891
SWIDTH 600 0
DWIDTH 10 0
BBX 9 13 0 0
BITMAP
600000
740000
1AF400
065800
000000
06F800
1FFF00
3E1F80
7D0B80
7D0B80
3E1F80
1FFF00
06F800
ENDCHAR
STARTCHAR uni1ED4
ENCODING 7892
SWIDTH 600 0
DWIDTH 10 0
BBX 9 15 0 0
BITMAP
000B40
000380
02F740
065800
000000
06F800
1FFF00
3E1F80
7D0BC0
7C07C0
7C07C0
7D0B80
3E1F80
1FFF00
06F800
ENDCHAR
STARTCHAR uni1ED5
ENCODING 7893
SWIDTH 600 0
DWIDTH 10 0
BBX 9 13 0 0
BITMAP
000B40
000280
02F740
065800
000000
06F800
1FFF00
3E1F80
7D0B80
7D0B80
3E1F80
1FFF00
06F800
ENDCHAR
STARTCHAR uni1ED6
ENCODING 7894
SWIDTH 600 0
DWIDTH 10 0
BBX 9 16 0 0
BITMAP
014400
06B800
000000
02F400
065800
000000
06F800
1FFF00
3E1F80
7D0BC0
7C07C0
7C07C0
7D0B80
3E1F80
1FFF00
06F800
ENDCHAR
STARTCHAR uni1ED7
ENCODING 7895
SWIDTH 600 0
DWIDTH 10 0
BBX 9 14 0 0
BITMAP
014400
06B800
000000
02F400
066800
000000
06F800
1FFF00
3E1F80
7D0B80
7D0B80
3E1F80
1FFF00
06F800
ENDCHAR
STARTCHAR uni1ED8
ENCODING 7896
SWIDTH 600 0
DWIDTH 10 0
BBX 9 17 0 -4
BITMAP
03F800
0A1D00
000000
06F800
1FFF00
3E1F80
7D0BC0
7C07C0
7C07C0
7D0B80
3E1F80
1FFF00
06F800
000000
01E000
02F400
01E000
ENDCHAR
STARTCHAR uni1ED9
ENCODING 7897
SWIDTH 600 0
DWIDTH 10 0
BBX 9 16 0 -4
BITMAP
02F400
0BBD00
090900
000000
06F800
1FFF00
3E1F80
7D0B80
7D0B80
3E1F80
1FFF00
06F800
000000
01E000
02F400
01E000
ENDCHAR
STARTCHAR uni1EDA
ENCODING 7898
SWIDTH 600 0
DWIDTH 10 0
BBX 10 14 0 0
BITMAP
002400
01F990
0192D0
0002D0
06FB80
1FFF00
3E1F80
7D0B80
7C07C0
7C07C0
7D0BC0
3E1F80
1FFF00
06F800
ENDCHAR
STARTCHAR uni1EDB
ENCODING 7899
SWIDTH 600 0
DWIDTH 10 0
BBX 10 13 0 0
BITMAP
001800
007D00
01F590
0092D0
0002D0
06FB80
1FFF00
3E1F80
7D0B80
7D0B80
3E1F80
1FFF00
06F800
ENDCHAR
STARTCHAR uni1EDC
ENCODING 7900
SWIDTH 600 0
DWIDTH 10 0
BBX 10 14 0 0
BITMAP
024000
07E190
0062D0
0002D0
06FB80
1FFF00
3E1F80
7D0B80
7C07C0
7C07C0
7D0BC0
3E1F80
1FFF00
06F800
ENDCHAR
STARTCHAR uni1EDD
ENCODING 7901
SWIDTH 600 0
DWIDTH 10 0
BBX 10 13 0 0
BITMAP
020000
0B8000
02E190
0092D0
0002D0
06FB80
1FFF00
3E1F80
7D0B80
7D0B80
3E1F80
1FFF00
06F800
ENDCHAR
STARTCHAR uni1EDE
ENCODING 7902
SWIDTH 600 0
DWIDTH 10 0
BBX 10 14 0 0
BITMAP
02E000
00B590
00E2D0
0002D0
06FB80
1FFF00
3E1F80
7D0B80
7C07C0
7C07C0
7D0BC0
3E1F80
1FFF00
06F800
ENDCHAR
STARTCHAR uni1EDF
ENCODING 7903
SWIDTH 600 0
DWIDTH 10 0
BBX 10 12 0 0
BITMAP
02E000
00B590
00E2D0
0002D0
06FB80
1FFF00
3E1F80
7D0B80
7D0B80
3E1F80
1FFF00
06F800
ENDCHAR
STARTCHAR uni1EE0
ENCODING 7904
SWIDTH 600 0
DWIDTH 10 0
BBX 10 14 0 0
BITMAP
0B8900
1FFE90
18BAD0
0002D0
06FB80
1FFF00
3E1F80
7D0B80
7C07C0
7C07C0
7D0BC0
3E1F80
1FFF00
06F800
ENDCHAR
STARTCHAR uni1EE1
ENCODING 7905
SWIDTH 600 0
DWIDTH 10 0
BBX 10 13 0 0
BITMAP
010400
0F9D00
1EFE90
187AD0
0002D0
06FB80
1FFF00
3E1F80
7D0B80
7D0B80
3E1F80
1FFF00
06F800
ENDCHAR
STARTCHAR uni1EE2
ENCODING 7906
SWIDTH 600 0
DWIDTH 10 0
BBX 10 17 0 -4
BITMAP
000190
0002D0
0002D0
06FB80
1FFF00
3E1F80
7D0B80
7C07C0
7C07C0
7D0BC0
3E1F80
1FFF00
06F800
000000
01E000
02F400
01E000
ENDCHAR
STARTCHAR uni1EE3
ENCODING 7907
SWIDTH 600 0
DWIDTH 10 0
BBX 10 15 0 -4
BITMAP
000190
0002D0
0002D0
06FB80
1FFF00
3E1F80
7D0B80
7D0B80
3E1F80
1FFF00
06F800
000000
01E000
02F400
01E000
ENDCHAR
STARTCHAR uni1EE4
ENCODING 7908
SWIDTH 600 0
DWIDTH 10 0
BBX 8 14 1 -4
BITMAP
F42E
F42E
F42E
F42E
F42E
F42E
F42E
B87D
7FFC
1BE4
0000
0780
0BD0
0780
ENDCHAR
STARTCHAR uni1EE5
ENCODING 7909
SWIDTH 600 0
DWIDTH 10 0
BBX 8 12 1 -4
BITMAP
F43D
F43D
F43D
F43D
F43D
F8BD
BFFD
2F6D
0000
03D0
07E0
07D0
ENDCHAR
STARTCHAR uni1EE6
ENCODING 7910
SWIDTH 600 0
DWIDTH 10 0
BBX 8 14 1 0
BITMAP
0B80
02D0
0380
0000
F42E
F42E
F42E
F42E
F42E
F42E
F42E
B87D
7FFC
1BE4
ENDCHAR
STARTCHAR uni1EE7
ENCODING 7911
SWIDTH 600 0
DWIDTH 10 0
BBX 8 12 1 0
BITMAP
0B80
02D0
0380
0000
F43D
F43D
F43D
F43D
F43D
F8BD
BFFD
2F6D
ENDCHAR
STARTCHAR uni1EE8
ENCODING 7912
SWIDTH 600 0
DWIDTH 10 0
BBX 10 14 1 0
BITMAP
009000
07E190
0641E0
0002D0
F42F80
F42E00
F42E00
F42E00
F42E00
F42E00
F42E00
B87D00
7FFC00
1BE000
ENDCHAR
STARTCHAR uni1EE9
ENCODING 7913
SWIDTH 600 0
DWIDTH 10 0
BBX 9 13 1 0
BITMAP
005000
01F400
07D280
0243C0
000780
F43F40
F43D00
F43D00
F43D00
F43D00
F8BD00
BFFD00
2F6D00
ENDCHAR
STARTCHAR uni1EEA
ENCODING 7914
SWIDTH 600 0
DWIDTH 10 0
BBX 10 14 1 0
BITMAP
090000
1F8190
0181E0
0002D0
F42F80
F42E00
F42E00
F42E00
F42E00
F42E00
F42E00
B87D00
7FFC00
1BE000
ENDCHAR
STARTCHAR uni1EEB
ENCODING 7915
SWIDTH 600 0
DWIDTH 10 0
BBX 9 13 1 0
BITMAP
080000
2E0000
0B8280
0243C0
000780
F43F40
F43D00
F43D00
F43D00
F43D00
F8BD00
BFFD00
2F6D00
ENDCHAR
STARTCHAR uni1EEC
ENCODING 7916
SWIDTH 600 0
DWIDTH 10 0
BBX 10 14 1 0
BITMAP
0B8000
02D190
0381E0
0002D0
F42F80
F42E00
F42E00
F42E00
F42E00
F42E00
F42E00
B87D00
7FFC00
1BE000
ENDCHAR
STARTCHAR uni1EED
ENCODING 7917
SWIDTH 600 0
DWIDTH 10 0
BBX 9 12 1 0
BITMAP
0B8000
02D280
0383C0
000780
F43F40
F43D00
F43D00
F43D00
F43D00
F8BD00
BFFD00
2F6D00
ENDCHAR
STARTCHAR uni1EEE
ENCODING 7918
SWIDTH 600 0
DWIDTH 10 0
BBX 10 14 1 0
BITMAP
2E6800
3FF990
65F5E0
0002D0
F42F80
F42E00
F42E00
F42E00
F42E00
F42E00
F42E00
B87D00
7FFC00
1BE000
ENDCHAR
STARTCHAR uni1EEF
ENCODING 7919
SWIDTH 600 0
DWIDTH 10 0
BBX 9 13 1 0
BITMAP
041000
3E7400
7BF680
61E3C0
000780
F43F40
F43D00
F43D00
F43D00
F43D00
F8BD00
BFFD00
2F6D00
ENDCHAR
STARTCHAR uni1EF0
ENCODING 7920
SWIDTH 600 0
DWIDTH 10 0
BBX 10 17 1 -4
BITMAP
000190
0001E0
0002D0
F42F80
F42E00
F42E00
F42E00
F42E00
F42E00
F42E00
B87D00
7FFC00
1BE000
000000
078000
0BD000
078000
ENDCHAR
STARTCHAR uni1EF1
ENCODING 7921
SWIDTH 600 0
DWIDTH 10 0
BBX 9 15 1 -4
BITMAP
000280
0003C0
000780
F43F40
F43D00
F43D00
F43D00
F43D00
F8BD00
BFFD00
2F6D00
000000
03D000
07E000
07D000
ENDCHAR
STARTCHAR Ygrave
ENCODING 7922
SWIDTH 600 0
DWIDTH 10 0
BBX 9 14 0 0
BITMAP
024000
07E000
006000
000000
7C07C0
3D0B80
1F1F00
0F6E00
07BC00
03F800
01F000
01F000
01F000
01F000
ENDCHAR
STARTCHAR ygrave
ENCODING 7923
SWIDTH 600 0
DWIDTH 10 0
BBX 9 16 0 -3
BITMAP
024000
0BC000
02E000
00A000
000000
7C07C0
3D0B80
1E0F00
0F5E00
0BAD00
03FC00
02F800
01F400
02E000
2FD000
2E4000
ENDCHAR
STARTCHAR uni1EF4
ENCODING 7924
SWIDTH 600 0
DWIDTH 10 0
BBX 9 14 0 -4
BITMAP
7C07C0
3D0B80
1F1F00
0F6E00
07BC00
03F800
01F000
01F000
01F000
01F000
000000
01E000
02F400
01E000
ENDCHAR
STARTCHAR uni1EF5
ENCODING 7925
SWIDTH 600 0
DWIDTH 10 0
BBX 10 12 0 -4
BITMAP
7C07C0
3D0B80
1E0F00
0F5E00
0BAD00
03FC00
02F800
01F400
02E000
2FD780
2E4BD0
000780
ENDCHAR
STARTCHAR uni1EF6
ENCODING 7926
SWIDTH 600 0
DWIDTH 10 0
BBX 9 14 0 0
BITMAP
02E000
00B400
00E000
000000
7C07C0
3D0B80
1F1F00
0F6E00
07BC00
03F800
01F000
01F000
01F000
01F000
ENDCHAR
STARTCHAR uni1EF7
ENCODING 7927
SWIDTH 600 0
DWIDTH 10 0
BBX 9 15 0 -3
BITMAP
01E000
007400
00A000
000000
7C07C0
3D0B80
1E0F00
0F5E00
0BAD00
03FC00
02F800
01F400
02E000
2FD000
2E4000
ENDCHAR
STARTCHAR uni1EF8
ENCODING 7928
SWIDTH 600 0
DWIDTH 10 0
BBX 9 14 0 0
BITMAP
0B9A00
0FFE00
197D00
000000
7C07C0
3D0B80
1F1F00
0F6E00
07BC00
03F800
01F000
01F000
01F000
01F000
ENDCHAR
STARTCHAR uni1EF9
ENCODING 7929
SWIDTH 600 0
DWIDTH 10 0
BBX 9 16 0 -3
BITMAP
010100
0BDB00
0FFE00
092D00
000000
7C07C0
3D0B80
1E0F00
0F5E00
0BAD00
03FC00
02F800
01F400
02E000
2FD000
2E4000
ENDCHAR
STARTCHAR uni1FBD
ENCODING 8125
SWIDTH 600 0
DWIDTH 10 0
BBX 4 3 3 9
BITMAP
B8
2D
38
ENDCHAR
STARTCHAR uni1FBE
ENCODING 8126
SWIDTH 600 0
DWIDTH 10 0
BBX 4 7 3 0
BITMAP
B8
B8
B8
B8
B8
7F
2F
ENDCHAR
STARTCHAR uni1FBF
ENCODING 8127
SWIDTH 600 0
DWIDTH 10 0
BBX 4 3 3 9
BITMAP
B8
2D
38
ENDCHAR
STARTCHAR uni1FC0
ENCODING 8128
SWIDTH 600 0
DWIDTH 10 0
BBX 6 4 2 9
BITMAP
1000
BDA0
EFE0
9780
ENDCHAR
STARTCHAR uni1FC1
ENCODING 8129
SWIDTH 600 0
DWIDTH 10 0
BBX 6 5 2 9
BITMAP
7ED0
9140
0000
A1D0
A1D0
ENDCHAR
STARTCHAR uni1FCD
ENCODING 8141
SWIDTH 600 0
DWIDTH 10 0
BBX 6 4 1 8
BITMAP
78E0
1DB0
2870
0010
ENDCHAR
STARTCHAR uni1FCE
ENCODING 8142
SWIDTH 600 0
DWIDTH 10 0
BBX 7 3 1 9
BITMAP
78B4
1DB0
28E0
ENDCHAR
STARTCHAR uni1FCF
ENCODING 8143
SWIDTH 600 0
DWIDTH 10 0
BBX 5 5 2 9
BITMAP
1440
6B80
1E00
0B00
0900
ENDCHAR
STARTCHAR uni1FDD
ENCODING 8157
SWIDTH 600 0
DWIDTH 10 0
BBX 6 4 1 8
BITMAP
2DE0
74B0
2870
0010
ENDCHAR
STARTCHAR uni1FDE
ENCODING 8158
SWIDTH 600 0
DWIDTH 10 0
BBX 6 3 2 9
BITMAP
B6D0
E3C0
A380
ENDCHAR
STARTCHAR uni1FDF
ENCODING 8159
SWIDTH 600 0
DWIDTH 10 0
BBX 5 5 2 9
BITMAP
1440
6B80
0B00
1D00
0900
ENDCHAR
STARTCHAR uni1FED
ENCODING 8173
SWIDTH 600 0
DWIDTH 10 0
BBX 6 4 2 9
BITMAP
1C00
1D00
DDA0
D9A0
ENDCHAR
STARTCHAR uni1FEE
ENCODING 8174
SWIDTH 600 0
DWIDTH 10 0
BBX 7 4 1 9
BITMAP
01C0
0280
76A8
7768
ENDCHAR
STARTCHAR uni1FEF
ENCODING 8175
SWIDTH 600 0
DWIDTH 10 0
BBX 3 4 3 9
BITMAP
B4
B4
74
34
ENDCHAR
STARTCHAR uni1FFD
ENCODING 8189
SWIDTH 600 0
DWIDTH 10 0
BBX 3 4 4 9
BITMAP
B4
B4
F0
E0
ENDCHAR
STARTCHAR uni1FFE
ENCODING 8190
SWIDTH 600 0
DWIDTH 10 0
BBX 3 3 3 9
BITMAP
6C
B4
68
ENDCHAR
STARTCHAR uni2007
ENCODING 8199
SWIDTH 600 0
DWIDTH 10 0
BBX 1 1 0 0
BITMAP
00
ENDCHAR
STARTCHAR uni2010
ENCODING 8208
SWIDTH 600 0
DWIDTH 10 0
BBX 8 2 1 4
BITMAP
FFFD
FFFD
ENDCHAR
STARTCHAR figuredash
ENCODING 8210
SWIDTH 600 0
DWIDTH 10 0
BBX 8 2 1 3
BITMAP
BFFD
BFFD
ENDCHAR
STARTCHAR endash
ENCODING 8211
SWIDTH 600 0
DWIDTH 10 0
BBX 8 2 1 3
BITMAP
BFFD
BFFD
ENDCHAR
STARTCHAR emdash
ENCODING 8212
SWIDTH 600 0
DWIDTH 10 0
BBX 10 2 0 3
BITMAP
FFFFE0
FFFFE0
ENDCHAR
STARTCHAR uni2015
ENCODING 8213
SWIDTH 600 0
DWIDTH 10 0
BBX 10 2 0 3
BITMAP
FFFFE0
FFFFE0
ENDCHAR
STARTCHAR uni2016
ENCODING 8214
SWIDTH 600 0
DWIDTH 10 0
BBX 6 16 2 -4
BITMAP
F1E0
F1E0
F1E0
F1E0
F1E0
F1E0
F1E0
F1E0
F1E0
F1E0
F1E0
F1E0
F1E0
F1E0
F1E0
F1E0
ENDCHAR
STARTCHAR underscoredbl
ENCODING 8215
SWIDTH 600 0
DWIDTH 10 0
BBX 8 4 1 -5
BITMAP
FFFE
FFFE
FFFE
FFFE
ENDCHAR
STARTCHAR quoteleft
ENCODING 8216
SWIDTH 600 0
DWIDTH 10 0
BBX 4 7 3 5
BITMAP
04
2C
74
E0
F8
FD
78
ENDCHAR
STARTCHAR quoteright
ENCODING 8217
SWIDTH 600 0
DWIDTH 10 0
BBX 4 6 3 5
BITMAP
78
BD
7E
0D
2C
B4
ENDCHAR
STARTCHAR quotesinglbase
ENCODING 8218
SWIDTH 600 0
DWIDTH 10 0
BBX 4 6 3 -3
BITMAP
78
BD
7E
0D
2C
B4
ENDCHAR
STARTCHAR quotereversed
ENCODING 8219
SWIDTH 600 0
DWIDTH 10 0
BBX 4 7 3 4
BITMAP
78
FD
FC
E0
74
2D
04
ENDCHAR
STARTCHAR quotedblleft
ENCODING 8220
SWIDTH 600 0
DWIDTH 10 0
BBX 8 7 1 5
BITMAP
0404
2C2D
B474
E0A0
F8FC
FDBD
787C
ENDCHAR
STARTCHAR quotedblright
ENCODING 8221
SWIDTH 600 0
DWIDTH 10 0
BBX 8 6 1 5
BITMAP
787C
FDBE
7D7E
1D0E
2C2D
B474
ENDCHAR
STARTCHAR quotedblbase
ENCODING 8222
SWIDTH 600 0
DWIDTH 10 0
BBX 8 6 1 -3
BITMAP
787C
FDBE
7D7E
1D0E
2C2D
B474
ENDCHAR
STARTCHAR dagger
ENCODING 8224
SWIDTH 600 0
DWIDTH 10 0
BBX 8 14 1 -2
BITMAP
0380
0380
0380
BFFD
BFFD
0380
0380
0380
0380
0380
0380
0380
0380
0140
ENDCHAR
STARTCHAR daggerdbl
ENCODING 8225
SWIDTH 600 0
DWIDTH 10 0
BBX 8 14 1 -2
BITMAP
0380
0380
0380
BFFD
BFFD
0380
0380
0380
0380
BFFD
BFFD
0380
0380
0380
ENDCHAR
STARTCHAR bullet
ENCODING 8226
SWIDTH 600 0
DWIDTH 10 0
BBX 6 5 2 2
BITMAP
2F40
BFC0
BFD0
BFD0
2F40
ENDCHAR
STARTCHAR ellipsis
ENCODING 8230
SWIDTH 600 0
DWIDTH 10 0
BBX 10 2 0 0
BITMAP
B9F7D0
B9F7D0
ENDCHAR
STARTCHAR uni202F
ENCODING 8239
SWIDTH 600 0
DWIDTH 10 0
BBX 1 1 0 0
BITMAP
00
ENDCHAR
STARTCHAR perthousand
ENCODING 8240
SWIDTH 600 0
DWIDTH 10 0
BBX 9 10 0 0
BITMAP
2E0000
7F4000
7F46C0
2E6F80
079400
140000
2E1F40
7F7FC0
7F7FC0
2E1F40
ENDCHAR
STARTCHAR uni2032
ENCODING 8242
SWIDTH 600 0
DWIDTH 10 0
BBX 4 5 3 6
BITMAP
3D
3C
3C
78
74
ENDCHAR
STARTCHAR uni2033
ENCODING 8243
SWIDTH 600 0
DWIDTH 10 0
BBX 7 5 2 6
BITMAP
F4F4
F5F0
F1E0
E1E0
D1D0
ENDCHAR
STARTCHAR uni2035
ENCODING 8245
SWIDTH 600 0
DWIDTH 10 0
BBX 3 5 3 6
BITMAP
B8
B8
78
38
2C
ENDCHAR
STARTCHAR guilsinglleft
ENCODING 8249
SWIDTH 600 0
DWIDTH 10 0
BBX 5 7 2 1
BITMAP
0240
1F00
3D00
7800
3D00
1F00
0240
ENDCHAR
STARTCHAR guilsinglright
ENCODING 8250
SWIDTH 600 0
DWIDTH 10 0
BBX 4 7 3 1
BITMAP
60
78
2E
0E
2E
78
A0
ENDCHAR
STARTCHAR exclamdbl
ENCODING 8252
SWIDTH 600 0
DWIDTH 10 0
BBX 8 10 1 0
BITMAP
B87C
783C
783C
783C
743C
7438
0000
B87D
FDBE
B87D
ENDCHAR
STARTCHAR uni203D
ENCODING 8253
SWIDTH 600 0
DWIDTH 10 0
BBX 7 10 1 0
BITMAP
1FE0
BFFC
647C
0B78
0BE0
0780
0000
0B40
0FC0
0B40
ENDCHAR
STARTCHAR uni203E
ENCODING 8254
SWIDTH 600 0
DWIDTH 10 0
BBX 8 2 1 8
BITMAP
FFFE
FFFE
ENDCHAR
STARTCHAR uni203F
ENCODING 8255
SWIDTH 600 0
DWIDTH 10 0
BBX 15 4 -3 -4
BITMAP
10000004
7E5005BC
1BFFFFE0
006FF900
ENDCHAR
STARTCHAR fraction
ENCODING 8260
SWIDTH 600 0
DWIDTH 10 0
BBX 9 10 0 0
BITMAP
000180
0003C0
000E00
001800
000000
000000
060000
1E0000
780000
200000
ENDCHAR
STARTCHAR uni2047
ENCODING 8263
SWIDTH 600 0
DWIDTH 10 0
BBX 10 10 0 0
BITMAP
6E6F40
7FBFD0
0B83D0
0B4780
1E0F00
2D1E00
000000
2D1E00
7F2F40
2D1E00
ENDCHAR
STARTCHAR uni2048
ENCODING 8264
SWIDTH 600 0
DWIDTH 10 0
BBX 9 11 0 0
BITMAP
6E0F40
7F8F00
0B8F00
0B8F00
1F0F00
2E0F00
2D0B00
000000
2D1F40
7F2F80
2D1F40
ENDCHAR
STARTCHAR uni2049
ENCODING 8265
SWIDTH 600 0
DWIDTH 10 0
BBX 9 10 1 0
BITMAP
B8BD00
B8FF40
780F40
781E00
743C00
747800
000000
B87800
FCBD00
B87800
ENDCHAR
STARTCHAR zero.sups
ENCODING 8304
SWIDTH 600 0
DWIDTH 10 0
BBX 6 8 2 5
BITMAP
2F40
7FC0
B1D0
E0E0
E0D0
B1D0
7FC0
2F40
ENDCHAR
STARTCHAR i.sups
ENCODING 8305
SWIDTH 600 0
DWIDTH 10 0
BBX 5 8 2 6
BITMAP
0740
0740
7F40
7F40
0740
0740
0740
0740
ENDCHAR
STARTCHAR four.sups
ENCODING 8308
SWIDTH 600 0
DWIDTH 10 0
BBX 6 6 2 6
BITMAP
0900
2D80
76C0
BFE0
BFE0
02C0
ENDCHAR
STARTCHAR five.sups
ENCODING 8309
SWIDTH 600 0
DWIDTH 10 0
BBX 6 8 2 5
BITMAP
3FC0
3FC0
7F40
7FC0
12D0
52D0
BFC0
2F40
ENDCHAR
STARTCHAR six.sups
ENCODING 8310
SWIDTH 600 0
DWIDTH 10 0
BBX 6 8 2 5
BITMAP
1F80
7FC0
B440
BF80
BFD0
B1D0
7FC0
1F40
ENDCHAR
STARTCHAR seven.sups
ENCODING 8311
SWIDTH 600 0
DWIDTH 10 0
BBX 6 7 2 6
BITMAP
BFD0
BFD0
0280
0700
0A00
0E00
1E00
ENDCHAR
STARTCHAR eight.sups
ENCODING 8312
SWIDTH 600 0
DWIDTH 10 0
BBX 6 8 2 5
BITMAP
2F40
7FC0
76C0
3F80
3F80
B2D0
BFD0
2F40
ENDCHAR
STARTCHAR nine.sups
ENCODING 8313
SWIDTH 600 0
DWIDTH 10 0
BBX 6 8 2 5
BITMAP
2E00
BF80
B2D0
BFD0
7ED0
12C0
7F80
7E00
ENDCHAR
STARTCHAR parenleft.sups
ENCODING 8317
SWIDTH 600 0
DWIDTH 10 0
BBX 4 9 3 5
BITMAP
09
2C
74
74
70
74
74
2C
09
ENDCHAR
STARTCHAR parenright.sups
ENCODING 8318
SWIDTH 600 0
DWIDTH 10 0
BBX 3 9 3 5
BITMAP
A0
74
38
2C
2C
2C
38
74
A0
ENDCHAR
STARTCHAR n.sups
ENCODING 8319
SWIDTH 600 0
DWIDTH 10 0
BBX 6 6 2 5
BITMAP
B780
BFD0
B5D0
B0E0
B0E0
70D0
ENDCHAR
STARTCHAR zero.subs
ENCODING 8320
SWIDTH 600 0
DWIDTH 10 0
BBX 6 8 2 -4
BITMAP
2F40
7FC0
B1D0
E0E0
E0D0
B1D0
7FC0
2F40
ENDCHAR
STARTCHAR one.subs
ENCODING 8321
SWIDTH 600 0
DWIDTH 10 0
BBX 6 6 2 -3
BITMAP
1B40
3F40
0740
0740
7FF0
7FF0
ENDCHAR
STARTCHAR two.subs
ENCODING 8322
SWIDTH 600 0
DWIDTH 10 0
BBX 6 7 2 -3
BITMAP
2F40
BFC0
52C0
0380
1E00
7FD0
BFD0
ENDCHAR
STARTCHAR three.subs
ENCODING 8323
SWIDTH 600 0
DWIDTH 10 0
BBX 6 8 2 -4
BITMAP
2F40
7FC0
1F80
0F80
02D0
52D0
BFC0
2E40
ENDCHAR
STARTCHAR four.subs
ENCODING 8324
SWIDTH 600 0
DWIDTH 10 0
BBX 6 6 2 -3
BITMAP
0900
2D80
76C0
BFE0
BFE0
02C0
ENDCHAR
STARTCHAR five.subs
ENCODING 8325
SWIDTH 600 0
DWIDTH 10 0
BBX 6 8 2 -4
BITMAP
3FC0
3FC0
7F40
7FC0
12D0
52D0
BFC0
2F40
ENDCHAR
STARTCHAR six.subs
ENCODING 8326
SWIDTH 600 0
DWIDTH 10 0
BBX 6 8 2 -4
BITMAP
1F80
7FC0
B440
BF80
BFD0
B1D0
7FC0
1F40
ENDCHAR
STARTCHAR seven.subs
ENCODING 8327
SWIDTH 600 0
DWIDTH 10 0
BBX 6 7 2 -3
BITMAP
BFD0
BFD0
0280
0700
0A00
0E00
1E00
ENDCHAR
STARTCHAR eight.subs
ENCODING 8328
SWIDTH 600 0
DWIDTH 10 0
BBX 6 8 2 -4
BITMAP
2F40
7FC0
76C0
3F80
3F80
B2D0
BFD0
2F40
ENDCHAR
STARTCHAR nine.subs
ENCODING 8329
SWIDTH 600 0
DWIDTH 10 0
BBX 6 8 2 -4
BITMAP
2E00
BF80
B2D0
BFD0
7ED0
12C0
7F80
7E00
ENDCHAR
STARTCHAR parenleft.subs
ENCODING 8333
SWIDTH 600 0
DWIDTH 10 0
BBX 4 9 3 -4
BITMAP
09
2C
74
74
70
74
74
2C
09
ENDCHAR
STARTCHAR parenright.subs
ENCODING 8334
SWIDTH 600 0
DWIDTH 10 0
BBX 3 9 3 -4
BITMAP
A0
74
38
2C
2C
2C
38
74
A0
ENDCHAR
STARTCHAR uni0259.sups
ENCODING 8340
SWIDTH 600 0
DWIDTH 10 0
BBX 6 5 2 6
BITMAP
2F40
FFD0
BFD0
7FC0
2F40
ENDCHAR
STARTCHAR colonmonetary
ENCODING 8353
SWIDTH 600 0
DWIDTH 10 0
BBX 8 14 1 -2
BITMAP
0094
00D4
0BFD
2FFD
7DA0
B960
BA60
BA60
BA60
7F50
2FEE
0BFD
0690
0580
ENDCHAR
STARTCHAR franc
ENCODING 8355
SWIDTH 600 0
DWIDTH 10 0
BBX 8 10 1 0
BITMAP
3FFE
3FFE
3D00
3D00
3FFC
3FFC
3D00
FFE0
3D00
3D00
ENDCHAR
STARTCHAR lira
ENCODING 8356
SWIDTH 600 0
DWIDTH 10 0
BBX 8 10 1 0
BITMAP
06F8
1FFE
2E04
BFF4
1E00
BFF4
1E00
2D00
BFFE
FFFE
ENDCHAR
STARTCHAR uni20A6
ENCODING 8358
SWIDTH 600 0
DWIDTH 10 0
BBX 9 10 0 0
BITMAP
1F0B00
1F4B00
1ECB00
BFFFC0
1DEB00
BFFFC0
1D7B00
1D3B00
1D2F00
1D1F00
ENDCHAR
STARTCHAR peseta
ENCODING 8359
SWIDTH 600 0
DWIDTH 10 0
BBX 10 10 0 0
BITMAP
1FF800
1FFE00
1F1F40
BFFFD0
BFFFD0
1F1F00
1FFE00
1FF800
1F0000
1F0000
ENDCHAR
STARTCHAR uni20A9
ENCODING 8361
SWIDTH 600 0
DWIDTH 10 0
BBX 10 10 0 0
BITMAP
7853C0
3DF380
3DF380
3DB780
BFFFD0
2EBB40
2E7B40
1F6F00
1F6F00
1F6F00
ENDCHAR
STARTCHAR dong
ENCODING 8363
SWIDTH 600 0
DWIDTH 10 0
BBX 8 12 1 0
BITMAP
003C
0BFF
0BFF
003C
1FBC
7FFC
787C
7FFC
2FA8
0000
7FFD
7FFD
ENDCHAR
STARTCHAR Euro
ENCODING 8364
SWIDTH 600 0
DWIDTH 10 0
BBX 9 10 0 0
BITMAP
01BE40
0BFFC0
7FFF40
7FFF00
1F0000
7FFE00
7FFE00
0F8140
07FFC0
01BE40
ENDCHAR
STARTCHAR uni20AE
ENCODING 8366
SWIDTH 600 0
DWIDTH 10 0
BBX 9 10 0 0
BITMAP
7FFFC0
7FFFC0
01F000
01F700
01F900
1BF700
16F900
1BF000
15F000
01F000
ENDCHAR
STARTCHAR uni20B1
ENCODING 8369
SWIDTH 600 0
DWIDTH 10 0
BBX 10 10 0 0
BITMAP
1FF400
1FFE00
1F2F00
BFFFD0
1F0B40
BFFFD0
1F2F00
1FFD00
1FE400
1F0000
ENDCHAR
STARTCHAR uni20B2
ENCODING 8370
SWIDTH 600 0
DWIDTH 10 0
BBX 8 14 1 -2
BITMAP
01D0
01D0
0BF8
2FFD
7D14
B800
F4BE
F4BE
B81E
7D2E
2FFE
0BF8
01D0
01D0
ENDCHAR
STARTCHAR uni20B4
ENCODING 8372
SWIDTH 600 0
DWIDTH 10 0
BBX 8 10 1 0
BITMAP
1FE0
7FF8
24B8
FFFE
1FD0
FFFE
7C00
3D18
2FFD
0BE4
ENDCHAR
STARTCHAR uni20B5
ENCODING 8373
SWIDTH 600 0
DWIDTH 10 0
BBX 8 13 1 -2
BITMAP
0090
07F8
2FFE
3DE4
BC90
B890
B890
BC90
7DD4
2FFE
07F8
0090
0090
ENDCHAR
STARTCHAR uni20B8
ENCODING 8376
SWIDTH 600 0
DWIDTH 10 0
BBX 9 10 0 0
BITMAP
7FFFC0
7FFFC0
000000
7FFFC0
7FFFC0
01F000
01F000
01F000
01F000
01F000
ENDCHAR
STARTCHAR uni20B9
ENCODING 8377
SWIDTH 600 0
DWIDTH 10 0
BBX 8 10 1 0
BITMAP
BFFD
BFFD
02E0
BFFD
BFFD
BFF0
BFD0
0B40
03D0
00F8
ENDCHAR
STARTCHAR uni20BA
ENCODING 8378
SWIDTH 600 0
DWIDTH 10 0
BBX 9 10 0 0
BITMAP
0F4000
0F6C00
0FE000
6F6800
6FE400
2F4280
6F4780
0F5F40
0FFE00
0FE400
ENDCHAR
STARTCHAR uni20BD
ENCODING 8381
SWIDTH 600 0
DWIDTH 10 0
BBX 9 10 0 0
BITMAP
0FFD00
0FFF80
0F47C0
0F47C0
BFFF80
BFFD00
0F4000
BFFF00
BFFF00
0F4000
ENDCHAR
STARTCHAR uni2105
ENCODING 8453
SWIDTH 600 0
DWIDTH 10 0
BBX 9 10 0 0
BITMAP
2E0180
7F03C0
B50B00
7F5800
2E1F40
007FC0
0B76C0
2D76C0
747FC0
101F40
ENDCHAR
STARTCHAR uni2113
ENCODING 8467
SWIDTH 600 0
DWIDTH 10 0
BBX 8 11 1 0
BITMAP
02F4
0BFC
0F6D
1F2C
1F78
1FF4
1FD0
6F00
6F44
0BFD
02F8
ENDCHAR
STARTCHAR uni2116
ENCODING 8470
SWIDTH 600 0
DWIDTH 10 0
BBX 11 10 -1 0
BITMAP
3D2DF4
3E3EFC
3E7AAC
3B7AFC
3B79F4
3AB800
3AF9F8
39F9F8
78F800
74B800
ENDCHAR
STARTCHAR uni2117
ENCODING 8471
SWIDTH 600 0
DWIDTH 10 0
BBX 10 10 0 0
BITMAP
06F800
1FFF00
390780
A295C0
97FCD0
97FDD0
A2B9C0
390780
1FFF00
06F800
ENDCHAR
STARTCHAR uni2120
ENCODING 8480
SWIDTH 600 0
DWIDTH 10 0
BBX 10 5 0 6
BITMAP
7DB5E0
BEBAE0
54BBE0
FEAFA0
7D6A90
ENDCHAR
STARTCHAR trademark
ENCODING 8482
SWIDTH 600 0
DWIDTH 10 0
BBX 11 5 -1 6
BITMAP
7FED78
7FEEB8
0E2EF8
0E2BE8
0E2AB8
ENDCHAR
STARTCHAR uni2126
ENCODING 8486
SWIDTH 600 0
DWIDTH 10 0
BBX 9 10 0 0
BITMAP
06F800
1FFF00
3E1F80
7D0BC0
7C07C0
7C07C0
3D0B80
1E0E00
BF2FC0
BF2FC0
ENDCHAR
STARTCHAR estimated
ENCODING 8494
SWIDTH 600 0
DWIDTH 10 0
BBX 9 9 0 0
BITMAP
140200
380380
7803C0
BFFFC0
B80000
780000
380000
140100
040400
ENDCHAR
STARTCHAR uni2150
ENCODING 8528
SWIDTH 600 0
DWIDTH 10 0
BBX 10 10 0 0
BITMAP
1F0180
3F03C0
0B0E00
0B1800
0B0000
003FD0
063FD0
1E0380
780B00
200F00
ENDCHAR
STARTCHAR uni2151
ENCODING 8529
SWIDTH 600 0
DWIDTH 10 0
BBX 10 10 0 0
BITMAP
1F0180
3F03C0
0B0E00
0B1800
0B1F40
003FC0
063FD0
1E2FD0
782FC0
201E40
ENDCHAR
STARTCHAR uni2152
ENCODING 8530
SWIDTH 600 0
DWIDTH 10 0
BBX 8 10 1 0
BITMAP
FC00
FC00
3C1B
3DBE
1E50
5000
FC7D
FCFF
3CFF
3C7D
ENDCHAR
STARTCHAR onethird
ENCODING 8531
SWIDTH 600 0
DWIDTH 10 0
BBX 9 10 0 0
BITMAP
1F0180
3F03C0
0B0E00
0B1800
0B1F40
002FC0
0602C0
1E1B80
783FC0
201F80
ENDCHAR
STARTCHAR twothirds
ENCODING 8532
SWIDTH 600 0
DWIDTH 10 0
BBX 9 11 0 0
BITMAP
2E0000
BF4180
1743C0
0E0E00
7F9800
BF9F40
002FC0
0602C0
1E1B80
783FC0
201F80
ENDCHAR
STARTCHAR uni2155
ENCODING 8533
SWIDTH 600 0
DWIDTH 10 0
BBX 10 10 0 0
BITMAP
1F0180
3F03C0
0B0E00
0B1800
0B0000
001FC0
062FC0
1E2F80
783FD0
201F80
ENDCHAR
STARTCHAR uni2156
ENCODING 8534
SWIDTH 600 0
DWIDTH 10 0
BBX 10 11 0 0
BITMAP
2E0000
BF4180
1743C0
0E0E00
7F9800
BF8000
001FC0
062FC0
1E2F80
783FD0
201F80
ENDCHAR
STARTCHAR uni2157
ENCODING 8535
SWIDTH 600 0
DWIDTH 10 0
BBX 10 11 0 0
BITMAP
2E0000
7F4180
1743C0
1F0E00
7F9800
2E4000
001FC0
062FC0
1E2F80
783FD0
201F80
ENDCHAR
STARTCHAR uni2158
ENCODING 8536
SWIDTH 600 0
DWIDTH 10 0
BBX 10 10 0 0
BITMAP
190180
7743C0
BFDE00
BFD800
034000
001FC0
062FC0
1E2F80
783FD0
201F80
ENDCHAR
STARTCHAR uni2159
ENCODING 8537
SWIDTH 600 0
DWIDTH 10 0
BBX 10 10 0 0
BITMAP
1F0180
3F03C0
0B0E00
0B1800
0B0B80
002FC0
063FC0
1E3FD0
782FC0
201B40
ENDCHAR
STARTCHAR uni215A
ENCODING 8538
SWIDTH 600 0
DWIDTH 10 0
BBX 10 10 0 0
BITMAP
3F4180
3F43C0
3F4E00
7F9800
2E4B80
002FC0
063FC0
1E3FD0
782FC0
201B40
ENDCHAR
STARTCHAR oneeighth
ENCODING 8539
SWIDTH 600 0
DWIDTH 10 0
BBX 9 10 0 0
BITMAP
1F0180
3F03C0
0B0E00
0B1800
0B1F40
003FC0
062F80
1E2FC0
783FC0
201F80
ENDCHAR
STARTCHAR threeeighths
ENCODING 8540
SWIDTH 600 0
DWIDTH 10 0
BBX 9 11 0 0
BITMAP
2E0000
7F4180
1743C0
1F0E00
7F9800
2E5F40
003FC0
062F80
1E2FC0
783FC0
201F80
ENDCHAR
STARTCHAR fiveeighths
ENCODING 8541
SWIDTH 600 0
DWIDTH 10 0
BBX 9 10 0 0
BITMAP
3F4180
3F43C0
3F4E00
7F9800
2E5F40
003FC0
062F80
1E2FC0
783FC0
201F80
ENDCHAR
STARTCHAR seveneighths
ENCODING 8542
SWIDTH 600 0
DWIDTH 10 0
BBX 9 10 0 0
BITMAP
7F8180
7F83C0
070E00
0E1800
1D1F40
003FC0
062F80
1E2FC0
783FC0
201F80
ENDCHAR
STARTCHAR uni2189
ENCODING 8585
SWIDTH 600 0
DWIDTH 10 0
BBX 9 11 0 0
BITMAP
2E4000
7F8180
B6C3C0
B6CE00
7F9800
2E5F40
002FC0
0602C0
1E1B80
783FC0
201F80
ENDCHAR
STARTCHAR uni2190
ENCODING 8592
SWIDTH 600 0
DWIDTH 10 0
BBX 9 8 0 0
BITMAP
01D000
07D000
1E0000
7FFFC0
7FFFC0
1E0000
07D000
01D000
ENDCHAR
STARTCHAR arrowup
ENCODING 8593
SWIDTH 600 0
DWIDTH 10 0
BBX 9 9 0 0
BITMAP
009000
02F400
0BFD00
2EEF40
78E7C0
10E100
00E000
00E000
00E000
ENDCHAR
STARTCHAR uni2192
ENCODING 8594
SWIDTH 600 0
DWIDTH 10 0
BBX 9 8 0 0
BITMAP
00A000
007800
001E00
BFFF80
BFFF80
001E00
007800
00A000
ENDCHAR
STARTCHAR arrowdown
ENCODING 8595
SWIDTH 600 0
DWIDTH 10 0
BBX 9 9 0 0
BITMAP
00E000
00E000
00E000
10E100
78E7C0
2EEF40
0BFD00
02F400
009000
ENDCHAR
STARTCHAR arrowboth
ENCODING 8596
SWIDTH 600 0
DWIDTH 10 0
BBX 10 8 0 0
BITMAP
040400
1E0E00
380780
BFFFD0
BFFFD0
380780
1E0E00
040400
ENDCHAR
STARTCHAR arrowupdn
ENCODING 8597
SWIDTH 600 0
DWIDTH 10 0
BBX 7 10 1 -1
BITMAP
0240
1FE0
7FF8
679C
0380
0380
679C
7FF8
1FE0
0240
ENDCHAR
STARTCHAR uni2196
ENCODING 8598
SWIDTH 600 0
DWIDTH 10 0
BBX 8 8 1 0
BITMAP
1000
BFF8
7F64
7F80
77E0
75F8
747D
0014
ENDCHAR
STARTCHAR uni2197
ENCODING 8599
SWIDTH 600 0
DWIDTH 10 0
BBX 7 8 1 0
BITMAP
0004
7FFC
2AFC
03FC
0FAC
3E2C
B82C
1000
ENDCHAR
STARTCHAR uni2198
ENCODING 8600
SWIDTH 600 0
DWIDTH 10 0
BBX 7 7 1 1
BITMAP
2000
B82C
2E2C
0BAC
02FC
2AFC
3FFC
ENDCHAR
STARTCHAR uni2199
ENCODING 8601
SWIDTH 600 0
DWIDTH 10 0
BBX 8 7 1 1
BITMAP
0008
743D
74F8
77E0
7F80
7FA4
7FF8
ENDCHAR
STARTCHAR arrowupdnbse
ENCODING 8616
SWIDTH 600 0
DWIDTH 10 0
BBX 8 12 1 -3
BITMAP
0240
1FE0
7FF8
679C
0380
0380
779C
7FF8
0FE0
0240
FFFE
FFFE
ENDCHAR
STARTCHAR uni21D0
ENCODING 8656
SWIDTH 600 0
DWIDTH 10 0
BBX 9 8 0 0
BITMAP
01D000
07D000
1FFFC0
7FFFC0
7FFFC0
1FFFC0
07D000
01D000
ENDCHAR
STARTCHAR uni21D1
ENCODING 8657
SWIDTH 600 0
DWIDTH 10 0
BBX 9 9 0 0
BITMAP
009000
02F400
0BBD00
2F6F40
7B6FC0
176900
036800
036800
036800
ENDCHAR
STARTCHAR uni21D2
ENCODING 8658
SWIDTH 600 0
DWIDTH 10 0
BBX 9 8 0 0
BITMAP
00A000
007800
BFFE00
BFFF80
BFFF80
BFFE00
007800
00A000
ENDCHAR
STARTCHAR uni21D3
ENCODING 8659
SWIDTH 600 0
DWIDTH 10 0
BBX 9 9 0 0
BITMAP
036800
036800
036800
176900
7B6FC0
2F6F40
0BBD00
02F400
009000
ENDCHAR
STARTCHAR uni2200
ENCODING 8704
SWIDTH 600 0
DWIDTH 10 0
BBX 10 10 0 0
BITMAP
B803D0
7C07C0
3FFF80
2FFF40
1F1F00
0F1E00
0B6D00
07BC00
03F800
02F400
ENDCHAR
STARTCHAR partialdiff
ENCODING 8706
SWIDTH 600 0
DWIDTH 10 0
BBX 8 10 1 0
BITMAP
0BE0
2FFC
047D
1FAE
7FFE
B87E
F03D
F4BC
BFF4
2F90
ENDCHAR
STARTCHAR uni2203
ENCODING 8707
SWIDTH 600 0
DWIDTH 10 0
BBX 7 10 1 0
BITMAP
BFFC
BFFC
007C
007C
3FFC
3FFC
007C
007C
FFFC
FFFC
ENDCHAR
STARTCHAR uni2206
ENCODING 8710
SWIDTH 600 0
DWIDTH 10 0
BBX 9 10 0 0
BITMAP
02F400
03F800
07BC00
0B6D00
0F2E00
1E1F00
2D0F40
3D0B80
7FFFC0
BFFFC0
ENDCHAR
STARTCHAR product
ENCODING 8719
SWIDTH 600 0
DWIDTH 10 0
BBX 10 12 0 -2
BITMAP
BFFFD0
BFFFD0
B803D0
B803D0
B803D0
B803D0
B803D0
B803D0
B803D0
B803D0
B803D0
B803D0
ENDCHAR
STARTCHAR summation
ENCODING 8721
SWIDTH 600 0
DWIDTH 10 0
BBX 8 12 1 -2
BITMAP
FFFE
BFFE
7D00
1F00
0B80
03D0
03D0
0B80
2F00
7D00
FFFF
FFFF
ENDCHAR
STARTCHAR minus
ENCODING 8722
SWIDTH 600 0
DWIDTH 10 0
BBX 8 2 1 4
BITMAP
FFFD
FFFD
ENDCHAR
STARTCHAR uni2215
ENCODING 8725
SWIDTH 600 0
DWIDTH 10 0
BBX 9 10 0 0
BITMAP
000180
0003C0
000E00
001800
000000
000000
060000
1E0000
780000
200000
ENDCHAR
STARTCHAR uni2219
ENCODING 8729
SWIDTH 600 0
DWIDTH 10 0
BBX 4 4 3 4
BITMAP
78
FE
FE
78
ENDCHAR
STARTCHAR radical
ENCODING 8730
SWIDTH 600 0
DWIDTH 10 0
BBX 10 14 0 -1
BITMAP
0000D0
0001D0
0002C0
000280
000340
000740
190700
7E0A00
0B0E00
075D00
029C00
01E800
00F800
00B400
ENDCHAR
STARTCHAR infinity
ENCODING 8734
SWIDTH 600 0
DWIDTH 10 0
BBX 10 6 0 2
BITMAP
2E2F80
BFFFD0
E2E1E0
E2F1E0
FFBFD0
7D2F80
ENDCHAR
STARTCHAR orthogonal
ENCODING 8735
SWIDTH 600 0
DWIDTH 10 0
BBX 8 8 1 1
BITMAP
A000
F000
F000
F000
F000
F000
FFFD
FFFD
ENDCHAR
STARTCHAR intersection
ENCODING 8745
SWIDTH 600 0
DWIDTH 10 0
BBX 8 8 1 1
BITMAP
0BE0
3FF8
B87C
B01D
B01D
B01D
B01D
B01D
ENDCHAR
STARTCHAR integral
ENCODING 8747
SWIDTH 600 0
DWIDTH 10 0
BBX 6 16 2 -3
BITMAP
06D0
0FD0
1F00
1E00
1E00
1E00
1E00
1F00
0F00
0F00
0F40
0F40
0F40
0F00
7E00
B800
ENDCHAR
STARTCHAR uni2237
ENCODING 8759
SWIDTH 600 0
DWIDTH 10 0
BBX 9 9 0 1
BITMAP
2E1F40
7F6F80
7F6F80
2E1F40
000000
2E1F40
7F6F80
7F6F80
2E1F40
ENDCHAR
STARTCHAR approxequal
ENCODING 8776
SWIDTH 600 0
DWIDTH 10 0
BBX 8 7 1 2
BITMAP
2E4D
BFFD
A1F4
0000
2E4D
BFFD
A1F4
ENDCHAR
STARTCHAR notequal
ENCODING 8800
SWIDTH 600 0
DWIDTH 10 0
BBX 8 10 1 0
BITMAP
002C
0074
FFFD
FFFD
0280
0740
FFFD
FFFD
2800
7400
ENDCHAR
STARTCHAR equivalence
ENCODING 8801
SWIDTH 600 0
DWIDTH 10 0
BBX 8 10 1 0
BITMAP
FFFD
FFFD
0000
0000
FFFD
FFFD
0000
0000
FFFD
FFFD
ENDCHAR
STARTCHAR lessequal
ENCODING 8804
SWIDTH 600 0
DWIDTH 10 0
BBX 8 9 1 0
BITMAP
006D
1BFD
FE90
FE90
1BFD
006D
0000
FFFD
FFFD
ENDCHAR
STARTCHAR greaterequal
ENCODING 8805
SWIDTH 600 0
DWIDTH 10 0
BBX 8 9 1 0
BITMAP
E900
BFE4
06FD
06BD
BFE4
F900
0000
FFFD
FFFD
ENDCHAR
STARTCHAR house
ENCODING 8962
SWIDTH 600 0
DWIDTH 10 0
BBX 9 10 0 0
BITMAP
02F000
07F800
0F6E00
2E0F40
7C07C0
7803C0
7803C0
7803C0
7FFFC0
7FFFC0
ENDCHAR
STARTCHAR revlogicalnot
ENCODING 8976
SWIDTH 600 0
DWIDTH 10 0
BBX 8 5 1 1
BITMAP
FFFD
FFFD
F000
F000
E000
ENDCHAR
STARTCHAR uni231C
ENCODING 8988
SWIDTH 600 0
DWIDTH 10 0
BBX 5 12 3 0
BITMAP
BFC0
BFC0
B000
B000
B000
B000
B000
B000
B000
B000
B000
B000
ENDCHAR
STARTCHAR uni231D
ENCODING 8989
SWIDTH 600 0
DWIDTH 10 0
BBX 6 12 1 0
BITMAP
7FD0
7FD0
01D0
01D0
01D0
01D0
01D0
01D0
01D0
01D0
01D0
01D0
ENDCHAR
STARTCHAR uni231E
ENCODING 8990
SWIDTH 600 0
DWIDTH 10 0
BBX 5 13 3 -3
BITMAP
B000
B000
B000
B000
B000
B000
B000
B000
B000
B000
B000
BFC0
BFC0
ENDCHAR
STARTCHAR uni231F
ENCODING 8991
SWIDTH 600 0
DWIDTH 10 0
BBX 6 13 1 -3
BITMAP
01D0
01D0
01D0
01D0
01D0
01D0
01D0
01D0
01D0
01D0
01D0
7FD0
7FD0
ENDCHAR
STARTCHAR integraltp
ENCODING 8992
SWIDTH 600 0
DWIDTH 10 0
BBX 5 20 3 -7
BITMAP
0B80
2F80
3D00
3C00
7C00
7C00
7C00
7C00
7C00
7C00
7C00
7C00
7C00
7C00
7C00
7C00
7C00
7C00
7C00
1400
ENDCHAR
STARTCHAR integralbt
ENCODING 8993
SWIDTH 600 0
DWIDTH 10 0
BBX 4 19 2 -3
BITMAP
0A
1F
1F
1F
1F
1F
1F
1F
1F
1F
1F
1F
1F
1F
1F
1F
1E
FD
F8
ENDCHAR
STARTCHAR uni2500
ENCODING 9472
SWIDTH 600 0
DWIDTH 10 0
BBX 12 2 -1 4
BITMAP
FFFFFE
FFFFFE
ENDCHAR
STARTCHAR uni2501
ENCODING 9473
SWIDTH 600 0
DWIDTH 10 0
BBX 12 4 -1 3
BITMAP
FFFFFE
FFFFFE
FFFFFE
FFFFFE
ENDCHAR
STARTCHAR uni2502
ENCODING 9474
SWIDTH 600 0
DWIDTH 10 0
BBX 3 22 3 -6
BITMAP
7C
7C
7C
7C
7C
7C
7C
7C
7C
7C
7C
7C
7C
7C
7C
7C
7C
7C
7C
7C
7C
7C
ENDCHAR
STARTCHAR uni2503
ENCODING 9475
SWIDTH 600 0
DWIDTH 10 0
BBX 5 22 2 -6
BITMAP
7FC0
7FC0
7FC0
7FC0
7FC0
7FC0
7FC0
7FC0
7FC0
7FC0
7FC0
7FC0
7FC0
7FC0
7FC0
7FC0
7FC0
7FC0
7FC0
7FC0
7FC0
7FC0
ENDCHAR
STARTCHAR uni2504
ENCODING 9476
SWIDTH 600 0
DWIDTH 10 0
BBX 9 2 0 4
BITMAP
79F3C0
79F3C0
ENDCHAR
STARTCHAR uni2505
ENCODING 9477
SWIDTH 600 0
DWIDTH 10 0
BBX 9 4 0 3
BITMAP
79F3C0
79F3C0
79F3C0
79F3C0
ENDCHAR
STARTCHAR uni2506
ENCODING 9478
SWIDTH 600 0
DWIDTH 10 0
BBX 3 17 3 -4
BITMAP
7C
7C
7C
7C
00
00
7C
7C
7C
7C
00
00
00
7C
7C
7C
7C
ENDCHAR
STARTCHAR uni2507
ENCODING 9479
SWIDTH 600 0
DWIDTH 10 0
BBX 5 17 2 -4
BITMAP
7FC0
7FC0
7FC0
7FC0
0000
0000
7FC0
7FC0
7FC0
7FC0
0000
0000
0000
7FC0
7FC0
7FC0
7FC0
ENDCHAR
STARTCHAR uni2508
ENCODING 9480
SWIDTH 600 0
DWIDTH 10 0
BBX 10 2 0 4
BITMAP
B7BED0
B7BED0
ENDCHAR
STARTCHAR uni2509
ENCODING 9481
SWIDTH 600 0
DWIDTH 10 0
BBX 10 4 0 3
BITMAP
B7BED0
B7BED0
B7BED0
B7BED0
ENDCHAR
STARTCHAR uni250A
ENCODING 9482
SWIDTH 600 0
DWIDTH 10 0
BBX 3 18 3 -4
BITMAP
7C
7C
7C
7C
00
7C
7C
7C
7C
00
7C
7C
7C
7C
7C
7C
7C
7C
ENDCHAR
STARTCHAR uni250B
ENCODING 9483
SWIDTH 600 0
DWIDTH 10 0
BBX 5 18 2 -4
BITMAP
7FC0
7FC0
7FC0
7FC0
0000
7FC0
7FC0
7FC0
7FC0
0000
7FC0
7FC0
7FC0
7FC0
7FC0
7FC0
7FC0
7FC0
ENDCHAR
STARTCHAR uni250C
ENCODING 9484
SWIDTH 600 0
DWIDTH 10 0
BBX 8 12 3 -6
BITMAP
7FFE
7FFE
7C00
7C00
7C00
7C00
7C00
7C00
7C00
7C00
7C00
7C00
ENDCHAR
STARTCHAR uni250D
ENCODING 9485
SWIDTH 600 0
DWIDTH 10 0
BBX 8 13 3 -6
BITMAP
7FFE
7FFE
7FFE
7FFE
7C00
7C00
7C00
7C00
7C00
7C00
7C00
7C00
7C00
ENDCHAR
STARTCHAR uni250E
ENCODING 9486
SWIDTH 600 0
DWIDTH 10 0
BBX 9 12 2 -6
BITMAP
7FFF80
7FFF80
7FC000
7FC000
7FC000
7FC000
7FC000
7FC000
7FC000
7FC000
7FC000
7FC000
ENDCHAR
STARTCHAR uni250F
ENCODING 9487
SWIDTH 600 0
DWIDTH 10 0
BBX 9 13 2 -6
BITMAP
7FFF80
7FFF80
7FFF80
7FFF80
7FC000
7FC000
7FC000
7FC000
7FC000
7FC000
7FC000
7FC000
7FC000
ENDCHAR
STARTCHAR uni2510
ENCODING 9488
SWIDTH 600 0
DWIDTH 10 0
BBX 7 12 -1 -6
BITMAP
FFFC
FFFC
007C
007C
007C
007C
007C
007C
007C
007C
007C
007C
ENDCHAR
STARTCHAR uni2511
ENCODING 9489
SWIDTH 600 0
DWIDTH 10 0
BBX 7 13 -1 -6
BITMAP
FFFC
FFFC
FFFC
FFFC
007C
007C
007C
007C
007C
007C
007C
007C
007C
ENDCHAR
STARTCHAR uni2512
ENCODING 9490
SWIDTH 600 0
DWIDTH 10 0
BBX 8 12 -1 -6
BITMAP
FFFF
FFFF
01FF
01FF
01FF
01FF
01FF
01FF
01FF
01FF
01FF
01FF
ENDCHAR
STARTCHAR uni2513
ENCODING 9491
SWIDTH 600 0
DWIDTH 10 0
BBX 8 13 -1 -6
BITMAP
FFFF
FFFF
FFFF
FFFF
01FF
01FF
01FF
01FF
01FF
01FF
01FF
01FF
01FF
ENDCHAR
STARTCHAR uni2514
ENCODING 9492
SWIDTH 600 0
DWIDTH 10 0
BBX 8 12 3 4
BITMAP
7C00
7C00
7C00
7C00
7C00
7C00
7C00
7C00
7C00
7C00
7FFE
7FFE
ENDCHAR
STARTCHAR uni2515
ENCODING 9493
SWIDTH 600 0
DWIDTH 10 0
BBX 8 13 3 3
BITMAP
7C00
7C00
7C00
7C00
7C00
7C00
7C00
7C00
7C00
7FFE
7FFE
7FFE
7FFE
ENDCHAR
STARTCHAR uni2516
ENCODING 9494
SWIDTH 600 0
DWIDTH 10 0
BBX 9 12 2 4
BITMAP
7FC000
7FC000
7FC000
7FC000
7FC000
7FC000
7FC000
7FC000
7FC000
7FC000
7FFF80
7FFF80
ENDCHAR
STARTCHAR uni2517
ENCODING 9495
SWIDTH 600 0
DWIDTH 10 0
BBX 9 13 2 3
BITMAP
7FC000
7FC000
7FC000
7FC000
7FC000
7FC000
7FC000
7FC000
7FC000
7FFF80
7FFF80
7FFF80
7FFF80
ENDCHAR
STARTCHAR uni2518
ENCODING 9496
SWIDTH 600 0
DWIDTH 10 0
BBX 7 12 -1 4
BITMAP
007C
007C
007C
007C
007C
007C
007C
007C
007C
007C
FFFC
FFFC
ENDCHAR
STARTCHAR uni2519
ENCODING 9497
SWIDTH 600 0
DWIDTH 10 0
BBX 7 13 -1 3
BITMAP
007C
007C
007C
007C
007C
007C
007C
007C
007C
FFFC
FFFC
FFFC
FFFC
ENDCHAR
STARTCHAR uni251A
ENCODING 9498
SWIDTH 600 0
DWIDTH 10 0
BBX 8 12 -1 4
BITMAP
01FF
01FF
01FF
01FF
01FF
01FF
01FF
01FF
01FF
01FF
FFFF
FFFF
ENDCHAR
STARTCHAR uni251B
ENCODING 9499
SWIDTH 600 0
DWIDTH 10 0
BBX 8 13 -1 3
BITMAP
01FF
01FF
01FF
01FF
01FF
01FF
01FF
01FF
01FF
FFFF
FFFF
FFFF
FFFF
ENDCHAR
STARTCHAR uni251C
ENCODING 9500
SWIDTH 600 0
DWIDTH 10 0
BBX 8 22 3 -6
BITMAP
7C00
7C00
7C00
7C00
7C00
7C00
7C00
7C00
7C00
7C00
7FFE
7FFE
7C00
7C00
7C00
7C00
7C00
7C00
7C00
7C00
7C00
7C00
ENDCHAR
STARTCHAR uni251D
ENCODING 9501
SWIDTH 600 0
DWIDTH 10 0
BBX 8 22 3 -6
BITMAP
7C00
7C00
7C00
7C00
7C00
7C00
7C00
7C00
7C00
7FFE
7FFE
7FFE
7FFE
7C00
7C00
7C00
7C00
7C00
7C00
7C00
7C00
7C00
ENDCHAR
STARTCHAR uni251E
ENCODING 9502
SWIDTH 600 0
DWIDTH 10 0
BBX 9 22 2 -6
BITMAP
7FC000
7FC000
7FC000
7FC000
7FC000
7FC000
7FC000
7FC000
7FC000
7FC000
7FFF80
7FFF80
1F0000
1F0000
1F0000
1F0000
1F0000
1F0000
1F0000
1F0000
1F0000
1F0000
ENDCHAR
STARTCHAR uni251F
ENCODING 9503
SWIDTH 600 0
DWIDTH 10 0
BBX 9 22 2 -6
BITMAP
1F0000
1F0000
1F0000
1F0000
1F0000
1F0000
1F0000
1F0000
1F0000
1F0000
7FFF80
7FFF80
7FC000
7FC000
7FC000
7FC000
7FC000
7FC000
7FC000
7FC000
7FC000
7FC000
ENDCHAR
STARTCHAR uni2520
ENCODING 9504
SWIDTH 600 0
DWIDTH 10 0
BBX 9 22 2 -6
BITMAP
7FC000
7FC000
7FC000
7FC000
7FC000
7FC000
7FC000
7FC000
7FC000
7FC000
7FFF80
7FFF80
7FC000
7FC000
7FC000
7FC000
7FC000
7FC000
7FC000
7FC000
7FC000
7FC000
ENDCHAR
STARTCHAR uni2521
ENCODING 9505
SWIDTH 600 0
DWIDTH 10 0
BBX 9 22 2 -6
BITMAP
7FC000
7FC000
7FC000
7FC000
7FC000
7FC000
7FC000
7FC000
7FC000
7FFF80
7FFF80
7FFF80
7FFF80
1F0000
1F0000
1F0000
1F0000
1F0000
1F0000
1F0000
1F0000
1F0000
ENDCHAR
STARTCHAR uni2522
ENCODING 9506
SWIDTH 600 0
DWIDTH 10 0
BBX 9 22 2 -6
BITMAP
1F0000
1F0000
1F0000
1F0000
1F0000
1F0000
1F0000
1F0000
1F0000
7FFF80
7FFF80
7FFF80
7FFF80
7FC000
7FC000
7FC000
7FC000
7FC000
7FC000
7FC000
7FC000
7FC000
ENDCHAR
STARTCHAR uni2523
ENCODING 9507
SWIDTH 600 0
DWIDTH 10 0
BBX 9 22 2 -6
BITMAP
7FC000
7FC000
7FC000
7FC000
7FC000
7FC000
7FC000
7FC000
7FC000
7FFF80
7FFF80
7FFF80
7FFF80
7FC000
7FC000
7FC000
7FC000
7FC000
7FC000
7FC000
7FC000
7FC000
ENDCHAR
STARTCHAR uni2524
ENCODING 9508
SWIDTH 600 0
DWIDTH 10 0
BBX 7 22 -1 -6
BITMAP
007C
007C
007C
007C
007C
007C
007C
007C
007C
007C
FFFC
FFFC
007C
007C
007C
007C
007C
007C
007C
007C
007C
007C
ENDCHAR
STARTCHAR uni2525
ENCODING 9509
SWIDTH 600 0
DWIDTH 10 0
BBX 7 22 -1 -6
BITMAP
007C
007C
007C
007C
007C
007C
007C
007C
007C
FFFC
FFFC
FFFC
FFFC
007C
007C
007C
007C
007C
007C
007C
007C
007C
ENDCHAR
STARTCHAR uni2526
ENCODING 9510
SWIDTH 600 0
DWIDTH 10 0
BBX 8 22 -1 -6
BITMAP
01FF
01FF
01FF
01FF
01FF
01FF
01FF
01FF
01FF
01FF
FFFF
FFFF
007C
007C
007C
007C
007C
007C
007C
007C
007C
007C
ENDCHAR
STARTCHAR uni2527
ENCODING 9511
SWIDTH 600 0
DWIDTH 10 0
BBX 8 22 -1 -6
BITMAP
007C
007C
007C
007C
007C
007C
007C
007C
007C
007C
FFFF
FFFF
01FF
01FF
01FF
01FF
01FF
01FF
01FF
01FF
01FF
01FF
ENDCHAR
STARTCHAR uni2528
ENCODING 9512
SWIDTH 600 0
DWIDTH 10 0
BBX 8 22 -1 -6
BITMAP
01FF
01FF
01FF
01FF
01FF
01FF
01FF
01FF
01FF
01FF
FFFF
FFFF
01FF
01FF
01FF
01FF
01FF
01FF
01FF
01FF
01FF
01FF
ENDCHAR
STARTCHAR uni2529
ENCODING 9513
SWIDTH 600 0
DWIDTH 10 0
BBX 8 22 -1 -6
BITMAP
01FF
01FF
01FF
01FF
01FF
01FF
01FF
01FF
01FF
FFFF
FFFF
FFFF
FFFF
007C
007C
007C
007C
007C
007C
007C
007C
007C
ENDCHAR
STARTCHAR uni252A
ENCODING 9514
SWIDTH 600 0
DWIDTH 10 0
BBX 8 22 -1 -6
BITMAP
007C
007C
007C
007C
007C
007C
007C
007C
007C
FFFF
FFFF
FFFF
FFFF
01FF
01FF
01FF
01FF
01FF
01FF
01FF
01FF
01FF
ENDCHAR
STARTCHAR uni252B
ENCODING 9515
SWIDTH 600 0
DWIDTH 10 0
BBX 8 22 -1 -6
BITMAP
01FF
01FF
01FF
01FF
01FF
01FF
01FF
01FF
01FF
FFFF
FFFF
FFFF
FFFF
01FF
01FF
01FF
01FF
01FF
01FF
01FF
01FF
01FF
ENDCHAR
STARTCHAR uni252C
ENCODING 9516
SWIDTH 600 0
DWIDTH 10 0
BBX 12 12 -1 -6
BITMAP
FFFFFE
FFFFFE
007C00
007C00
007C00
007C00
007C00
007C00
007C00
007C00
007C00
007C00
ENDCHAR
STARTCHAR uni252D
ENCODING 9517
SWIDTH 600 0
DWIDTH 10 0
BBX 12 13 -1 -6
BITMAP
FFFC00
FFFFFE
FFFFFE
FFFC00
007C00
007C00
007C00
007C00
007C00
007C00
007C00
007C00
007C00
ENDCHAR
STARTCHAR uni252E
ENCODING 9518
SWIDTH 600 0
DWIDTH 10 0
BBX 12 13 -1 -6
BITMAP
007FFE
FFFFFE
FFFFFE
007FFE
007C00
007C00
007C00
007C00
007C00
007C00
007C00
007C00
007C00
ENDCHAR
STARTCHAR uni252F
ENCODING 9519
SWIDTH 600 0
DWIDTH 10 0
BBX 12 13 -1 -6
BITMAP
FFFFFE
FFFFFE
FFFFFE
FFFFFE
007C00
007C00
007C00
007C00
007C00
007C00
007C00
007C00
007C00
ENDCHAR
STARTCHAR uni2530
ENCODING 9520
SWIDTH 600 0
DWIDTH 10 0
BBX 12 12 -1 -6
BITMAP
FFFFFE
FFFFFE
01FF00
01FF00
01FF00
01FF00
01FF00
01FF00
01FF00
01FF00
01FF00
01FF00
ENDCHAR
STARTCHAR uni2531
ENCODING 9521
SWIDTH 600 0
DWIDTH 10 0
BBX 12 13 -1 -6
BITMAP
FFFF00
FFFFFE
FFFFFE
FFFF00
01FF00
01FF00
01FF00
01FF00
01FF00
01FF00
01FF00
01FF00
01FF00
ENDCHAR
STARTCHAR uni2532
ENCODING 9522
SWIDTH 600 0
DWIDTH 10 0
BBX 12 13 -1 -6
BITMAP
01FFFE
FFFFFE
FFFFFE
01FFFE
01FF00
01FF00
01FF00
01FF00
01FF00
01FF00
01FF00
01FF00
01FF00
ENDCHAR
STARTCHAR uni2533
ENCODING 9523
SWIDTH 600 0
DWIDTH 10 0
BBX 12 13 -1 -6
BITMAP
FFFFFE
FFFFFE
FFFFFE
FFFFFE
01FF00
01FF00
01FF00
01FF00
01FF00
01FF00
01FF00
01FF00
01FF00
ENDCHAR
STARTCHAR uni2534
ENCODING 9524
SWIDTH 600 0
DWIDTH 10 0
BBX 12 12 -1 4
BITMAP
007C00
007C00
007C00
007C00
007C00
007C00
007C00
007C00
007C00
007C00
FFFFFE
FFFFFE
ENDCHAR
STARTCHAR uni2535
ENCODING 9525
SWIDTH 600 0
DWIDTH 10 0
BBX 12 13 -1 3
BITMAP
007C00
007C00
007C00
007C00
007C00
007C00
007C00
007C00
007C00
FFFC00
FFFFFE
FFFFFE
FFFC00
ENDCHAR
STARTCHAR uni2536
ENCODING 9526
SWIDTH 600 0
DWIDTH 10 0
BBX 12 13 -1 3
BITMAP
007C00
007C00
007C00
007C00
007C00
007C00
007C00
007C00
007C00
007FFE
FFFFFE
FFFFFE
007FFE
ENDCHAR
STARTCHAR uni2537
ENCODING 9527
SWIDTH 600 0
DWIDTH 10 0
BBX 12 13 -1 3
BITMAP
007C00
007C00
007C00
007C00
007C00
007C00
007C00
007C00
007C00
FFFFFE
FFFFFE
FFFFFE
FFFFFE
ENDCHAR
STARTCHAR uni2538
ENCODING 9528
SWIDTH 600 0
DWIDTH 10 0
BBX 12 12 -1 4
BITMAP
01FF00
01FF00
01FF00
01FF00
01FF00
01FF00
01FF00
01FF00
01FF00
01FF00
FFFFFE
FFFFFE
ENDCHAR
STARTCHAR uni2539
ENCODING 9529
SWIDTH 600 0
DWIDTH 10 0
BBX 12 13 -1 3
BITMAP
01FF00
01FF00
01FF00
01FF00
01FF00
01FF00
01FF00
01FF00
01FF00
FFFF00
FFFFFE
FFFFFE
FFFF00
ENDCHAR
STARTCHAR uni253A
ENCODING 9530
SWIDTH 600 0
DWIDTH 10 0
BBX 12 13 -1 3
BITMAP
01FF00
01FF00
01FF00
01FF00
01FF00
01FF00
01FF00
01FF00
01FF00
01FFFE
FFFFFE
FFFFFE
01FFFE
ENDCHAR
STARTCHAR uni253B
ENCODING 9531
SWIDTH 600 0
DWIDTH 10 0
BBX 12 13 -1 3
BITMAP
01FF00
01FF00
01FF00
01FF00
01FF00
01FF00
01FF00
01FF00
01FF00
FFFFFE
FFFFFE
FFFFFE
FFFFFE
ENDCHAR
STARTCHAR uni253C
ENCODING 9532
SWIDTH 600 0
DWIDTH 10 0
BBX 12 22 -1 -6
BITMAP
007C00
007C00
007C00
007C00
007C00
007C00
007C00
007C00
007C00
007C00
FFFFFE
FFFFFE
007C00
007C00
007C00
007C00
007C00
007C00
007C00
007C00
007C00
007C00
ENDCHAR
STARTCHAR uni253D
ENCODING 9533
SWIDTH 600 0
DWIDTH 10 0
BBX 12 22 -1 -6
BITMAP
007C00
007C00
007C00
007C00
007C00
007C00
007C00
007C00
007C00
FFFC00
FFFFFE
FFFFFE
FFFC00
007C00
007C00
007C00
007C00
007C00
007C00
007C00
007C00
007C00
ENDCHAR
STARTCHAR uni253E
ENCODING 9534
SWIDTH 600 0
DWIDTH 10 0
BBX 12 22 -1 -6
BITMAP
007C00
007C00
007C00
007C00
007C00
007C00
007C00
007C00
007C00
007FFE
FFFFFE
FFFFFE
007FFE
007C00
007C00
007C00
007C00
007C00
007C00
007C00
007C00
007C00
ENDCHAR
STARTCHAR uni253F
ENCODING 9535
SWIDTH 600 0
DWIDTH 10 0
BBX 12 22 -1 -6
BITMAP
007C00
007C00
007C00
007C00
007C00
007C00
007C00
007C00
007C00
FFFFFE
FFFFFE
FFFFFE
FFFFFE
007C00
007C00
007C00
007C00
007C00
007C00
007C00
007C00
007C00
ENDCHAR
STARTCHAR uni2540
ENCODING 9536
SWIDTH 600 0
DWIDTH 10 0
BBX 12 22 -1 -6
BITMAP
01FF00
01FF00
01FF00
01FF00
01FF00
01FF00
01FF00
01FF00
01FF00
01FF00
FFFFFE
FFFFFE
007C00
007C00
007C00
007C00
007C00
007C00
007C00
007C00
007C00
007C00
ENDCHAR
STARTCHAR uni2541
ENCODING 9537
SWIDTH 600 0
DWIDTH 10 0
BBX 12 22 -1 -6
BITMAP
007C00
007C00
007C00
007C00
007C00
007C00
007C00
007C00
007C00
007C00
FFFFFE
FFFFFE
01FF00
01FF00
01FF00
01FF00
01FF00
01FF00
01FF00
01FF00
01FF00
01FF00
ENDCHAR
STARTCHAR uni2542
ENCODING 9538
SWIDTH 600 0
DWIDTH 10 0
BBX 12 22 -1 -6
BITMAP
01FF00
01FF00
01FF00
01FF00
01FF00
01FF00
01FF00
01FF00
01FF00
01FF00
FFFFFE
FFFFFE
01FF00
01FF00
01FF00
01FF00
01FF00
01FF00
01FF00
01FF00
01FF00
01FF00
ENDCHAR
STARTCHAR uni2543
ENCODING 9539
SWIDTH 600 0
DWIDTH 10 0
BBX 12 22 -1 -6
BITMAP
01FF00
01FF00
01FF00
01FF00
01FF00
01FF00
01FF00
01FF00
01FF00
FFFF00
FFFFFE
FFFFFE
FFFF00
007C00
007C00
007C00
007C00
007C00
007C00
007C00
007C00
007C00
ENDCHAR
STARTCHAR uni2544
ENCODING 9540
SWIDTH 600 0
DWIDTH 10 0
BBX 12 22 -1 -6
BITMAP
01FF00
01FF00
01FF00
01FF00
01FF00
01FF00
01FF00
01FF00
01FF00
01FFFE
FFFFFE
FFFFFE
01FFFE
007C00
007C00
007C00
007C00
007C00
007C00
007C00
007C00
007C00
ENDCHAR
STARTCHAR uni2545
ENCODING 9541
SWIDTH 600 0
DWIDTH 10 0
BBX 12 22 -1 -6
BITMAP
007C00
007C00
007C00
007C00
007C00
007C00
007C00
007C00
007C00
FFFF00
FFFFFE
FFFFFE
FFFF00
01FF00
01FF00
01FF00
01FF00
01FF00
01FF00
01FF00
01FF00
01FF00
ENDCHAR
STARTCHAR uni2546
ENCODING 9542
SWIDTH 600 0
DWIDTH 10 0
BBX 12 22 -1 -6
BITMAP
007C00
007C00
007C00
007C00
007C00
007C00
007C00
007C00
007C00
01FFFE
FFFFFE
FFFFFE
01FFFE
01FF00
01FF00
01FF00
01FF00
01FF00
01FF00
01FF00
01FF00
01FF00
ENDCHAR
STARTCHAR uni2547
ENCODING 9543
SWIDTH 600 0
DWIDTH 10 0
BBX 12 22 -1 -6
BITMAP
01FF00
01FF00
01FF00
01FF00
01FF00
01FF00
01FF00
01FF00
01FF00
FFFFFE
FFFFFE
FFFFFE
FFFFFE
007C00
007C00
007C00
007C00
007C00
007C00
007C00
007C00
007C00
ENDCHAR
STARTCHAR uni2548
ENCODING 9544
SWIDTH 600 0
DWIDTH 10 0
BBX 12 22 -1 -6
BITMAP
007C00
007C00
007C00
007C00
007C00
007C00
007C00
007C00
007C00
FFFFFE
FFFFFE
FFFFFE
FFFFFE
01FF00
01FF00
01FF00
01FF00
01FF00
01FF00
01FF00
01FF00
01FF00
ENDCHAR
STARTCHAR uni2549
ENCODING 9545
SWIDTH 600 0
DWIDTH 10 0
BBX 12 22 -1 -6
BITMAP
01FF00
01FF00
01FF00
01FF00
01FF00
01FF00
01FF00
01FF00
01FF00
FFFF00
FFFFFE
FFFFFE
FFFF00
01FF00
01FF00
01FF00
01FF00
01FF00
01FF00
01FF00
01FF00
01FF00
ENDCHAR
STARTCHAR uni254A
ENCODING 9546
SWIDTH 600 0
DWIDTH 10 0
BBX 12 22 -1 -6
BITMAP
01FF00
01FF00
01FF00
01FF00
01FF00
01FF00
01FF00
01FF00
01FF00
01FFFE
FFFFFE
FFFFFE
01FFFE
01FF00
01FF00
01FF00
01FF00
01FF00
01FF00
01FF00
01FF00
01FF00
ENDCHAR
STARTCHAR uni254B
ENCODING 9547
SWIDTH 600 0
DWIDTH 10 0
BBX 12 22 -1 -6
BITMAP
01FF00
01FF00
01FF00
01FF00
01FF00
01FF00
01FF00
01FF00
01FF00
FFFFFE
FFFFFE
FFFFFE
FFFFFE
01FF00
01FF00
01FF00
01FF00
01FF00
01FF00
01FF00
01FF00
01FF00
ENDCHAR
STARTCHAR uni254C
ENCODING 9548
SWIDTH 600 0
DWIDTH 10 0
BBX 8 2 1 4
BITMAP
B83D
B83D
ENDCHAR
STARTCHAR uni254D
ENCODING 9549
SWIDTH 600 0
DWIDTH 10 0
BBX 8 4 1 3
BITMAP
B83D
B83D
B83D
B83D
ENDCHAR
STARTCHAR uni254E
ENCODING 9550
SWIDTH 600 0
DWIDTH 10 0
BBX 3 15 3 -3
BITMAP
7C
7C
7C
7C
7C
00
00
00
00
14
7C
7C
7C
7C
14
ENDCHAR
STARTCHAR uni254F
ENCODING 9551
SWIDTH 600 0
DWIDTH 10 0
BBX 5 14 2 -2
BITMAP
7FC0
7FC0
7FC0
7FC0
7FC0
0000
0000
0000
0000
7FC0
7FC0
7FC0
7FC0
7FC0
ENDCHAR
STARTCHAR uni2550
ENCODING 9552
SWIDTH 600 0
DWIDTH 10 0
BBX 12 6 -1 2
BITMAP
FFFFFE
FFFFFE
000000
000000
FFFFFE
FFFFFE
ENDCHAR
STARTCHAR uni2551
ENCODING 9553
SWIDTH 600 0
DWIDTH 10 0
BBX 7 22 1 -6
BITMAP
B83C
B83C
B83C
B83C
B83C
B83C
B83C
B83C
B83C
B83C
B83C
B83C
B83C
B83C
B83C
B83C
B83C
B83C
B83C
B83C
B83C
B83C
ENDCHAR
STARTCHAR uni2552
ENCODING 9554
SWIDTH 600 0
DWIDTH 10 0
BBX 8 14 3 -6
BITMAP
7FFE
7FFE
7C00
7C00
7FFE
7FFE
7C00
7C00
7C00
7C00
7C00
7C00
7C00
7800
ENDCHAR
STARTCHAR uni2553
ENCODING 9555
SWIDTH 600 0
DWIDTH 10 0
BBX 10 12 1 -6
BITMAP
BFFFE0
BFFFE0
B83C00
B83C00
B83C00
B83C00
B83C00
B83C00
B83C00
B83C00
B83C00
B83C00
ENDCHAR
STARTCHAR uni2554
ENCODING 9556
SWIDTH 600 0
DWIDTH 10 0
BBX 10 15 1 -7
BITMAP
BFFFE0
BFFFE0
B80000
B80000
B83FE0
B83FE0
B83C00
B83C00
B83C00
B83C00
B83C00
B83C00
B83C00
B83C00
140000
ENDCHAR
STARTCHAR uni2555
ENCODING 9557
SWIDTH 600 0
DWIDTH 10 0
BBX 7 14 -1 -6
BITMAP
FFFC
FFFC
007C
007C
FFFC
FFFC
007C
007C
007C
007C
007C
007C
007C
0078
ENDCHAR
STARTCHAR uni2556
ENCODING 9558
SWIDTH 600 0
DWIDTH 10 0
BBX 9 12 -1 -6
BITMAP
FFFFC0
FFFFC0
0B83C0
0B83C0
0B83C0
0B83C0
0B83C0
0B83C0
0B83C0
0B83C0
0B83C0
0B83C0
ENDCHAR
STARTCHAR uni2557
ENCODING 9559
SWIDTH 600 0
DWIDTH 10 0
BBX 9 15 -1 -7
BITMAP
FFFFC0
FFFFC0
0003C0
0003C0
FF83C0
FF83C0
0B83C0
0B83C0
0B83C0
0B83C0
0B83C0
0B83C0
0B83C0
0783C0
000140
ENDCHAR
STARTCHAR uni2558
ENCODING 9560
SWIDTH 600 0
DWIDTH 10 0
BBX 8 14 3 2
BITMAP
7800
7C00
7C00
7C00
7C00
7C00
7C00
7C00
7FFE
7FFE
7C00
7C00
7FFE
7FFE
ENDCHAR
STARTCHAR uni2559
ENCODING 9561
SWIDTH 600 0
DWIDTH 10 0
BBX 10 12 1 4
BITMAP
B83C00
B83C00
B83C00
B83C00
B83C00
B83C00
B83C00
B83C00
B83C00
B83C00
BFFFE0
BFFFE0
ENDCHAR
STARTCHAR uni255A
ENCODING 9562
SWIDTH 600 0
DWIDTH 10 0
BBX 10 15 1 2
BITMAP
140000
B83C00
B83C00
B83C00
B83C00
B83C00
B83C00
B83C00
B83C00
B83FE0
B83FE0
B80000
B80000
BFFFE0
BFFFE0
ENDCHAR
STARTCHAR uni255B
ENCODING 9563
SWIDTH 600 0
DWIDTH 10 0
BBX 7 14 -1 2
BITMAP
0078
007C
007C
007C
007C
007C
007C
007C
FFFC
FFFC
007C
007C
FFFC
FFFC
ENDCHAR
STARTCHAR uni255C
ENCODING 9564
SWIDTH 600 0
DWIDTH 10 0
BBX 9 12 -1 4
BITMAP
0B83C0
0B83C0
0B83C0
0B83C0
0B83C0
0B83C0
0B83C0
0B83C0
0B83C0
0B83C0
FFFFC0
FFFFC0
ENDCHAR
STARTCHAR uni255D
ENCODING 9565
SWIDTH 600 0
DWIDTH 10 0
BBX 9 15 -1 2
BITMAP
000140
0783C0
0B83C0
0B83C0
0B83C0
0B83C0
0B83C0
0B83C0
0B83C0
FF83C0
FF83C0
0003C0
0003C0
FFFFC0
FFFFC0
ENDCHAR
STARTCHAR uni255E
ENCODING 9566
SWIDTH 600 0
DWIDTH 10 0
BBX 8 22 3 -6
BITMAP
7800
7C00
7C00
7C00
7C00
7C00
7C00
7C00
7FFE
7FFE
7C00
7C00
7FFE
7FFE
7C00
7C00
7C00
7C00
7C00
7C00
7C00
7800
ENDCHAR
STARTCHAR uni255F
ENCODING 9567
SWIDTH 600 0
DWIDTH 10 0
BBX 10 23 1 -7
BITMAP
B83C00
B83C00
B83C00
B83C00
B83C00
B83C00
B83C00
B83C00
B83C00
B83C00
B83FE0
B83FE0
B83C00
B83C00
B83C00
B83C00
B83C00
B83C00
B83C00
B83C00
B83C00
B83C00
540000
ENDCHAR
STARTCHAR uni2560
ENCODING 9568
SWIDTH 600 0
DWIDTH 10 0
BBX 10 23 1 -7
BITMAP
B83C00
B83C00
B83C00
B83C00
B83C00
B83C00
B83C00
B83C00
B83FE0
B83FE0
B80000
B80000
B83FE0
B83FE0
B83C00
B83C00
B83C00
B83C00
B83C00
B83C00
B83C00
B83C00
540000
ENDCHAR
STARTCHAR uni2561
ENCODING 9569
SWIDTH 600 0
DWIDTH 10 0
BBX 7 22 -1 -6
BITMAP
0078
007C
007C
007C
007C
007C
007C
007C
FFFC
FFFC
007C
007C
FFFC
FFFC
007C
007C
007C
007C
007C
007C
007C
0078
ENDCHAR
STARTCHAR uni2562
ENCODING 9570
SWIDTH 600 0
DWIDTH 10 0
BBX 9 23 -1 -7
BITMAP
0B83C0
0B83C0
0B83C0
0B83C0
0B83C0
0B83C0
0B83C0
0B83C0
0B83C0
0B83C0
FF83C0
FF83C0
0B83C0
0B83C0
0B83C0
0B83C0
0B83C0
0B83C0
0B83C0
0B83C0
0B83C0
0B83C0
000140
ENDCHAR
STARTCHAR uni2563
ENCODING 9571
SWIDTH 600 0
DWIDTH 10 0
BBX 9 23 -1 -7
BITMAP
0783C0
0B83C0
0B83C0
0B83C0
0B83C0
0B83C0
0B83C0
0B83C0
FF83C0
FF83C0
0003C0
0003C0
FF83C0
FF83C0
0B83C0
0B83C0
0B83C0
0B83C0
0B83C0
0B83C0
0B83C0
0783C0
000140
ENDCHAR
STARTCHAR uni2564
ENCODING 9572
SWIDTH 600 0
DWIDTH 10 0
BBX 12 14 -1 -6
BITMAP
FFFFFE
FFFFFE
000000
000000
FFFFFE
FFFFFE
007C00
007C00
007C00
007C00
007C00
007C00
007C00
007800
ENDCHAR
STARTCHAR uni2565
ENCODING 9573
SWIDTH 600 0
DWIDTH 10 0
BBX 12 12 -1 -6
BITMAP
FFFFFE
FFFFFE
0B83C0
0B83C0
0B83C0
0B83C0
0B83C0
0B83C0
0B83C0
0B83C0
0B83C0
0B83C0
ENDCHAR
STARTCHAR uni2566
ENCODING 9574
SWIDTH 600 0
DWIDTH 10 0
BBX 12 14 -1 -6
BITMAP
FFFFFE
FFFFFE
000000
000000
FF83FE
FF83FE
0B83C0
0B83C0
0B83C0
0B83C0
0B83C0
0B83C0
0B83C0
0783C0
ENDCHAR
STARTCHAR uni2567
ENCODING 9575
SWIDTH 600 0
DWIDTH 10 0
BBX 12 14 -1 2
BITMAP
007800
007C00
007C00
007C00
007C00
007C00
007C00
007C00
FFFFFE
FFFFFE
000000
000000
FFFFFE
FFFFFE
ENDCHAR
STARTCHAR uni2568
ENCODING 9576
SWIDTH 600 0
DWIDTH 10 0
BBX 12 12 -1 4
BITMAP
0B83C0
0B83C0
0B83C0
0B83C0
0B83C0
0B83C0
0B83C0
0B83C0
0B83C0
0B83C0
FFFFFE
FFFFFE
ENDCHAR
STARTCHAR uni2569
ENCODING 9577
SWIDTH 600 0
DWIDTH 10 0
BBX 12 14 -1 2
BITMAP
0783C0
0B83C0
0B83C0
0B83C0
0B83C0
0B83C0
0B83C0
0B83C0
FF83FE
FF83FE
000000
000000
FFFFFE
FFFFFE
ENDCHAR
STARTCHAR uni256A
ENCODING 9578
SWIDTH 600 0
DWIDTH 10 0
BBX 12 22 -1 -6
BITMAP
007800
007C00
007C00
007C00
007C00
007C00
007C00
007C00
FFFFFE
FFFFFE
007C00
007C00
FFFFFE
FFFFFE
007C00
007C00
007C00
007C00
007C00
007C00
007C00
007800
ENDCHAR
STARTCHAR uni256B
ENCODING 9579
SWIDTH 600 0
DWIDTH 10 0
BBX 12 22 -1 -6
BITMAP
0B83C0
0B83C0
0B83C0
0B83C0
0B83C0
0B83C0
0B83C0
0B83C0
0B83C0
0B83C0
FFFFFE
FFFFFE
0B83C0
0B83C0
0B83C0
0B83C0
0B83C0
0B83C0
0B83C0
0B83C0
0B83C0
0B83C0
ENDCHAR
STARTCHAR uni256C
ENCODING 9580
SWIDTH 600 0
DWIDTH 10 0
BBX 12 22 -1 -6
BITMAP
0783C0
0B83C0
0B83C0
0B83C0
0B83C0
0B83C0
0B83C0
0B83C0
FF83FE
FF83FE
000000
000000
FF83FE
FF83FE
0B83C0
0B83C0
0B83C0
0B83C0
0B83C0
0B83C0
0B83C0
0783C0
ENDCHAR
STARTCHAR uni256D
ENCODING 9581
SWIDTH 600 0
DWIDTH 10 0
BBX 8 12 3 -6
BITMAP
01BE
07FE
1F90
3E00
3C00
7C00
7C00
7C00
7C00
7C00
7C00
7C00
ENDCHAR
STARTCHAR uni256E
ENCODING 9582
SWIDTH 600 0
DWIDTH 10 0
BBX 7 12 -1 -6
BITMAP
F900
FFC0
07F0
00F4
00B8
007C
007C
007C
007C
007C
007C
007C
ENDCHAR
STARTCHAR uni256F
ENCODING 9583
SWIDTH 600 0
DWIDTH 10 0
BBX 7 12 -1 4
BITMAP
007C
007C
007C
007C
007C
007C
007C
00B8
00F4
07F0
FFC0
F900
ENDCHAR
STARTCHAR uni2570
ENCODING 9584
SWIDTH 600 0
DWIDTH 10 0
BBX 8 12 3 4
BITMAP
7C00
7C00
7C00
7C00
7C00
7C00
7C00
3C00
3E00
1F90
07FE
01BE
ENDCHAR
STARTCHAR uni2571
ENCODING 9585
SWIDTH 600 0
DWIDTH 10 0
BBX 10 19 0 -5
BITMAP
0000E0
0001E0
0003E0
0007C0
000F80
001F00
003E00
007C00
00F800
01F000
03E000
07C000
0F8000
1F0000
3D0000
7C0000
F40000
F00000
D00000
ENDCHAR
STARTCHAR uni2572
ENCODING 9586
SWIDTH 600 0
DWIDTH 10 0
BBX 10 19 0 -5
BITMAP
D00000
F00000
F40000
7C0000
3D0000
1F0000
0F8000
07C000
03E000
01F000
00F800
007C00
003E00
001F00
000F80
0007C0
0003E0
0001E0
0000E0
ENDCHAR
STARTCHAR uni2573
ENCODING 9587
SWIDTH 600 0
DWIDTH 10 0
BBX 10 19 0 -5
BITMAP
D000E0
F001E0
F403E0
7C07C0
3D0F80
1F1F00
0F7E00
07FC00
03F800
02F000
03F800
07FC00
0F7E00
1F1F00
3D0F80
7C07C0
F403E0
F001E0
D000E0
ENDCHAR
STARTCHAR uni2574
ENCODING 9588
SWIDTH 600 0
DWIDTH 10 0
BBX 7 2 -1 4
BITMAP
FFFC
FFFC
ENDCHAR
STARTCHAR uni2575
ENCODING 9589
SWIDTH 600 0
DWIDTH 10 0
BBX 3 12 3 4
BITMAP
7C
7C
7C
7C
7C
7C
7C
7C
7C
7C
7C
7C
ENDCHAR
STARTCHAR uni2576
ENCODING 9590
SWIDTH 600 0
DWIDTH 10 0
BBX 8 2 3 4
BITMAP
7FFE
7FFE
ENDCHAR
STARTCHAR uni2577
ENCODING 9591
SWIDTH 600 0
DWIDTH 10 0
BBX 3 12 3 -6
BITMAP
7C
7C
7C
7C
7C
7C
7C
7C
7C
7C
7C
7C
ENDCHAR
STARTCHAR uni2578
ENCODING 9592
SWIDTH 600 0
DWIDTH 10 0
BBX 7 4 -1 3
BITMAP
FFFC
FFFC
FFFC
FFFC
ENDCHAR
STARTCHAR uni2579
ENCODING 9593
SWIDTH 600 0
DWIDTH 10 0
BBX 5 12 2 4
BITMAP
7FC0
7FC0
7FC0
7FC0
7FC0
7FC0
7FC0
7FC0
7FC0
7FC0
7FC0
7FC0
ENDCHAR
STARTCHAR uni257A
ENCODING 9594
SWIDTH 600 0
DWIDTH 10 0
BBX 8 4 3 3
BITMAP
7FFE
7FFE
7FFE
7FFE
ENDCHAR
STARTCHAR uni257B
ENCODING 9595
SWIDTH 600 0
DWIDTH 10 0
BBX 5 12 2 -6
BITMAP
7FC0
7FC0
7FC0
7FC0
7FC0
7FC0
7FC0
7FC0
7FC0
7FC0
7FC0
7FC0
ENDCHAR
STARTCHAR uni257C
ENCODING 9596
SWIDTH 600 0
DWIDTH 10 0
BBX 12 4 -1 3
BITMAP
007FFE
FFFFFE
FFFFFE
007FFE
ENDCHAR
STARTCHAR uni257D
ENCODING 9597
SWIDTH 600 0
DWIDTH 10 0
BBX 5 22 2 -6
BITMAP
1F00
1F00
1F00
1F00
1F00
1F00
1F00
1F00
1F00
1F00
7FC0
7FC0
7FC0
7FC0
7FC0
7FC0
7FC0
7FC0
7FC0
7FC0
7FC0
7FC0
ENDCHAR
STARTCHAR uni257E
ENCODING 9598
SWIDTH 600 0
DWIDTH 10 0
BBX 12 4 -1 3
BITMAP
FFFC00
FFFFFE
FFFFFE
FFFC00
ENDCHAR
STARTCHAR uni257F
ENCODING 9599
SWIDTH 600 0
DWIDTH 10 0
BBX 5 22 2 -6
BITMAP
7FC0
7FC0
7FC0
7FC0
7FC0
7FC0
7FC0
7FC0
7FC0
7FC0
7FC0
7FC0
1F00
1F00
1F00
1F00
1F00
1F00
1F00
1F00
1F00
1F00
ENDCHAR
STARTCHAR uni2580
ENCODING 9600
SWIDTH 600 0
DWIDTH 10 0
BBX 10 11 0 5
BITMAP
FFFFE0
FFFFE0
FFFFE0
FFFFE0
FFFFE0
FFFFE0
FFFFE0
FFFFE0
FFFFE0
FFFFE0
FFFFE0
ENDCHAR
STARTCHAR uni2581
ENCODING 9601
SWIDTH 600 0
DWIDTH 10 0
BBX 10 2 0 -6
BITMAP
FFFFE0
FFFFE0
ENDCHAR
STARTCHAR uni2582
ENCODING 9602
SWIDTH 600 0
DWIDTH 10 0
BBX 10 5 0 -6
BITMAP
FFFFE0
FFFFE0
FFFFE0
FFFFE0
FFFFE0
ENDCHAR
STARTCHAR uni2583
ENCODING 9603
SWIDTH 600 0
DWIDTH 10 0
BBX 10 8 0 -6
BITMAP
FFFFE0
FFFFE0
FFFFE0
FFFFE0
FFFFE0
FFFFE0
FFFFE0
FFFFE0
ENDCHAR
STARTCHAR uni2584
ENCODING 9604
SWIDTH 600 0
DWIDTH 10 0
BBX 10 11 0 -6
BITMAP
FFFFE0
FFFFE0
FFFFE0
FFFFE0
FFFFE0
FFFFE0
FFFFE0
FFFFE0
FFFFE0
FFFFE0
FFFFE0
ENDCHAR
STARTCHAR uni2585
ENCODING 9605
SWIDTH 600 0
DWIDTH 10 0
BBX 10 14 0 -6
BITMAP
FFFFE0
FFFFE0
FFFFE0
FFFFE0
FFFFE0
FFFFE0
FFFFE0
FFFFE0
FFFFE0
FFFFE0
FFFFE0
FFFFE0
FFFFE0
FFFFE0
ENDCHAR
STARTCHAR uni2586
ENCODING 9606
SWIDTH 600 0
DWIDTH 10 0
BBX 10 16 0 -6
BITMAP
FFFFE0
FFFFE0
FFFFE0
FFFFE0
FFFFE0
FFFFE0
FFFFE0
FFFFE0
FFFFE0
FFFFE0
FFFFE0
FFFFE0
FFFFE0
FFFFE0
FFFFE0
FFFFE0
ENDCHAR
STARTCHAR uni2587
ENCODING 9607
SWIDTH 600 0
DWIDTH 10 0
BBX 10 19 0 -6
BITMAP
FFFFE0
FFFFE0
FFFFE0
FFFFE0
FFFFE0
FFFFE0
FFFFE0
FFFFE0
FFFFE0
FFFFE0
FFFFE0
FFFFE0
FFFFE0
FFFFE0
FFFFE0
FFFFE0
FFFFE0
FFFFE0
FFFFE0
ENDCHAR
STARTCHAR uni2588
ENCODING 9608
SWIDTH 600 0
DWIDTH 10 0
BBX 10 22 0 -6
BITMAP
FFFFE0
FFFFE0
FFFFE0
FFFFE0
FFFFE0
FFFFE0
FFFFE0
FFFFE0
FFFFE0
FFFFE0
FFFFE0
FFFFE0
FFFFE0
FFFFE0
FFFFE0
FFFFE0
FFFFE0
FFFFE0
FFFFE0
FFFFE0
FFFFE0
FFFFE0
ENDCHAR
STARTCHAR uni2589
ENCODING 9609
SWIDTH 600 0
DWIDTH 10 0
BBX 9 22 0 -6
BITMAP
FFFF40
FFFF40
FFFF40
FFFF40
FFFF40
FFFF40
FFFF40
FFFF40
FFFF40
FFFF40
FFFF40
FFFF40
FFFF40
FFFF40
FFFF40
FFFF40
FFFF40
FFFF40
FFFF40
FFFF40
FFFF40
FFFF40
ENDCHAR
STARTCHAR uni258A
ENCODING 9610
SWIDTH 600 0
DWIDTH 10 0
BBX 8 22 0 -6
BITMAP
FFFD
FFFD
FFFD
FFFD
FFFD
FFFD
FFFD
FFFD
FFFD
FFFD
FFFD
FFFD
FFFD
FFFD
FFFD
FFFD
FFFD
FFFD
FFFD
FFFD
FFFD
FFFD
ENDCHAR
STARTCHAR uni258B
ENCODING 9611
SWIDTH 600 0
DWIDTH 10 0
BBX 6 22 0 -6
BITMAP
FFF0
FFF0
FFF0
FFF0
FFF0
FFF0
FFF0
FFF0
FFF0
FFF0
FFF0
FFF0
FFF0
FFF0
FFF0
FFF0
FFF0
FFF0
FFF0
FFF0
FFF0
FFF0
ENDCHAR
STARTCHAR uni258C
ENCODING 9612
SWIDTH 600 0
DWIDTH 10 0
BBX 5 22 0 -6
BITMAP
FF80
FF80
FF80
FF80
FF80
FF80
FF80
FF80
FF80
FF80
FF80
FF80
FF80
FF80
FF80
FF80
FF80
FF80
FF80
FF80
FF80
FF80
ENDCHAR
STARTCHAR uni258D
ENCODING 9613
SWIDTH 600 0
DWIDTH 10 0
BBX 4 22 0 -6
BITMAP
FE
FE
FE
FE
FE
FE
FE
FE
FE
FE
FE
FE
FE
FE
FE
FE
FE
FE
FE
FE
FE
FE
ENDCHAR
STARTCHAR uni258E
ENCODING 9614
SWIDTH 600 0
DWIDTH 10 0
BBX 3 22 0 -6
BITMAP
F4
F4
F4
F4
F4
F4
F4
F4
F4
F4
F4
F4
F4
F4
F4
F4
F4
F4
F4
F4
F4
F4
ENDCHAR
STARTCHAR uni258F
ENCODING 9615
SWIDTH 600 0
DWIDTH 10 0
BBX 2 22 0 -6
BITMAP
D0
D0
D0
D0
D0
D0
D0
D0
D0
D0
D0
D0
D0
D0
D0
D0
D0
D0
D0
D0
D0
D0
ENDCHAR
STARTCHAR uni2590
ENCODING 9616
SWIDTH 600 0
DWIDTH 10 0
BBX 6 22 4 -6
BITMAP
7FE0
7FE0
7FE0
7FE0
7FE0
7FE0
7FE0
7FE0
7FE0
7FE0
7FE0
7FE0
7FE0
7FE0
7FE0
7FE0
7FE0
7FE0
7FE0
7FE0
7FE0
7FE0
ENDCHAR
STARTCHAR uni2591
ENCODING 9617
SWIDTH 600 0
DWIDTH 10 0
BBX 10 22 -1 -7
BITMAP
082450
000000
504100
081450
041000
504100
041050
041050
504100
041000
081450
504100
000000
082450
004100
004100
082450
000000
504100
081450
041000
504100
ENDCHAR
STARTCHAR uni2592
ENCODING 9618
SWIDTH 600 0
DWIDTH 10 0
BBX 10 22 -1 -7
BITMAP
0D24A0
196550
514200
0D34A0
081450
518200
0924A0
0924A0
518200
081450
0D34A0
514200
045150
0D38A0
504100
504100
0D38A0
045150
514200
0D34A0
081450
518200
ENDCHAR
STARTCHAR uni2593
ENCODING 9619
SWIDTH 600 0
DWIDTH 10 0
BBX 11 23 -1 -7
BITMAP
1E78F0
2E7DF4
59A650
A6DB50
2E7DF4
6EBDF0
A6D750
2E7DF0
2E7DF0
A6D750
6EBDF0
2E7DF4
A6DB50
6EAAA0
2F7DF4
AAAAA0
AAAAA0
2F7DF4
6EAAA0
A6DB50
2E7DF4
7FBEF0
A18700
ENDCHAR
STARTCHAR uni2594
ENCODING 9620
SWIDTH 600 0
DWIDTH 10 0
BBX 10 3 0 13
BITMAP
FFFFE0
FFFFE0
FFFFE0
ENDCHAR
STARTCHAR uni2595
ENCODING 9621
SWIDTH 600 0
DWIDTH 10 0
BBX 2 22 8 -6
BITMAP
A0
A0
A0
A0
A0
A0
A0
A0
A0
A0
A0
A0
A0
A0
A0
A0
A0
A0
A0
A0
A0
A0
ENDCHAR
STARTCHAR uni2596
ENCODING 9622
SWIDTH 600 0
DWIDTH 10 0
BBX 5 11 0 -6
BITMAP
FF80
FF80
FF80
FF80
FF80
FF80
FF80
FF80
FF80
FF80
FF80
ENDCHAR
STARTCHAR uni2597
ENCODING 9623
SWIDTH 600 0
DWIDTH 10 0
BBX 6 11 4 -6
BITMAP
7FE0
7FE0
7FE0
7FE0
7FE0
7FE0
7FE0
7FE0
7FE0
7FE0
7FE0
ENDCHAR
STARTCHAR uni2598
ENCODING 9624
SWIDTH 600 0
DWIDTH 10 0
BBX 5 11 0 5
BITMAP
FF80
FF80
FF80
FF80
FF80
FF80
FF80
FF80
FF80
FF80
FF80
ENDCHAR
STARTCHAR uni2599
ENCODING 9625
SWIDTH 600 0
DWIDTH 10 0
BBX 10 22 0 -6
BITMAP
FF8000
FF8000
FF8000
FF8000
FF8000
FF8000
FF8000
FF8000
FF8000
FF8000
FF8000
FFFFE0
FFFFE0
FFFFE0
FFFFE0
FFFFE0
FFFFE0
FFFFE0
FFFFE0
FFFFE0
FFFFE0
FFFFE0
ENDCHAR
STARTCHAR uni259A
ENCODING 9626
SWIDTH 600 0
DWIDTH 10 0
BBX 10 22 0 -6
BITMAP
FF8000
FF8000
FF8000
FF8000
FF8000
FF8000
FF8000
FF8000
FF8000
FF8000
FF8000
007FE0
007FE0
007FE0
007FE0
007FE0
007FE0
007FE0
007FE0
007FE0
007FE0
007FE0
ENDCHAR
STARTCHAR uni259B
ENCODING 9627
SWIDTH 600 0
DWIDTH 10 0
BBX 10 22 0 -6
BITMAP
FFFFE0
FFFFE0
FFFFE0
FFFFE0
FFFFE0
FFFFE0
FFFFE0
FFFFE0
FFFFE0
FFFFE0
FFFFE0
FF8000
FF8000
FF8000
FF8000
FF8000
FF8000
FF8000
FF8000
FF8000
FF8000
FF8000
ENDCHAR
STARTCHAR uni259C
ENCODING 9628
SWIDTH 600 0
DWIDTH 10 0
BBX 10 22 0 -6
BITMAP
FFFFE0
FFFFE0
FFFFE0
FFFFE0
FFFFE0
FFFFE0
FFFFE0
FFFFE0
FFFFE0
FFFFE0
FFFFE0
007FE0
007FE0
007FE0
007FE0
007FE0
007FE0
007FE0
007FE0
007FE0
007FE0
007FE0
ENDCHAR
STARTCHAR uni259D
ENCODING 9629
SWIDTH 600 0
DWIDTH 10 0
BBX 6 11 4 5
BITMAP
7FE0
7FE0
7FE0
7FE0
7FE0
7FE0
7FE0
7FE0
7FE0
7FE0
7FE0
ENDCHAR
STARTCHAR uni259E
ENCODING 9630
SWIDTH 600 0
DWIDTH 10 0
BBX 10 22 0 -6
BITMAP
007FE0
007FE0
007FE0
007FE0
007FE0
007FE0
007FE0
007FE0
007FE0
007FE0
007FE0
FF8000
FF8000
FF8000
FF8000
FF8000
FF8000
FF8000
FF8000
FF8000
FF8000
FF8000
ENDCHAR
STARTCHAR uni259F
ENCODING 9631
SWIDTH 600 0
DWIDTH 10 0
BBX 10 22 0 -6
BITMAP
007FE0
007FE0
007FE0
007FE0
007FE0
007FE0
007FE0
007FE0
007FE0
007FE0
007FE0
FFFFE0
FFFFE0
FFFFE0
FFFFE0
FFFFE0
FFFFE0
FFFFE0
FFFFE0
FFFFE0
FFFFE0
FFFFE0
ENDCHAR
STARTCHAR uni25A0
ENCODING 9632
SWIDTH 600 0
DWIDTH 10 0
BBX 8 7 1 2
BITMAP
FFFD
FFFD
FFFD
FFFD
FFFD
FFFD
FFFD
ENDCHAR
STARTCHAR uni25A1
ENCODING 9633
SWIDTH 600 0
DWIDTH 10 0
BBX 8 8 1 1
BITMAP
FFFE
FFFE
D00A
D00A
D00A
D00A
FFFE
FFFE
ENDCHAR
STARTCHAR uni25AA
ENCODING 9642
SWIDTH 600 0
DWIDTH 10 0
BBX 6 5 2 2
BITMAP
BFD0
BFD0
BFD0
BFD0
BFD0
ENDCHAR
STARTCHAR uni25AB
ENCODING 9643
SWIDTH 600 0
DWIDTH 10 0
BBX 6 6 2 1
BITMAP
FFE0
FFE0
D0A0
D0A0
FFE0
FFE0
ENDCHAR
STARTCHAR filledrect
ENCODING 9644
SWIDTH 600 0
DWIDTH 10 0
BBX 10 2 0 3
BITMAP
FFFFE0
FFFFE0
ENDCHAR
STARTCHAR triagup
ENCODING 9650
SWIDTH 600 0
DWIDTH 10 0
BBX 8 8 1 1
BITMAP
0100
0380
07C0
0FD0
1FF0
2FF4
7FFC
BFFD
ENDCHAR
STARTCHAR uni25B3
ENCODING 9651
SWIDTH 600 0
DWIDTH 10 0
BBX 8 8 1 1
BITMAP
0100
0340
06C0
0990
1830
2424
7FFC
BFFD
ENDCHAR
STARTCHAR uni25B4
ENCODING 9652
SWIDTH 600 0
DWIDTH 10 0
BBX 6 5 2 2
BITMAP
0400
0E00
2F40
7F80
BFD0
ENDCHAR
STARTCHAR uni25B5
ENCODING 9653
SWIDTH 600 0
DWIDTH 10 0
BBX 7 6 1 1
BITMAP
0200
0280
0890
1820
2FF4
7FFC
ENDCHAR
STARTCHAR uni25B6
ENCODING 9654
SWIDTH 600 0
DWIDTH 10 0
BBX 8 8 1 1
BITMAP
9000
F900
FF90
FFF9
FFF9
FF90
F900
9000
ENDCHAR
STARTCHAR uni25B7
ENCODING 9655
SWIDTH 600 0
DWIDTH 10 0
BBX 8 8 1 1
BITMAP
9000
F900
EB90
D1B9
D1B9
EB90
F900
9000
ENDCHAR
STARTCHAR uni25B8
ENCODING 9656
SWIDTH 600 0
DWIDTH 10 0
BBX 5 6 2 1
BITMAP
9000
B900
BF80
BF80
B900
9000
ENDCHAR
STARTCHAR uni25B9
ENCODING 9657
SWIDTH 600 0
DWIDTH 10 0
BBX 6 7 2 1
BITMAP
9000
F800
DB40
D1E0
DB40
F800
9000
ENDCHAR
STARTCHAR triagrt
ENCODING 9658
SWIDTH 600 0
DWIDTH 10 0
BBX 10 8 0 1
BITMAP
900000
BE4000
BFF400
BFFF90
BFFF90
BFF400
BE4000
A00000
ENDCHAR
STARTCHAR triagdn
ENCODING 9660
SWIDTH 600 0
DWIDTH 10 0
BBX 8 8 1 1
BITMAP
BFFD
7FFC
2FF4
1FF0
0FD0
07C0
0380
0100
ENDCHAR
STARTCHAR uni25BD
ENCODING 9661
SWIDTH 600 0
DWIDTH 10 0
BBX 8 8 1 1
BITMAP
BFFD
7FFC
2424
1830
0990
06C0
0340
0100
ENDCHAR
STARTCHAR uni25BE
ENCODING 9662
SWIDTH 600 0
DWIDTH 10 0
BBX 6 5 2 1
BITMAP
BFD0
7F80
2F40
0E00
0400
ENDCHAR
STARTCHAR uni25BF
ENCODING 9663
SWIDTH 600 0
DWIDTH 10 0
BBX 7 6 1 1
BITMAP
7FFC
2FF4
1820
0890
0280
0200
ENDCHAR
STARTCHAR uni25C0
ENCODING 9664
SWIDTH 600 0
DWIDTH 10 0
BBX 8 8 1 1
BITMAP
0009
007E
07FE
7FFE
7FFE
07FE
007E
0009
ENDCHAR
STARTCHAR uni25C1
ENCODING 9665
SWIDTH 600 0
DWIDTH 10 0
BBX 8 8 1 1
BITMAP
0009
007E
07EA
7E0A
7E0A
07EA
007E
0009
ENDCHAR
STARTCHAR uni25C2
ENCODING 9666
SWIDTH 600 0
DWIDTH 10 0
BBX 6 6 2 1
BITMAP
0090
07D0
7FD0
7FD0
07D0
0090
ENDCHAR
STARTCHAR uni25C3
ENCODING 9667
SWIDTH 600 0
DWIDTH 10 0
BBX 7 7 1 1
BITMAP
0014
01F8
0B68
7C28
1B68
01F8
0014
ENDCHAR
STARTCHAR triaglf
ENCODING 9668
SWIDTH 600 0
DWIDTH 10 0
BBX 10 8 0 1
BITMAP
000190
001FD0
06FFD0
6FFFD0
6FFFD0
06FFD0
001FD0
000190
ENDCHAR
STARTCHAR uni25C6
ENCODING 9670
SWIDTH 600 0
DWIDTH 10 0
BBX 9 9 0 1
BITMAP
009000
02F400
0BFD00
2FFF40
7FFFC0
2FFF40
0BFD00
02F400
009000
ENDCHAR
STARTCHAR uni25C9
ENCODING 9673
SWIDTH 600 0
DWIDTH 10 0
BBX 8 8 1 1
BITMAP
1BE0
7FF8
FBED
DFEA
DFEA
FBED
7FF8
1BE0
ENDCHAR
STARTCHAR lozenge
ENCODING 9674
SWIDTH 600 0
DWIDTH 10 0
BBX 8 10 1 0
BITMAP
07C0
0FE0
1EF0
3C78
B42C
B42D
3C78
1EF0
0FE0
07C0
ENDCHAR
STARTCHAR uni25CB
ENCODING 9675
SWIDTH 600 0
DWIDTH 10 0
BBX 9 8 0 1
BITMAP
06F800
1FFF00
390780
7402C0
7402C0
390780
1FFF00
06F800
ENDCHAR
STARTCHAR uni25CC
ENCODING 9676
SWIDTH 600 0
DWIDTH 10 0
BBX 8 8 1 0
BITMAP
1A70
1A70
9009
D00F
D00F
9009
1A70
1A70
ENDCHAR
STARTCHAR uni25CF
ENCODING 9679
SWIDTH 600 0
DWIDTH 10 0
BBX 8 8 1 1
BITMAP
1BE0
7FF8
BFFD
FFFE
FFFE
BFFD
7FF8
1BE0
ENDCHAR
STARTCHAR invbullet
ENCODING 9688
SWIDTH 600 0
DWIDTH 10 0
BBX 6 6 2 1
BITMAP
BFD0
9090
4010
4010
9090
BFD0
ENDCHAR
STARTCHAR invcircle
ENCODING 9689
SWIDTH 600 0
DWIDTH 10 0
BBX 9 9 0 1
BITMAP
150540
7402C0
52F480
4BFC40
0BFD00
0BFD00
57F880
6151C0
690680
ENDCHAR
STARTCHAR uni25E6
ENCODING 9702
SWIDTH 600 0
DWIDTH 10 0
BBX 6 6 2 1
BITMAP
2F40
BFD0
E0A0
E0A0
BFD0
2F40
ENDCHAR
STARTCHAR uni2610
ENCODING 9744
SWIDTH 600 0
DWIDTH 10 0
BBX 11 11 -1 0
BITMAP
2FFFFC
7FFFFC
50001C
50001C
50001C
50001C
50001C
50001C
50001C
50001C
7FFFF4
ENDCHAR
STARTCHAR uni2611
ENCODING 9745
SWIDTH 600 0
DWIDTH 10 0
BBX 12 13 -1 -1
BITMAP
00000A
00002E
2FFFFC
7FFFFC
5101FC
5743EC
53CB9C
51DF1C
50FD1C
50BC1C
50001C
500014
1AAA90
ENDCHAR
STARTCHAR uni2615
ENCODING 9749
SWIDTH 600 0
DWIDTH 10 0
BBX 12 11 -1 -1
BITMAP
06F900
390680
66F9E0
AD2B6C
97F98D
60008D
700028
3402E0
2D0B00
1FFD00
06F400
ENDCHAR
STARTCHAR smileface
ENCODING 9786
SWIDTH 600 0
DWIDTH 10 0
BBX 10 11 0 0
BITMAP
06F900
2FFF40
7907C0
A369D0
D76CA0
D368A0
D608A0
A7FDD0
7AFBC0
2FFF40
06F900
ENDCHAR
STARTCHAR invsmileface
ENCODING 9787
SWIDTH 600 0
DWIDTH 10 0
BBX 10 9 0 1
BITMAP
06F900
2FFF40
78E7C0
B9A7D0
BFFBD0
B5A2D0
7D0BC0
2FFF40
06F800
ENDCHAR
STARTCHAR sun
ENCODING 9788
SWIDTH 600 0
DWIDTH 10 0
BBX 11 10 -1 0
BITMAP
003800
0D78A0
0BFFD0
0787C0
7F01F8
7F01F8
0787C0
0BFFD0
0D78A0
003800
ENDCHAR
STARTCHAR female
ENCODING 9792
SWIDTH 600 0
DWIDTH 10 0
BBX 9 13 0 -1
BITMAP
06F800
1FFF00
3D0B80
780380
780380
380780
1E5E00
06F800
00E000
1FFF00
1FFF00
00E000
009000
ENDCHAR
STARTCHAR male
ENCODING 9794
SWIDTH 600 0
DWIDTH 10 0
BBX 11 11 -1 0
BITMAP
0006A8
000AFC
0001FC
06FBEC
1FFF5C
3D0B40
780380
780380
3D0B40
1FFF00
06F800
ENDCHAR
STARTCHAR spade
ENCODING 9824
SWIDTH 600 0
DWIDTH 10 0
BBX 10 11 0 0
BITMAP
009000
02F400
0BFD00
2FFF40
7FFFC0
FFFFD0
FFFFE0
BFEFD0
19E640
07F800
1FFF00
ENDCHAR
STARTCHAR club
ENCODING 9827
SWIDTH 600 0
DWIDTH 10 0
BBX 10 11 0 0
BITMAP
02F400
0BFC00
0BFC00
03F800
7FFF80
FFFFD0
FFFFE0
BFEFD0
15E540
07F800
1FFF00
ENDCHAR
STARTCHAR heart
ENCODING 9829
SWIDTH 600 0
DWIDTH 10 0
BBX 10 11 0 0
BITMAP
2E1F80
BFBFD0
FFFFE0
FFFFE0
BFFFD0
BFFFC0
3FFF80
1FFF00
0BFD00
02F400
009000
ENDCHAR
STARTCHAR diamond
ENCODING 9830
SWIDTH 600 0
DWIDTH 10 0
BBX 10 11 0 0
BITMAP
009000
02F400
07FC00
1FFF00
7FFF80
FFFFD0
7FFF80
1FFF00
07FC00
02F400
009000
ENDCHAR
STARTCHAR musicalnote
ENCODING 9834
SWIDTH 600 0
DWIDTH 10 0
BBX 8 12 1 -1
BITMAP
02D0
02F4
02FD
028E
028B
0286
0285
0280
6F80
FF80
FF40
BD00
ENDCHAR
STARTCHAR musicalnotedbl
ENCODING 9835
SWIDTH 600 0
DWIDTH 10 0
BBX 10 13 0 -1
BITMAP
000560
02FFF0
02FFF0
029470
028070
028070
028070
028070
028BF0
6F6FE0
FF6FD0
FF1F80
B90000
ENDCHAR
STARTCHAR uni2713
ENCODING 10003
SWIDTH 600 0
DWIDTH 10 0
BBX 10 11 0 0
BITMAP
000090
0002E0
000780
000F00
002D00
507800
F0B000
74E000
3DD000
1FC000
0F4000
ENDCHAR
STARTCHAR uni2752
ENCODING 10066
SWIDTH 600 0
DWIDTH 10 0
BBX 8 8 1 1
BITMAP
BFFE
FFFE
800A
800A
800A
800A
800A
FFFD
ENDCHAR
STARTCHAR uni2764
ENCODING 10084
SWIDTH 600 0
DWIDTH 10 0
BBX 12 10 -1 0
BITMAP
2F86E4
BFEFFC
BFFFFD
FFFFFD
BFFFFD
7FFFF8
1FFFE0
06FF80
00BD00
002400
ENDCHAR
STARTCHAR uni27E6
ENCODING 10214
SWIDTH 600 0
DWIDTH 10 0
BBX 6 15 2 -3
BITMAP
BFF0
BFF0
A600
A600
A600
A600
A600
A600
A600
A600
A600
A600
A600
BFF0
BFF0
ENDCHAR
STARTCHAR uni27E7
ENCODING 10215
SWIDTH 600 0
DWIDTH 10 0
BBX 7 15 1 -3
BITMAP
7FF4
7FF4
0374
0374
0374
0374
0374
0374
0374
0374
0374
0374
0374
7FF4
7FF4
ENDCHAR
STARTCHAR uni2E18
ENCODING 11800
SWIDTH 600 0
DWIDTH 10 0
BBX 8 11 1 -3
BITMAP
02D0
07E0
02D0
0000
03C0
0FC0
3ED0
7AD0
7C18
7FFD
1BE4
ENDCHAR
STARTCHAR uni2E22
ENCODING 11810
SWIDTH 600 0
DWIDTH 10 0
BBX 5 8 3 4
BITMAP
BFC0
BFC0
B000
B000
B000
B000
B000
6000
ENDCHAR
STARTCHAR uni2E23
ENCODING 11811
SWIDTH 600 0
DWIDTH 10 0
BBX 6 8 1 4
BITMAP
7FD0
7FD0
01D0
01D0
01D0
01D0
01D0
0190
ENDCHAR
STARTCHAR uni2E24
ENCODING 11812
SWIDTH 600 0
DWIDTH 10 0
BBX 5 8 3 -3
BITMAP
A000
B000
B000
B000
B000
B000
BFC0
BFC0
ENDCHAR
STARTCHAR uni2E25
ENCODING 11813
SWIDTH 600 0
DWIDTH 10 0
BBX 6 8 1 -3
BITMAP
0190
01D0
01D0
01D0
01D0
01D0
7FD0
7FD0
ENDCHAR
STARTCHAR uniE0A0
ENCODING 57504
SWIDTH 600 0
DWIDTH 10 0
BBX 9 21 1 -4
BITMAP
F40000
F40000
F41800
F43D00
F4FF40
F5BE40
F43D00
F43D00
F43D00
F43D00
E07D00
41FC00
0BF400
3F9000
BE0000
F80000
F40000
F40000
F40000
F40000
F40000
ENDCHAR
STARTCHAR uniE0A1
ENCODING 57505
SWIDTH 600 0
DWIDTH 10 0
BBX 8 18 1 -3
BITMAP
F000
F000
F000
F000
F000
F000
FFD0
FFD0
0000
0000
1F2E
1F6E
1F9E
1EDE
1DEE
1EBE
1E7E
1E3E
ENDCHAR
STARTCHAR uniE0A2
ENCODING 57506
SWIDTH 600 0
DWIDTH 10 0
BBX 10 15 0 -1
BITMAP
02F400
0BFD00
0F1E00
1E0E00
1E0E00
1E0E00
7FFFC0
BFFFD0
BE1FD0
BE0FD0
BF6FD0
BF2FD0
BF2FD0
BFFFD0
7FFFC0
ENDCHAR
STARTCHAR uniE0B0
ENCODING 57520
SWIDTH 600 0
DWIDTH 10 0
BBX 10 21 0 -4
BITMAP
400000
D00000
F40000
FD0000
FF4000
FFC000
FFF000
FFF800
FFFE00
FFFF80
FFFFD0
FFFF80
FFFE00
FFF800
FFF000
FFC000
FF4000
FD0000
F40000
D00000
400000
ENDCHAR
STARTCHAR uniE0B1
ENCODING 57521
SWIDTH 600 0
DWIDTH 10 0
BBX 10 19 0 -3
BITMAP
A00000
F80000
3D0000
0F4000
07D000
01F400
007D00
001F40
0007C0
0002E0
0007C0
001F00
007D00
01F400
07D000
1F4000
7D0000
F40000
600000
ENDCHAR
STARTCHAR uniE0B2
ENCODING 57522
SWIDTH 600 0
DWIDTH 10 0
BBX 10 21 0 -4
BITMAP
000010
0000A0
0002E0
000BE0
001FE0
007FE0
01FFE0
07FFE0
1FFFE0
3FFFE0
BFFFE0
3FFFE0
1FFFE0
07FFE0
01FFE0
007FE0
001FE0
000BE0
0002E0
0000A0
000010
ENDCHAR
STARTCHAR uniE0B3
ENCODING 57523
SWIDTH 600 0
DWIDTH 10 0
BBX 11 19 -1 -3
BITMAP
000024
0000B8
0002E0
000B80
002E00
00B800
02E000
0B8000
1F0000
7D0000
1F0000
07C000
02E000
00B800
002E00
000B80
0002E0
0000B8
000020
ENDCHAR
STARTCHAR f_i
ENCODING 64257
SWIDTH 600 0
DWIDTH 10 0
BBX 10 12 0 0
BITMAP
000780
0BDFD0
2FD780
2E0000
BFC7C0
FFC7C0
2E07C0
2E07C0
2E07C0
2E07C0
2E07C0
2E07C0
ENDCHAR
STARTCHAR f_l
ENCODING 64258
SWIDTH 600 0
DWIDTH 10 0
BBX 10 11 0 0
BITMAP
0BEB80
2FDB80
2E0B80
BFCB80
BFCB80
2E0B80
2E0B80
2E0B80
2E0B80
2E0BD0
2E02E0
ENDCHAR
STARTCHAR uniFE0E
ENCODING 65038
SWIDTH 600 0
DWIDTH 10 0
BBX 9 10 0 0
BITMAP
6AAA80
800080
400040
690A80
010400
020C00
010400
010400
010400
02A400
ENDCHAR
STARTCHAR uniFE0F
ENCODING 65039
SWIDTH 600 0
DWIDTH 10 0
BBX 10 10 0 0
BITMAP
06A400
040100
100040
9BBC90
411450
440150
450440
104040
090500
01A000
ENDCHAR
STARTCHAR uniFEFF
ENCODING 65279
SWIDTH 600 0
DWIDTH 10 0
BBX 1 1 0 0
BITMAP
00
ENDCHAR
STARTCHAR u1F3B5
ENCODING 127925
SWIDTH 600 0
DWIDTH 10 0
BBX 8 12 1 -1
BITMAP
02D0
02F4
02FD
028E
028B
0286
0285
0280
6F80
FF80
FF40
BD00
ENDCHAR
STARTCHAR u1F3B6
ENCODING 127926
SWIDTH 600 0
DWIDTH 10 0
BBX 10 13 0 -1
BITMAP
000560
02FFF0
02FFF0
029470
028070
028070
028070
028070
028BF0
6F6FE0
FF6FD0
FF1F80
B90000
ENDCHAR
ENDFONT
